<svg width="100" height="84" viewBox="0 0 100 84" fill="none" xmlns="http://www.w3.org/2000/svg">
<path d="M10.6691 15.3948C35.8353 8.7652 50.7256 6.32327 77.7819 3.15516C82.8941 2.29775 87.7628 5.70128 88.696 10.8174L97.251 57.7263C98.1839 62.8422 94.8306 67.745 89.7453 68.7479C64.4214 75.5385 49.4565 77.779 22.6393 80.9863C17.5724 81.8412 12.7449 78.5091 11.746 73.4711C6.59322 54.432 5.00878 44.1391 3.14077 26.2865C2.28745 21.2169 5.62557 16.3881 10.6691 15.3948Z" fill="white" stroke="#371F15" stroke-width="5"/>
<path d="M48 23.5584C57.285 20.3337 62.9656 18.7143 73.8934 19.0001C77.3878 24.4175 79.4082 29.6335 81 36.0562L75 35.5L72.5 32H71L68 34.5H65.5C65.5 34.5 63.3215 34.4538 62.5 34.6552C61.7909 33.9086 61 33.2975 61 33.2975L58 33.0959L56.5 34.6552L56 38C56 38 52.7785 41.497 52 42.5L48 23.5584Z" fill="#B6E2A3"/>
<path d="M17.0371 38C19.5834 43.8006 20.4355 48.8734 22.2862 58.2717" stroke="#371F15" stroke-width="5" stroke-linecap="round"/>
<path d="M31.1902 56.3647C30.7809 47.9042 29.4248 43.1976 26.1398 34.8349C26.1398 34.8349 40.2487 31.3561 43.4661 42.2024C46.245 51.5702 31.1902 56.3647 31.1902 56.3647Z" stroke="#371F15" stroke-width="5" stroke-linecap="round" stroke-linejoin="round"/>
<path d="M51.7273 44L54 56.5L83.5 51.0002C82.6866 46.2379 81.9881 42.1534 81.2093 38.5M51.7273 44L48 23.5002C57.2733 20.2741 62.5484 18.6254 73.5 19.0002C77.6057 25.1178 79.5826 30.8682 81.2093 38.5M51.7273 44C52.8567 41.5152 54.5029 39.5064 56.5 37.9803C55.5 35.3793 56.9925 33.8713 58 33.5C58.9515 33.1493 61 33.5 62 35.2118C62.9699 34.9224 63.9733 34.7088 65 34.5716C65.9816 34.4404 66.9846 34.3789 68 34.3876C68.5772 31.855 70.8204 31.284 72.5178 32C73.761 32.5244 74.7114 33.7392 74.5 35.3793C76.8012 36.0633 79.0709 37.1022 81.2093 38.5" stroke="#371F15" stroke-width="3" stroke-linecap="round" stroke-linejoin="round"/>
</svg>
