<svg width="327" height="353" viewBox="0 0 327 353" fill="none" xmlns="http://www.w3.org/2000/svg">
<path d="M77 7.34797C93.4999 4.84812 103.5 16.3023 103.5 27.348C103.5 28.4385 103.347 29.508 103.064 30.5511C121.659 24.5908 142.077 21.348 163.5 21.348C184.214 21.348 203.987 24.3799 222.082 29.9681C223.061 19.4943 232.859 9.32596 248.5 11.6956C259.421 13.3503 269 22.6499 269 33.6956C269 39.8415 266.072 44.7188 261.572 47.8382C297.202 70.0856 320 104.709 320 145.348C320 180.778 310.971 205.574 287.137 221.553C287.258 222.275 287.367 223 287.463 223.727L304.093 245.209L284.15 260.646C275.104 291.869 248.808 317.711 191.828 323.248C191.039 336.328 187.486 345.848 180.5 345.848C172.003 345.848 166.035 336.836 164.432 324.302C164.207 324.297 163.983 324.291 163.759 324.285C162.847 336.828 159.3 345.848 152.5 345.848C143.225 345.848 136.961 335.11 136.102 320.774C93.0757 310.969 59.7243 282.201 50.5322 249.711C48.1745 252.13 46.168 254.351 45.2041 255.798C42.296 260.165 36.7703 261.899 32.2266 259.276C27.6828 256.652 27 251.245 28.749 246.298C30.4993 241.348 32.3223 237.792 35.5 232.848C37.2267 230.162 39.9436 226.115 42.0635 222.978C16.582 207.064 7 181.849 7 145.348C7.00012 103.511 31.1627 68.05 68.6123 45.9036C61.5654 43.3254 56.5 37.4329 56.5 29.348C56.5002 18.3024 66.079 9.00258 77 7.34797Z" fill="white"/>
<path d="M115.196 92.3668C117.373 92.1006 119.394 92.1014 120.861 92.1666C121.598 92.1994 123.169 92.3786 123.598 92.4205C124.828 92.7219 125.655 93.9121 125.476 95.194C125.296 96.4758 124.175 97.3939 122.909 97.3463C122.557 97.3118 121.499 97.3747 120.861 97.3463C119 97.3481 117.823 97.6252 116 97.8481C113.851 98.111 111.5 98.8481 110.136 99.2867C109.334 99.6525 107.8 100.2 107.35 100.453C106.188 101.198 104.642 100.86 103.897 99.6989C103.151 98.537 103.488 96.9907 104.649 96.2447L104.651 96.2428C105.201 95.9348 106.889 94.9861 107.837 94.5533C109.711 93.6983 112.346 92.7155 115.196 92.3668Z" fill="#371F15"/>
<path d="M202.304 92.5846C200.127 92.3184 198.106 92.3192 196.639 92.3844C195.902 92.4172 194.331 92.5964 193.902 92.6383C192.672 92.9397 191.845 94.1299 192.024 95.4117C192.204 96.6936 193.325 97.6116 194.591 97.5641C194.943 97.5296 196.001 97.5924 196.639 97.5641C198.5 97.5659 199.677 97.843 201.5 98.0659C203.649 98.3288 206 99.0659 207.364 99.5045C208.166 99.8703 209.7 100.418 210.15 100.671C211.312 101.416 212.858 101.078 213.603 99.9166C214.349 98.7548 214.012 97.2085 212.851 96.4625L212.849 96.4606C212.299 96.1526 210.611 95.2039 209.663 94.7711C207.789 93.9161 205.154 92.9332 202.304 92.5846Z" fill="#371F15"/>
<path d="M0 145.348C0.000113707 104.145 21.9294 69.0941 55.876 45.7344C51.9774 41.5718 49.5 36.0114 49.5 29.3477C49.5002 14.1827 62.3026 2.49477 75.9512 0.426791C93.9298 -2.29711 106.686 8.41311 109.774 21.2832C126.626 16.7636 144.707 14.3477 163.5 14.3477C182.276 14.3477 200.341 16.7593 217.178 21.2705C221.838 10.4494 233.664 2.36688 249.549 4.77347C262.984 6.80915 275.599 18.167 275.99 32.9864L276 33.6944C276 38.5804 274.647 42.9338 272.337 46.5772C305.315 69.7367 326.641 104.067 326.995 144.329L327 145.348C327 179.503 318.816 205.775 296.214 223.598L313.913 246.46L290 269.348C287.268 283.378 274.5 300.5 259 310.848C245.359 319.955 224.817 326.259 198.25 329.577C197.617 334.306 196.54 338.727 194.84 342.396C192.454 347.545 187.938 352.848 180.5 352.848C174.097 352.848 168.945 349.685 165.276 345.257C162.67 349.333 158.543 352.848 152.5 352.848C144.762 352.848 136.19 347.331 132.5 341.5C129.663 337.016 126.4 331.501 125.5 325.5C87.8108 315.546 61.276 292.32 48.0254 263.127C42.9666 267.623 35.439 269.212 28.7266 265.337C19.9967 260.297 19.8469 250.477 22.1494 243.965L22.5195 242.94C24.38 237.899 26.4151 234.035 29.6113 229.063C30.3929 227.846 31.3659 226.37 32.3896 224.831C9.00823 207.329 0.295034 181.255 0.0078125 147.112L0 145.348ZM56.5 29.3477C56.5 37.4328 61.5661 43.3242 68.6133 45.9024C31.1631 68.0487 9.00006 105.275 9 147.112C8.99995 183.613 22.5195 204.848 45.2041 221.553C43.0843 224.689 37.2268 230.16 35.5 232.847C32.3224 237.791 30.4993 241.348 28.749 246.298C27.0001 251.244 27.6831 256.651 32.2266 259.274C36.7703 261.898 42.296 260.165 45.2041 255.798C46.1679 254.351 47.1978 249.174 50.5322 249.711C53.3455 250.164 52.2559 255.168 53.3671 257.848C65.4227 286.921 96.707 311.796 136.102 320.773C136.961 335.109 143.225 345.848 152.5 345.848C158.068 345.848 159.955 339.8 161.5 330.723C161.842 328.714 160.288 323.348 164 323.348C169.5 323.348 167.5 328.348 168 330.723C169.982 340.137 173.444 345.848 180.5 345.848C187.486 345.848 191.039 336.327 191.828 323.248C248.808 317.711 275.103 291.869 284.15 260.646L304.093 245.209L287.463 223.727C287.367 222.999 287.258 222.275 287.137 221.553C310.971 205.574 320 180.778 320 145.348C320 104.709 292.129 68.8246 256.5 46.5772C261 43.4578 264.464 39.8016 265.5 36.3481C268.5 26.3481 259.421 13.349 248.5 11.6944C232.86 9.32482 228.479 22.513 227.5 32.9864C209.405 27.3982 184.214 22.3481 163.5 22.3481C153.105 22.3481 130.828 25.976 120.5 28.8481C109.542 31.8954 103.5 37.3481 100.5 36.3481C97.5 35.3481 99.5 27.9383 99.5 26.8481C99.4998 15.8026 93.4998 4.84786 77 7.34769C66.0791 9.00231 56.5002 18.3021 56.5 29.3477Z" fill="#371F15"/>
<path d="M288.19 191.348C293.238 191.348 295.762 196.359 294.5 202.623C294.414 203.049 294.315 203.474 294.208 203.895C294.706 203.914 295.204 203.946 295.7 203.992C297.386 199.893 302.567 194.282 307.75 193.854C311.57 193.538 315.952 195.686 315.952 199.491C315.952 203.296 312.798 206.381 309.012 207.634C308.644 207.756 308.257 207.871 307.857 207.983C315.459 212.461 321 220.17 321 228.931C321 238.953 307.177 248.348 293.238 248.348C279.299 248.348 268 239.579 268 228.931C268 220.49 272.203 213.024 278.646 208.484C277.584 206.138 277.181 203.279 277.464 200.744C278.095 195.106 282.615 191.348 288.19 191.348Z" fill="white"/>
<path d="M288.13 228.995C288.13 227.605 287.893 225.351 286.5 224C285.112 222.654 282.889 222 281.435 222C280.09 222 279 220.812 279 219.936C279 218.507 280.09 217.348 281.435 217.348C284.351 217.348 287.196 218.791 289.28 220.812C291.36 222.829 293 225.74 293 228.995C293 232.346 291.268 234.992 289.084 236.703C286.917 238.401 284.124 240 281.435 240C280.09 240 278.5 238.929 278.5 237.5C278.5 236.071 280.09 234.172 281.435 234.172C283.116 234.172 284.888 233.559 286.194 232.536C287.482 231.527 288.13 230.289 288.13 228.995Z" fill="#371F15"/>
<path d="M288.2 185.5C293.24 185.5 296.222 188.712 298.15 192.27C298.226 192.411 298.299 192.554 298.37 192.698C300.778 190.804 303.851 189.156 307.312 188.87C310.221 188.629 313.364 189.299 315.921 190.883C318.546 192.508 320.96 195.423 320.96 199.498C320.96 203.28 320.365 206.227 318 208.488C323.409 213.716 326.5 220.906 326.5 228.928C326.5 236.254 320.861 244.273 315 248.339C308.998 252.502 293.24 253.348 293.24 253.348C285.68 254 279 251 276.86 248.965C276.019 248.165 274.645 246.783 276.23 245.208C277.815 243.633 280.01 245.208 280.01 245.208C282.192 246.438 283.046 246.802 285.68 247.444C288.067 248.025 290.606 248.339 293.24 248.339C307.158 248.339 320.96 238.946 320.96 228.928C320.96 220.17 315.428 212.464 307.837 207.986C308.236 207.875 308.623 207.76 308.99 207.638C312.77 206.386 315.92 203.302 315.92 199.498C315.92 195.694 311.544 193.546 307.73 193.862C302.555 194.291 299.854 201.914 297.65 205.759C296.03 208.586 292.056 207.327 292.61 204.507C292.694 204.081 293.044 201.765 293.24 201.376C296.39 195.115 290.72 191.357 288.2 191.357C282.633 191.357 278.12 195.115 277.49 200.75C277.207 203.285 277.61 206.142 278.67 208.488C272.237 213.026 268.04 220.49 268.04 228.928C268.04 231.348 268.623 233.671 269.688 235.815C269.688 235.815 270.914 238.031 268.67 238.946C266.426 239.861 265.168 238.031 265.168 238.031C263.783 235.242 262 230.736 262 227.5C262 218.715 266.796 212.238 272.833 206.748C272.359 204.563 272.245 202.302 272.481 200.197C273.409 191.896 280.198 185.5 288.2 185.5Z" fill="#371F15"/>
<path d="M129 136.348C129 145.737 124 152.348 113 153.848C103.698 155.117 92.893 150.133 91.5003 140.848C90.0003 130.848 98 119.348 109 119.348C122 119.348 129 126.959 129 136.348Z" fill="#371F15"/>
<path d="M120 132.148C120 135.793 114.718 139.348 109.969 139.348C105.221 139.348 100.599 137.406 99.2219 133.948C97.7887 130.348 103.521 124.348 109.969 124.348C116.418 124.348 120 128.503 120 132.148Z" fill="white"/>
<path d="M108.5 143.848C102.5 143.848 99 141.848 99 141.848C99.5 143.348 101.5 147.848 108.5 147.848C114 147.848 117 144.348 118.5 141.848C118.1 141.848 114.5 143.848 108.5 143.848Z" fill="white"/>
<path d="M184 136.348C184 145.737 189 152.348 200 153.848C209.303 155.117 220.107 150.133 221.5 140.848C223 130.848 215 119.348 204 119.348C191 119.348 184 126.959 184 136.348Z" fill="#371F15"/>
<path d="M193 132.148C193 135.793 198.282 139.348 203.031 139.348C207.779 139.348 212.401 137.406 213.778 133.948C215.211 130.348 209.479 124.348 203.031 124.348C196.582 124.348 193 128.503 193 132.148Z" fill="white"/>
<path d="M204.5 143.848C210.5 143.848 214 141.848 214 141.848C213.5 143.348 211.5 147.848 204.5 147.848C199 147.848 196 144.348 194.5 141.848C194.9 141.848 198.5 143.848 204.5 143.848Z" fill="white"/>
<path d="M155.928 161.85C157.111 161.816 158.156 162.617 158.431 163.769L158.432 163.767L158.433 163.772C158.435 163.782 158.44 163.802 158.447 163.829C158.462 163.886 158.488 163.978 158.523 164.1C158.595 164.344 158.709 164.71 158.872 165.157C159.2 166.058 159.715 167.265 160.456 168.5C161.966 171.016 163.766 172.778 167 173.349C169.422 173.776 172.5 172.857 174.376 171.961C175.5 171.424 176.204 170.589 176.779 170.05C177.065 169.782 177.284 169.559 177.427 169.409C177.498 169.335 177.551 169.278 177.582 169.243C177.597 169.227 177.607 169.215 177.612 169.209C178.518 168.167 180.097 168.056 181.14 168.961C182.182 169.866 182.293 171.446 181.388 172.488C181.38 172.496 181.147 172.754 181.048 172.857C180.847 173.068 180.561 173.359 180.198 173.698C179.476 174.375 178.433 175.267 177.146 176.123C174.637 177.793 170.84 179.565 166.565 178.811C166.449 178.79 166.333 178.766 166.219 178.742C166.118 180.104 165.755 181.695 165.476 182.192C164.303 184.283 160.836 189.126 155.119 188.5C149.894 187.928 147.061 183.348 146 181C145.811 180.582 145.563 179.768 145.362 178.887C141.266 178.973 138.029 176.864 135.936 174.944C134.793 173.897 133.909 172.834 133.311 172.036C133.011 171.635 132.506 170.861 132.344 170.613C131.646 169.422 132.045 167.891 133.235 167.192C134.426 166.494 135.956 166.893 136.655 168.083L136.679 168.119C136.702 168.158 136.742 168.222 136.798 168.307C136.909 168.477 137.083 168.731 137.313 169.038C137.778 169.659 138.5 170.612 139.5 171.207C142.185 172.805 144 173.073 146.24 172.857C148.262 172.663 150.5 170.613 151.779 168.912C152.638 167.77 152.882 166.373 153.164 165.411C153.304 164.935 153.4 164.543 153.461 164.277C153.491 164.145 153.512 164.045 153.524 163.982C153.531 163.951 153.536 163.928 153.538 163.916L153.539 163.909V163.907L153.54 163.905C153.75 162.742 154.746 161.884 155.928 161.85ZM156.221 171.207C154.852 173.857 152.485 177.047 148.668 178.322C150.004 180.801 152.533 183.54 155.119 183.785C159.978 184.246 162.62 180.407 163.194 177.746C159.9 176.205 157.667 173.535 156.234 171.178C156.23 171.187 156.225 171.198 156.221 171.207ZM136.654 168.079L136.655 168.081C136.654 168.079 136.653 168.078 136.652 168.077L136.654 168.079Z" fill="#371F15"/>
<path d="M99 168.348C99 182.348 88 189.348 69.5 189.348C53.2076 189.348 40 181.446 40 169.848C40 158.25 53.2076 147.348 69.5 147.348C85.7924 147.348 99 156.75 99 168.348Z" fill="#FFC3CE"/>
<path d="M214 166.348C214 180.348 225 187.348 243.5 187.348C259.792 187.348 273 179.446 273 167.848C273 156.25 259.792 145.348 243.5 145.348C227.208 145.348 214 154.75 214 166.348Z" fill="#FFC3CE"/>
<path d="M166 196.827C166.5 197.827 164.001 200.826 158.5 200.826C153 200.827 149.151 197.875 149.5 196.827C150 195.327 153.582 196.327 158 196.327C162.418 196.327 165.507 195.838 166 196.827Z" fill="#371F15"/>
<path d="M85.0001 174.348C83.5 174.848 81 172.848 81.0001 167.848C81.0001 162.848 85.4358 161.052 86.5002 161.347C90.0003 162.318 86.4967 163.874 86 167.848C85.5001 171.848 86.8975 173.715 85.0001 174.348Z" fill="#371F15"/>
<path d="M70.4996 176.849C69.0066 177.489 66.9909 173.848 67.4418 168.039C68 160.848 71.376 158.438 72.4463 158.848C74.6084 159.677 72.8764 162.846 72.446 168.123C72.0128 173.434 72.388 176.039 70.4996 176.849Z" fill="#371F15"/>
<path d="M55.0002 177.348C53.3758 177.348 52.6136 172.608 53.4999 166.849C54.4234 160.848 57.9301 158.438 59.0004 158.848C61.1624 159.678 58.5 163.348 57.5 168.647C56.5116 173.884 57.5 177.348 55.0002 177.348Z" fill="#371F15"/>
<path d="M256.67 175.605C255.111 175.874 252.941 173.521 253.693 168.578C254.444 163.635 259.1 162.526 260.108 162.978C263.422 164.464 259.724 165.475 258.636 169.33C257.54 173.21 258.641 175.265 256.67 175.605Z" fill="#371F15"/>
<path d="M240.229 176.326C238.651 176.715 238 172.848 238.646 167.136C239.457 159.97 244.091 158.304 245.08 158.883C247.078 160.053 244.854 162.897 243.57 168.033C242.278 173.204 242.224 175.835 240.229 176.326Z" fill="#371F15"/>
<path d="M226.535 176.947C224.911 176.947 224.148 172.206 225.035 166.447C225.958 160.447 230.838 156.019 233 156.85C235.162 157.681 232.001 162.85 230.001 167.85C228.021 172.798 229.035 176.947 226.535 176.947Z" fill="#371F15"/>
</svg>
