<svg width="236" height="80" viewBox="0 0 236 80" fill="none" xmlns="http://www.w3.org/2000/svg">
<path d="M110.5 0C121.142 0 130.588 5.11526 136.517 13.0205C138.559 12.3584 140.737 12 143 12C152.515 12 160.55 18.3282 163.13 27.0049C163.253 27.0013 163.376 27 163.5 27C167.397 27 170.878 28.7844 173.17 31.5801C176.829 27.5385 182.118 25 188 25C195.772 25 202.508 29.433 205.818 35.9082C213.466 38.3656 219 45.5362 219 54C219 54.2111 218.995 54.4214 218.988 54.6309C220.252 54.2214 221.6 54 223 54C230.18 54 236 59.8203 236 67C236 74.1797 230.18 80 223 80H13C5.8203 80 0 74.1797 0 67C0 59.8203 5.8203 54 13 54C13.0626 54 13.1251 54.0011 13.1875 54.002C14.3914 46.0746 21.2365 40 29.5 40C30.8305 40 32.124 40.1587 33.3633 40.4561C35.2683 29.9597 44.4542 22 55.5 22C60.0435 22 64.2716 23.348 67.8086 25.6641C70.5763 23.3749 74.1278 22 78 22C78.5753 22 79.1435 22.0306 79.7031 22.0898C84.043 9.24638 96.1917 0 110.5 0Z" fill="white"/>
</svg>
