<svg width="93" height="48" viewBox="0 0 93 48" fill="none" xmlns="http://www.w3.org/2000/svg">
<path d="M50.4961 0C57.4617 0 63.4086 4.36127 65.7631 10.5043C66.695 10.2933 67.6646 10.1818 68.6602 10.1818C75.883 10.1818 81.7383 16.0428 81.7383 23.2727C81.7383 23.5237 81.7302 23.7731 81.7163 24.0206C88.0093 24.3857 93 29.6093 93 36C93 42.6274 87.6327 48 81.0117 48H13.8047C6.18057 48 0 41.8134 0 34.1818C0 26.5502 6.18057 20.3636 13.8047 20.3636C14.9307 20.3636 16.025 20.4996 17.0728 20.7543C16.8367 19.8146 16.7109 18.8311 16.7109 17.8182C16.7109 11.1908 22.0783 5.81818 28.6992 5.81818C31.5319 5.81818 34.1346 6.80233 36.1862 8.44673C38.9733 3.41004 44.3366 0 50.4961 0Z" fill="white"/>
</svg>
