<svg width="72" height="34" viewBox="0 0 72 34" fill="none" xmlns="http://www.w3.org/2000/svg">
<path d="M44.2148 0C52.8882 0 59.9195 7.0675 59.9195 15.7857C59.9195 15.8617 59.9172 15.9376 59.9162 16.0134C60.8285 15.7081 61.8044 15.5429 62.8188 15.5429C67.8894 15.5429 72 19.6746 72 24.7714C72 29.8682 67.8894 34 62.8188 34H10.6309C4.7596 34 0 29.2158 0 23.3143C0 17.4127 4.7596 12.6286 10.6309 12.6286C11.3979 12.6286 12.1458 12.7111 12.8667 12.8662C14.5016 8.74283 18.5094 5.82857 23.1946 5.82857C25.9058 5.82857 28.3898 6.80481 30.3188 8.426C32.9509 3.41543 38.1856 0 44.2148 0Z" fill="white"/>
</svg>
