<svg width="319" height="494" viewBox="0 0 319 494" fill="none" xmlns="http://www.w3.org/2000/svg">
<path d="M115.121 8.00018C127.113 5.28028 142.328 20.7781 148.5 32.0002C162.814 58.025 169.6 93.457 158.091 130.788C233.263 126.583 298.185 167.413 308.063 232.601C314.366 274.193 306.246 302.81 274.901 322.857C275.112 324.043 275.313 325.258 275.5 326.501C282.152 370.754 255.358 444.856 173.997 458.211C173.94 474.126 167.455 486.5 157.499 486.5C149.869 486.5 146.335 475.145 146.024 460.199C146.002 460.199 145.98 460.198 145.958 460.197C145.391 475.144 139.037 486.5 129.499 486.5C121.499 486.5 117.999 474.016 117.999 458C117.999 457.369 118.01 456.743 118.029 456.121C107.914 453.301 98.9121 449.13 91.0781 443.908C89.6892 448.307 86.6473 452.045 81.8779 454.228C71.8341 458.824 59.3919 453.984 53.3427 444.742C44.2033 430.779 50.457 416.919 60.5009 412.322C61.1474 412.027 61.813 411.794 62.4931 411.617C59.0144 404.641 56.5331 397.214 55.0907 389.548C51.2924 393.252 47.5072 397.156 46.0634 399.324C43.1554 403.691 37.6306 405.425 33.0868 402.802C28.5431 400.179 27.9982 393.739 28.998 388.239C29.9979 382.74 34.3204 374.684 37.498 369.74C39.4711 366.67 47.2841 356.524 52.9238 349.274C26.7227 337.121 13.9897 313.695 8.57805 277.984C0.468731 224.469 32.6528 175.642 84.8505 149.772C87.514 127.224 75.9776 104.461 51.997 62.0012C42.678 45.5012 40.9997 28.9994 51.998 23.5002C61.998 18.5006 81.4977 31.9996 89.499 42.0002C102.313 58.016 114.285 86.5986 117.756 137.328C120.326 136.628 122.927 135.977 125.557 135.378C132.573 114.529 126.63 89.7435 111.001 44.0002C104.874 26.0683 103.129 10.7203 115.121 8.00018Z" fill="#FDEFC8"/>
<path d="M61.4991 28.4998C65.7998 25.8595 72.2511 27.4974 78.6221 31.782C82.9934 35.045 86.8679 38.7122 89.4991 42.0008C102.313 58.0166 114.285 86.5993 117.756 137.329C111.5 139 104.5 141.5 97.9991 144.5C97.999 120.176 93.756 109.5 83.9063 88.4998C78.0366 75.9858 70.1475 63.2938 60.4991 46.9998C55.7647 39.0037 57.6674 30.8524 61.4991 28.4998ZM124.355 12.9617C126.805 12.0306 129.611 12.3418 132.507 13.6121C139.188 18.624 145.165 25.9365 148.5 32.0008C162.814 58.0256 169.6 93.4577 158.091 130.789C153 131 142.5 132 138.499 133C143.033 109.102 140.95 98.5535 135.187 76.0857C131.752 62.697 126.366 48.7577 119.924 30.951C116.763 22.2126 120.152 14.5592 124.355 12.9617Z" fill="#FFC3CE"/>
<path d="M113.573 1.17396C122.878 -0.936561 131.957 4.0967 138.408 9.33998C145.201 14.8614 151.124 22.2469 154.633 28.6271C168.559 53.9467 175.717 87.6331 167.314 123.5C240.85 123.02 304.834 164.564 314.985 231.552C318.226 252.94 320.662 273.154 314.985 289.5C309.693 304.739 299.154 316.212 284.5 326.501C291.039 372.61 261.973 447.654 180.705 464.096C180.063 470.686 178.358 476.807 175.554 481.769C171.914 488.209 165.836 493.5 157.499 493.5C151.425 493.5 147.344 490.011 144.724 485.901C141.059 490.324 135.944 493.5 129.499 493.5C120.919 493.5 116.346 486.592 114.175 480.662C112.196 475.253 111.261 468.468 111.048 461.306C104.855 459.246 99.0619 456.688 93.6881 453.694C91.4303 456.535 88.4584 458.914 84.7907 460.593C71.0013 466.903 55.0462 460.127 47.486 448.576C37.2165 432.887 42.2469 416.299 53.3678 408.398C52.7304 406.828 52.1371 405.241 51.5885 403.64C46.8595 410.299 37.6384 413.512 29.5875 408.864C25.0834 406.264 22.9781 401.958 22.1286 398.108C21.2892 394.303 21.5031 390.331 22.111 386.987C22.7816 383.299 24.4397 379.233 26.1276 375.737C27.8677 372.134 29.8866 368.638 31.61 365.956C33.1826 363.509 37.7893 357.42 42.3014 351.56C18.3451 337.164 6.73045 312.513 1.65688 279.032C-6.83147 223.016 26.0653 172.619 78.1862 145.312C78.536 136.693 76.5585 127.513 71.9196 115.962C66.572 102.646 57.9291 86.7385 45.902 65.4435C40.9141 56.6119 37.6376 47.2364 37.3815 38.839C37.1207 30.2876 40.1101 21.6183 48.8678 17.2394L49.2868 17.0372C53.6281 15.0199 58.3418 15.1588 62.4157 16.0304C66.6832 16.9434 70.9828 18.8088 74.9245 21.0216C82.7615 25.4212 90.3519 31.862 94.9645 37.6271C101.003 45.1746 106.706 55.0644 111.527 67.9933C109.455 61.3602 107.071 54.1498 104.377 46.2638C101.262 37.1481 98.9131 27.7786 99.2741 19.9728C99.4581 15.9941 100.366 11.8512 102.765 8.31849C105.284 4.60949 109.018 2.20726 113.573 1.17396ZM148.5 32.0001C142.327 20.7781 127.112 5.28026 115.121 8.00013C103.129 10.7205 104.874 26.0686 111.001 44.0001C126.629 89.7434 132.573 114.529 125.556 135.378C122.927 135.977 120.326 136.628 117.756 137.328C114.285 86.5987 102.312 58.0159 89.4987 42.0001C81.4972 31.9996 61.9976 18.5006 51.9977 23.5001C40.9998 28.9994 42.678 45.5013 51.9967 62.0011C75.9773 104.461 89.1635 128.952 86.5 151.5C34.3025 177.37 3.5 228 8.57778 277.984C13.4941 310.427 24.3901 331.577 46 344.5C47.349 345.307 57.2006 346.841 64.5 348.501C68.9809 349.52 72.5 350.586 72.5 351.56C72.5 356.004 56.5 356.5 49.5 354.5C44.6491 360.784 39.0398 367.341 37.4977 369.74C34.3201 374.684 29.9976 382.74 28.9977 388.239C27.9979 393.739 28.5432 400.178 33.0866 402.802C37.6303 405.425 43.1551 403.691 46.0631 399.324C46.9246 398.031 51.9658 389.619 54 387.5C57.2467 384.118 60.7813 379.716 62.4928 381C65.1419 382.987 58 392 56.8417 397C58.2662 402.033 60.1541 406.927 62.4928 411.617C61.8128 411.794 61.147 412.027 60.5006 412.322C50.457 416.919 44.2035 430.779 53.3424 444.742C59.3915 453.984 71.8339 458.824 81.8776 454.228C84.9723 452.811 87.3396 450.74 89 448.259C84.5 443 83.2907 440.5 84.7907 439C85.3355 438.455 85.9426 438.207 88 439.388C89.9843 441.129 92.7024 443.079 97 446C103.618 449.81 109.971 453.874 118.029 456.121C118.01 456.742 117.999 457.369 117.999 458C117.999 474.016 121.499 486.499 129.499 486.5C139.037 486.5 143.933 474.446 144.5 459.5C144.494 458.542 145.218 457.428 146.5 457.5C147.5 457.556 148.024 458.635 148 459.5C148.311 474.445 149.869 486.499 157.499 486.5C167.455 486.5 173.94 474.126 173.997 458.211C255.358 444.856 282.152 370.754 275.5 326.501C275.313 325.258 275.112 324.043 274.901 322.857C276.858 321.605 278.725 320.32 280.503 319C307.203 299.185 313.972 271.596 308.063 232.601C297.463 176.451 238.5 127 167.314 132.5C165.607 132.417 158.5 132.36 153 132.5C148.654 132.611 146.167 133 145.5 132C144.5 130.5 146.767 128.081 149.5 127C153.518 125.412 157.5 125 159.863 124.5C168.811 89.4957 162.007 56.5592 148.5 32.0001Z" fill="#371F15"/>
<path d="M111 216.401C111 224.907 115.53 230.897 125.496 232.256C133.923 233.405 143.712 228.89 144.974 220.478C146.333 211.419 139.085 201 129.119 201C117.342 201 111 207.895 111 216.401Z" fill="#371F15"/>
<path d="M119.154 212.596C119.154 215.899 123.94 219.119 128.241 219.119C132.543 219.119 136.731 217.36 137.978 214.227C139.277 210.966 134.083 205.53 128.241 205.53C122.399 205.53 119.154 209.294 119.154 212.596Z" fill="white"/>
<path d="M126.565 223.196C121.129 223.196 117.958 221.384 117.958 221.384C118.411 222.743 120.223 226.82 126.565 226.82C131.548 226.82 134.266 223.649 135.625 221.384C135.262 221.384 132.001 223.196 126.565 223.196Z" fill="white"/>
<path d="M185 202.401C185 210.907 189.53 216.897 199.496 218.256C207.923 219.405 217.712 214.89 218.974 206.478C220.333 197.419 213.085 187 203.119 187C191.342 187 185 193.895 185 202.401Z" fill="#371F15"/>
<path d="M193.153 198.596C193.153 201.899 197.939 205.119 202.24 205.119C206.542 205.119 210.73 203.36 211.977 200.227C213.276 196.966 208.082 191.53 202.24 191.53C196.398 191.53 193.153 195.294 193.153 198.596Z" fill="white"/>
<path d="M203.573 209.196C209.008 209.196 212.179 207.384 212.179 207.384C211.726 208.743 209.914 212.82 203.573 212.82C198.59 212.82 195.872 209.649 194.513 207.384C194.875 207.384 198.137 209.196 203.573 209.196Z" fill="white"/>
<path d="M191 230C191.5 228 190.5 225.5 193 225.5C195 225.5 195.5 227.5 195.5 229.5C195.5 231 195 234 190.5 237C192.792 240.503 193.18 246.665 192.5 251C192.129 253.368 189 262 180.5 262.5C178.5 262.618 177.742 261.18 177.732 260.5C177.721 259.771 178.5 258.403 180.5 257.869C183.634 257.032 185.645 253.683 186.5 249.884C187.554 245.198 186.849 239.827 184.323 237.645C180.699 237.347 177.5 235.003 177.5 235.003C176.82 234.663 176.461 234.6 176 235.503C175.5 238.003 174.039 240.717 170.906 243.242C168.719 245.003 162.623 246.281 157.794 244.507C156.357 243.98 155.159 243.233 154.321 242.694C153.9 242.422 153.156 241.872 152.919 241.697C151.299 240.503 151 238.503 152 237.527C152.717 236.827 154.5 237.095 155 237.503C155.82 238.172 156.667 239.241 158 240.003C161.5 242.003 164.5 241.697 167.5 240.503C171.629 238.86 173.373 232.302 171 226.5C170.585 225.487 170.5 223.5 172.149 222.943C174 222.194 175 223.938 175.5 225C175.826 225.692 176.677 229.508 179 231.5C181.227 233.41 183.77 234.591 187 234C189.42 233.558 190.497 232.014 191 230Z" fill="#371F15"/>
<path d="M183.288 152.015C190.537 150.98 200.468 151.297 209.5 154.5C218.532 157.703 226.859 163.864 231.342 172.829C231.712 173.57 231.412 174.472 230.671 174.842C229.93 175.213 229.029 174.912 228.658 174.171C224.641 166.136 217.093 161.547 208.5 158.5C199.908 155.453 190 154.5 183.712 154.986C182.892 155.103 182.132 154.532 182.015 153.712C181.898 152.892 182.468 152.132 183.288 152.015Z" fill="#371F15"/>
<path d="M108.635 171.045C109.439 170.844 110.253 171.332 110.455 172.136C110.655 172.94 110.166 173.754 109.363 173.955C101.5 177 91.2195 184.337 85.5 194.5C80.4814 203.417 77.0384 214.009 77.4975 225.943C77.5293 226.77 76.8847 227.467 76.0571 227.499C75.2293 227.531 74.5323 226.886 74.5004 226.058C74.0156 213.454 76.9944 201.563 82.5052 192C88.5658 181.483 97.6889 173.782 108.635 171.045Z" fill="#371F15"/>
<path d="M218 221C218 235 229 242 247.5 242C263.792 242 277 234.098 277 222.5C277 210.902 263.792 200 247.5 200C231.208 200 218 209.402 218 221Z" fill="#FFC3CE"/>
<path d="M232 227C233.501 227.5 236 225.5 236 220.5C236 215.5 231.565 213.704 230.5 213.999C227 214.97 230.504 216.526 231 220.5C231.5 224.5 230.103 226.367 232 227Z" fill="#371F15"/>
<path d="M246.5 229.5C247.993 230.141 250.009 226.5 249.558 220.691C249 213.5 245.624 211.09 244.554 211.5C242.392 212.329 244.124 215.497 244.554 220.774C244.987 226.086 244.612 228.691 246.5 229.5Z" fill="#371F15"/>
<path d="M262 230C263.625 230 264.387 225.26 263.501 219.501C262.577 213.5 259.07 211.09 258 211.5C255.838 212.33 258.5 216 259.5 221.299C260.489 226.536 259.5 230 262 230Z" fill="#371F15"/>
<path d="M131.147 244.502C134.177 258.17 124.953 267.385 106.892 271.39C90.9857 274.916 76.3807 270.061 73.8703 258.738C71.3598 247.415 81.8945 233.912 97.8006 230.386C113.707 226.859 128.636 233.179 131.147 244.502Z" fill="#FFC3CE"/>
<path d="M91.4922 262.776C93.0717 262.702 94.6816 259.934 92.8777 255.271C91.0738 250.608 86.2887 250.533 85.4026 251.192C82.4886 253.361 86.3175 253.548 88.2145 257.075C90.1241 260.626 89.4943 262.871 91.4922 262.776Z" fill="#371F15"/>
<path d="M107.7 259.921C109.324 259.959 109.123 256.043 107.255 250.606C104.913 243.785 100.028 243.162 99.1876 243.942C97.49 245.517 100.278 247.812 102.643 252.548C105.024 257.317 105.646 259.873 107.7 259.921Z" fill="#371F15"/>
<path d="M121.203 257.563C122.789 257.211 122.507 252.418 120.395 246.988C118.195 241.329 112.472 238.062 110.541 239.342C108.611 240.621 112.816 244.984 115.851 249.432C118.854 253.834 118.763 258.104 121.203 257.563Z" fill="#371F15"/>
</svg>
