<svg width="500" height="500" viewBox="0 0 500 500" fill="none" xmlns="http://www.w3.org/2000/svg">
<path d="M229.378 30.0897C239.308 15.6004 260.692 15.6004 270.622 30.0897L333.142 121.314C336.393 126.058 341.179 129.535 346.695 131.161L452.775 162.431C469.623 167.398 476.231 187.735 465.52 201.656L398.08 289.307C394.573 293.864 392.745 299.491 392.903 305.239L395.943 415.79C396.426 433.349 379.127 445.918 362.577 440.032L258.376 402.979C252.958 401.052 247.042 401.052 241.624 402.979L137.423 440.032C120.873 445.918 103.574 433.349 104.057 415.79L107.097 305.239C107.255 299.491 105.427 293.864 101.92 289.307L34.4804 201.656C23.7688 187.735 30.3766 167.398 47.2253 162.431L153.305 131.161C158.821 129.535 163.607 126.058 166.858 121.314L229.378 30.0897Z" fill="#F4EC65"/>
<ellipse cx="206.907" cy="234.772" rx="19.8853" ry="18.1283" transform="rotate(-41.8739 206.907 234.772)" fill="black"/>
<ellipse cx="206.547" cy="227.168" rx="7.5" ry="5" transform="rotate(-17.4125 206.547 227.168)" fill="white"/>
<ellipse cx="19.8853" cy="18.1283" rx="19.8853" ry="18.1283" transform="matrix(-0.744616 -0.667494 -0.667494 0.744616 318.815 236.546)" fill="black"/>
<ellipse cx="7.5" cy="5" rx="7.5" ry="5" transform="matrix(-0.954175 -0.299248 -0.299248 0.954175 300.921 226.642)" fill="white"/>
<path d="M227 260V260C231.117 265.294 231.117 272.706 227 278V278" stroke="black" stroke-width="5" stroke-linecap="round"/>
<path d="M258.5 286V286C254.321 286.964 249.932 286.318 246.208 284.19L245 283.5" stroke="black" stroke-width="5" stroke-linecap="round"/>
<path d="M274 260V260C270.367 265.45 270.367 272.55 274 278V278" stroke="black" stroke-width="5" stroke-linecap="round"/>
<path d="M230.5 267L235.367 267.885C243.098 269.291 250.962 269.824 258.812 269.475L269.5 269" stroke="black" stroke-width="5" stroke-linecap="round"/>
</svg>
