<svg width="500" height="500" viewBox="0 0 500 500" fill="none" xmlns="http://www.w3.org/2000/svg">
<path d="M229.378 30.0897C239.308 15.6004 260.692 15.6004 270.622 30.0897L333.142 121.314C336.393 126.058 341.179 129.535 346.695 131.161L452.775 162.431C469.623 167.398 476.231 187.735 465.52 201.656L398.08 289.307C394.573 293.864 392.745 299.491 392.903 305.239L395.943 415.79C396.426 433.349 379.127 445.918 362.577 440.032L258.376 402.979C252.958 401.052 247.042 401.052 241.624 402.979L137.423 440.032C120.873 445.918 103.574 433.349 104.057 415.79L107.097 305.239C107.255 299.491 105.427 293.864 101.92 289.307L34.4804 201.656C23.7688 187.735 30.3766 167.398 47.2253 162.431L153.305 131.161C158.821 129.535 163.607 126.058 166.858 121.314L229.378 30.0897Z" fill="#F4EC65"/>
<ellipse cx="206.907" cy="234.772" rx="19.8853" ry="18.1283" transform="rotate(-41.8739 206.907 234.772)" fill="black"/>
<ellipse cx="206.547" cy="227.168" rx="7.5" ry="5" transform="rotate(-17.4125 206.547 227.168)" fill="white"/>
<ellipse cx="19.8853" cy="18.1283" rx="19.8853" ry="18.1283" transform="matrix(-0.744616 -0.667494 -0.667494 0.744616 318.815 236.546)" fill="black"/>
<ellipse cx="7.5" cy="5" rx="7.5" ry="5" transform="matrix(-0.954175 -0.299248 -0.299248 0.954175 300.921 226.642)" fill="white"/>
<path d="M198 281.5C198.045 276 204.683 262.5 220 262.5C230 262.5 235.746 269.848 246.5 270C257.819 270.16 268.585 260.997 279.5 264C290.823 267.115 295.189 277 295 284.5C294.787 293 286.5 299.435 281 301C269.655 304.228 261.096 295.507 248 294.5C235 293.5 227 300 217.5 301C206.79 302.127 197.912 292.269 198 281.5Z" fill="white" fill-opacity="0.53" stroke="black" stroke-width="5"/>
<path d="M199.016 280.5C199.016 280.5 227.841 282.915 246 283.5C264.159 284.086 292.016 283.5 292.016 283.5" stroke="black" stroke-width="3"/>
<path d="M218.5 265C218.5 265 217.5 276.861 217.5 283.5C217.5 293 218.5 299 218.5 299" stroke="black" stroke-width="3"/>
<path d="M277.429 265.018C277.429 265.018 277.43 276.921 276.872 283.537C276.075 293.003 275 300.5 275 300.5" stroke="black" stroke-width="3"/>
<path d="M237.5 270C237.5 270 236.429 277.909 236.5 283C236.56 287.313 236.5 294.5 236.5 294.5" stroke="black" stroke-width="3"/>
<line x1="259.496" y1="267.107" x2="257.496" y2="295.107" stroke="black" stroke-width="3"/>
<path d="M238.5 248C238.5 248 244.216 247.263 248 247.5C256 248 257.5 249.5 257.5 249.5" stroke="black" stroke-width="3" stroke-linecap="round"/>
<path d="M242.038 257.501C242.038 257.501 245.677 257.352 248 257.502C250.323 257.651 255.038 258.501 255.038 258.501" stroke="black" stroke-width="3" stroke-linecap="round"/>
<path d="M233.494 223.924C233.494 223.924 236 226.5 236 231C236 235.5 235 237.5 235 237.5" stroke="black" stroke-width="3" stroke-linecap="round"/>
<path d="M262.596 225.234C262.596 225.234 260.09 227.81 260.09 232.31C260.09 236.81 261.09 238.81 261.09 238.81" stroke="black" stroke-width="3" stroke-linecap="round"/>
<path d="M318.104 254.651C318.104 254.651 321.222 252.56 322.353 247.923C323.484 243.286 323 241 323 241" stroke="black" stroke-width="3" stroke-linecap="round"/>
<path d="M325.304 258.31C325.304 258.31 327.769 256.831 329.48 253.306C331.192 249.782 331.36 248 331.36 248" stroke="black" stroke-width="3" stroke-linecap="round"/>
<path d="M233.073 319.493C233.073 319.493 233.348 317.5 232.612 315.476C231.746 313.092 231 312.14 231 312.14" stroke="black" stroke-width="3" stroke-linecap="round"/>
<path d="M245.04 319.47C245.04 319.47 245.861 317.116 245.719 314.433C245.551 311.273 245.1 309.896 245.1 309.896" stroke="black" stroke-width="3" stroke-linecap="round"/>
<path d="M258.617 320.545C258.617 320.545 258.418 318.543 259.231 316.549C260.188 314.2 260.97 313.277 260.97 313.277" stroke="black" stroke-width="3" stroke-linecap="round"/>
<path d="M179.372 250.651C179.372 250.651 176.254 248.56 175.123 243.923C173.992 239.286 174.476 237 174.476 237" stroke="black" stroke-width="3" stroke-linecap="round"/>
<path d="M172.172 254.31C172.172 254.31 169.707 252.831 167.996 249.306C166.284 245.782 166.116 244 166.116 244" stroke="black" stroke-width="3" stroke-linecap="round"/>
<path d="M250.426 219.236C250.426 219.236 247.73 222.951 247.468 229.187C247.205 235.423 248.106 238.136 248.106 238.136" stroke="black" stroke-width="3" stroke-linecap="round"/>
</svg>
