<svg width="500" height="500" viewBox="0 0 500 500" fill="none" xmlns="http://www.w3.org/2000/svg">
<path d="M229.378 30.0897C239.308 15.6004 260.692 15.6004 270.622 30.0897L333.142 121.314C336.393 126.058 341.179 129.535 346.695 131.161L452.775 162.431C469.623 167.398 476.231 187.735 465.52 201.656L398.08 289.307C394.573 293.864 392.745 299.491 392.903 305.239L395.943 415.79C396.426 433.349 379.127 445.918 362.577 440.032L258.376 402.979C252.958 401.052 247.042 401.052 241.624 402.979L137.423 440.032C120.873 445.918 103.574 433.349 104.057 415.79L107.097 305.239C107.255 299.491 105.427 293.864 101.92 289.307L34.4804 201.656C23.7688 187.735 30.3766 167.398 47.2253 162.431L153.305 131.161C158.821 129.535 163.607 126.058 166.858 121.314L229.378 30.0897Z" fill="#656565"/>
<path d="M270 291C270.457 278.431 266.704 255.171 252 256.5C237.296 257.829 238.685 281.445 240.5 293.5C242.316 305.555 241.81 319.61 254 319.5C266.19 319.39 269.544 303.569 270 291Z" fill="black" stroke="black" stroke-width="5"/>
<ellipse cx="206.907" cy="234.772" rx="19.8853" ry="18.1283" transform="rotate(-41.8739 206.907 234.772)" fill="black"/>
<ellipse cx="206.547" cy="227.168" rx="7.5" ry="5" transform="rotate(-17.4125 206.547 227.168)" fill="white"/>
<ellipse cx="19.8853" cy="18.1283" rx="19.8853" ry="18.1283" transform="matrix(-0.744616 -0.667494 -0.667494 0.744616 318.815 236.546)" fill="black"/>
<ellipse cx="7.5" cy="5" rx="7.5" ry="5" transform="matrix(-0.954175 -0.299248 -0.299248 0.954175 300.921 226.642)" fill="white"/>
<path d="M271 332.5C271 332.5 265 341 254.5 341C244 341 240.5 332.5 240.5 332.5" stroke="black" stroke-width="5" stroke-linecap="round"/>
<path d="M262 273.471C260.053 276.423 253.458 275.752 250 273.471C246.542 271.191 245.674 265.978 247.62 263.027C249.567 260.076 254.542 259.719 258 262C261.458 264.281 263.947 270.52 262 273.471Z" fill="white"/>
<path d="M247.299 309.406C247.299 305.871 249.957 304.59 254.299 303.406C257.964 302.406 261.659 302.559 262.799 305.906C263.938 309.252 260.72 313.071 256.799 314.406C252.878 315.741 247.299 312.906 247.299 309.406Z" fill="white"/>
</svg>
