<svg width="331" height="331" viewBox="0 0 331 331" fill="none" xmlns="http://www.w3.org/2000/svg">
<path d="M152.302 19.2574C158.657 9.98425 172.343 9.98423 178.698 19.2574L220.651 80.4714C222.731 83.5071 225.794 85.7328 229.325 86.7734L300.507 107.757C311.29 110.935 315.519 123.951 308.663 132.861L263.409 191.676C261.165 194.593 259.995 198.194 260.096 201.873L262.137 276.055C262.446 287.293 251.374 295.337 240.782 291.57L170.861 266.706C167.393 265.473 163.607 265.473 160.139 266.706L90.2181 291.57C79.626 295.337 68.5543 287.293 68.8634 276.055L70.9037 201.873C71.0049 198.194 69.8347 194.593 67.5905 191.676L22.3366 132.861C15.4812 123.951 19.7102 110.935 30.4934 107.757L101.675 86.7734C105.206 85.7328 108.269 83.5071 110.349 80.4714L152.302 19.2574Z" fill="#F4EC65"/>
<ellipse cx="122.907" cy="151.772" rx="19.8853" ry="18.1283" transform="rotate(-41.8739 122.907 151.772)" fill="black"/>
<ellipse cx="122.547" cy="144.168" rx="7.5" ry="5" transform="rotate(-17.4125 122.547 144.168)" fill="white"/>
<ellipse cx="19.8853" cy="18.1283" rx="19.8853" ry="18.1283" transform="matrix(-0.744616 -0.667494 -0.667494 0.744616 234.815 153.546)" fill="black"/>
<ellipse cx="7.5" cy="5" rx="7.5" ry="5" transform="matrix(-0.954175 -0.299248 -0.299248 0.954175 216.921 143.642)" fill="white"/>
<path d="M143 177V177C147.117 182.294 147.117 189.706 143 195V195" stroke="black" stroke-width="5" stroke-linecap="round"/>
<path d="M174.5 203V203C170.321 203.964 165.932 203.318 162.208 201.19L161 200.5" stroke="black" stroke-width="5" stroke-linecap="round"/>
<path d="M190 177V177C186.367 182.45 186.367 189.55 190 195V195" stroke="black" stroke-width="5" stroke-linecap="round"/>
<path d="M146.5 184L151.367 184.885C159.098 186.291 166.962 186.824 174.812 186.475L185.5 186" stroke="black" stroke-width="5" stroke-linecap="round"/>
</svg>
