<svg width="331" height="331" viewBox="0 0 331 331" fill="none" xmlns="http://www.w3.org/2000/svg">
<path d="M152.302 19.2574C158.657 9.98425 172.343 9.98423 178.698 19.2574L220.651 80.4714C222.731 83.5071 225.794 85.7328 229.325 86.7734L300.507 107.757C311.29 110.935 315.519 123.951 308.663 132.861L263.409 191.676C261.165 194.593 259.995 198.194 260.096 201.873L262.137 276.055C262.446 287.293 251.374 295.337 240.782 291.57L170.861 266.706C167.393 265.473 163.607 265.473 160.139 266.706L90.2181 291.57C79.626 295.337 68.5543 287.293 68.8634 276.055L70.9037 201.873C71.0049 198.194 69.8347 194.593 67.5905 191.676L22.3366 132.861C15.4812 123.951 19.7102 110.935 30.4934 107.757L101.675 86.7734C105.206 85.7328 108.269 83.5071 110.349 80.4714L152.302 19.2574Z" fill="#656565"/>
<path d="M180.963 196.016C181.425 187.644 177.628 172.151 162.749 173.036C147.87 173.921 149.275 189.652 151.112 197.682C152.949 205.711 152.437 215.073 164.773 215C177.108 214.926 180.501 204.388 180.963 196.016Z" fill="black" stroke="black" stroke-width="5"/>
<ellipse cx="122.907" cy="151.772" rx="19.8853" ry="18.1283" transform="rotate(-41.8739 122.907 151.772)" fill="black"/>
<ellipse cx="122.547" cy="144.168" rx="7.5" ry="5" transform="rotate(-17.4125 122.547 144.168)" fill="white"/>
<ellipse cx="19.8853" cy="18.1283" rx="19.8853" ry="18.1283" transform="matrix(-0.744616 -0.667494 -0.667494 0.744616 234.815 153.546)" fill="black"/>
<ellipse cx="7.5" cy="5" rx="7.5" ry="5" transform="matrix(-0.954175 -0.299248 -0.299248 0.954175 216.921 143.642)" fill="white"/>
<path d="M182 223.662C182 223.662 176 229.274 165.5 229.275C155 229.275 151.5 223.662 151.5 223.662" stroke="black" stroke-width="5" stroke-linecap="round"/>
<path d="M173 184.687C171.053 186.636 164.458 186.193 161 184.687C157.542 183.181 156.674 179.739 158.62 177.791C160.567 175.842 165.542 175.607 169 177.113C172.458 178.619 174.947 182.739 173 184.687Z" fill="white"/>
<path d="M158.299 208.414C158.299 206.08 160.957 205.234 165.299 204.452C168.964 203.792 172.659 203.893 173.799 206.103C174.938 208.312 171.72 210.833 167.799 211.715C163.878 212.597 158.299 210.725 158.299 208.414Z" fill="white"/>
</svg>
