<svg width="331" height="331" viewBox="0 0 331 331" fill="none" xmlns="http://www.w3.org/2000/svg">
<path d="M152.302 19.2574C158.657 9.98425 172.343 9.98423 178.698 19.2574L220.651 80.4714C222.731 83.5071 225.794 85.7328 229.325 86.7734L300.507 107.757C311.29 110.935 315.519 123.951 308.663 132.861L263.409 191.676C261.165 194.593 259.995 198.194 260.096 201.873L262.137 276.055C262.446 287.293 251.374 295.337 240.782 291.57L170.861 266.706C167.393 265.473 163.607 265.473 160.139 266.706L90.2181 291.57C79.626 295.337 68.5543 287.293 68.8634 276.055L70.9037 201.873C71.0049 198.194 69.8347 194.593 67.5905 191.676L22.3366 132.861C15.4812 123.951 19.7102 110.935 30.4934 107.757L101.675 86.7734C105.206 85.7328 108.269 83.5071 110.349 80.4714L152.302 19.2574Z" fill="#F4EC65"/>
<ellipse cx="122.907" cy="151.772" rx="19.8853" ry="18.1283" transform="rotate(-41.8739 122.907 151.772)" fill="black"/>
<ellipse cx="122.547" cy="144.168" rx="7.5" ry="5" transform="rotate(-17.4125 122.547 144.168)" fill="white"/>
<ellipse cx="19.8853" cy="18.1283" rx="19.8853" ry="18.1283" transform="matrix(-0.744616 -0.667494 -0.667494 0.744616 234.815 153.546)" fill="black"/>
<ellipse cx="7.5" cy="5" rx="7.5" ry="5" transform="matrix(-0.954175 -0.299248 -0.299248 0.954175 216.921 143.642)" fill="white"/>
<path d="M114 198.5C114.045 193 120.683 179.5 136 179.5C146 179.5 151.746 186.848 162.5 187C173.819 187.16 184.585 177.997 195.5 181C206.823 184.115 211.189 194 211 201.5C210.787 210 202.5 216.435 197 218C185.655 221.228 177.096 212.507 164 211.5C151 210.5 143 217 133.5 218C122.79 219.127 113.912 209.269 114 198.5Z" fill="white" fill-opacity="0.53" stroke="black" stroke-width="5"/>
<path d="M115.016 197.5C115.016 197.5 143.841 199.915 162 200.5C180.159 201.086 208.016 200.5 208.016 200.5" stroke="black" stroke-width="3"/>
<path d="M134.5 182C134.5 182 133.5 193.861 133.5 200.5C133.5 210 134.5 216 134.5 216" stroke="black" stroke-width="3"/>
<path d="M193.429 182.018C193.429 182.018 193.43 193.921 192.872 200.537C192.075 210.003 191 217.5 191 217.5" stroke="black" stroke-width="3"/>
<path d="M153.5 187C153.5 187 152.429 194.909 152.5 200C152.56 204.313 152.5 211.5 152.5 211.5" stroke="black" stroke-width="3"/>
<line x1="175.496" y1="184.107" x2="173.496" y2="212.107" stroke="black" stroke-width="3"/>
<path d="M154.5 165C154.5 165 160.216 164.263 164 164.5C172 165 173.5 166.5 173.5 166.5" stroke="black" stroke-width="3" stroke-linecap="round"/>
<path d="M158.038 174.501C158.038 174.501 161.677 174.352 164 174.502C166.323 174.651 171.038 175.501 171.038 175.501" stroke="black" stroke-width="3" stroke-linecap="round"/>
<path d="M149.494 140.924C149.494 140.924 152 143.5 152 148C152 152.5 151 154.5 151 154.5" stroke="black" stroke-width="3" stroke-linecap="round"/>
<path d="M178.596 142.234C178.596 142.234 176.09 144.81 176.09 149.31C176.09 153.81 177.09 155.81 177.09 155.81" stroke="black" stroke-width="3" stroke-linecap="round"/>
<path d="M234.104 171.651C234.104 171.651 237.222 169.56 238.353 164.923C239.484 160.286 239 158 239 158" stroke="black" stroke-width="3" stroke-linecap="round"/>
<path d="M241.304 175.31C241.304 175.31 243.769 173.831 245.48 170.306C247.192 166.782 247.36 165 247.36 165" stroke="black" stroke-width="3" stroke-linecap="round"/>
<path d="M149.073 236.493C149.073 236.493 149.348 234.5 148.612 232.476C147.746 230.092 147 229.14 147 229.14" stroke="black" stroke-width="3" stroke-linecap="round"/>
<path d="M161.04 236.47C161.04 236.47 161.861 234.116 161.719 231.433C161.551 228.273 161.1 226.896 161.1 226.896" stroke="black" stroke-width="3" stroke-linecap="round"/>
<path d="M174.617 237.545C174.617 237.545 174.418 235.543 175.231 233.549C176.188 231.2 176.97 230.277 176.97 230.277" stroke="black" stroke-width="3" stroke-linecap="round"/>
<path d="M95.3717 167.651C95.3717 167.651 92.2536 165.56 91.1228 160.923C89.9919 156.286 90.4758 154 90.4758 154" stroke="black" stroke-width="3" stroke-linecap="round"/>
<path d="M88.1716 171.31C88.1716 171.31 85.7073 169.831 83.9958 166.306C82.2842 162.782 82.1162 161 82.1162 161" stroke="black" stroke-width="3" stroke-linecap="round"/>
<path d="M166.426 136.236C166.426 136.236 163.73 139.951 163.468 146.187C163.205 152.423 164.106 155.136 164.106 155.136" stroke="black" stroke-width="3" stroke-linecap="round"/>
</svg>
