<svg width="1280" height="179" viewBox="0 0 1280 179" fill="none" xmlns="http://www.w3.org/2000/svg">
<path d="M1144.5 3C1152.19 3 1158.48 8.98412 1158.97 16.5488C1160.25 16.1916 1161.6 16 1163 16C1171.28 16 1178 22.7157 1178 31C1178 32.1738 1177.86 33.3159 1177.61 34.4121C1179.2 33.5144 1181.04 33 1183 33C1188.86 33 1193.65 37.5876 1193.98 43.3691C1195.63 41.3155 1198.16 40 1201 40C1203.55 40 1205.85 41.0587 1207.48 42.7588C1209.24 39.9034 1212.4 38 1216 38C1218.2 38 1220.24 38.7137 1221.89 39.9209C1225.25 34.5629 1231.21 31 1238 31C1247.88 31 1256 38.5408 1256.91 48.1807C1257.59 48.0618 1258.29 48 1259 48C1265.63 48 1271 53.3726 1271 60C1271 61.7932 1270.6 63.4926 1269.9 65.0205C1270.1 65.008 1270.3 65 1270.5 65C1275.75 65 1280 68.7533 1280 74V179H0V75L0.0380859 74.999C0.549185 68.287 6.1571 63 13 63C14.8355 63 16.5818 63.3811 18.165 64.0674C18.0575 63.5618 18 63.0376 18 62.5C18 60.3554 18.9007 58.4216 20.3438 57.0547C14.8816 54.9757 11 49.6918 11 43.5C11 35.4919 17.4919 29 25.5 29C27.1452 29 28.7262 29.2745 30.2002 29.7793C30.0702 29.207 30 28.6117 30 28C30 23.5817 33.5817 20 38 20C39.092 20 40.1327 20.2191 41.0811 20.6152C43.4513 14.4086 49.4605 10 56.5 10C59.5889 10 62.4793 10.8491 64.9512 12.3262C67.0347 6.87314 72.3147 3 78.5 3C86.1885 3 92.4779 8.98412 92.9678 16.5488C94.2508 16.1916 95.603 16 97 16C105.284 16 112 22.7157 112 31C112 32.1738 111.864 33.3159 111.609 34.4121C113.203 33.5144 115.041 33 117 33C122.863 33 127.654 37.5876 127.98 43.3691C129.63 41.3155 132.161 40 135 40C137.547 40 139.845 41.0587 141.482 42.7588C143.243 39.9034 146.399 38 150 38C152.203 38 154.239 38.7137 155.892 39.9209C159.251 34.5629 165.209 31 172 31C181.88 31 189.997 38.5408 190.913 48.1807C191.591 48.0618 192.288 48 193 48C199.627 48 205 53.3726 205 60C205 60.0362 204.998 60.0723 204.998 60.1084C205.489 60.0381 205.99 60 206.5 60C207.473 60 208.415 60.135 209.31 60.3828C209.107 59.4539 209 58.4895 209 57.5C209 50.5509 214.251 44.8288 221.001 44.083C221.001 44.0554 221 44.0277 221 44C221 34.0589 229.059 26 239 26C242.675 26 246.092 27.1018 248.94 28.9922C250.415 26.0332 253.47 24 257 24C258.314 24 259.561 24.2839 260.687 24.79C262.979 16.2708 270.757 10 280 10C284.791 10 289.188 11.6858 292.632 14.4951C296.657 9.3254 302.94 6 310 6C318.552 6 325.964 10.8804 329.604 18.0078C331.95 16.7275 334.64 16 337.5 16C338.361 16 339.207 16.0662 340.032 16.1934C340.445 10.495 345.196 6 351 6C355.321 6 359.059 8.49294 360.857 12.1182C361.394 12.0414 361.942 12 362.5 12C368.689 12 373.734 16.8896 373.987 23.0166C375.354 22.3649 376.885 22 378.5 22C382.59 22 386.131 24.3401 387.864 27.7529C390.212 25.433 393.438 24 397 24C404.18 24 410 29.8203 410 37C410 37.1005 409.998 37.2008 409.996 37.3008C414.59 38.4211 418 42.5613 418 47.5C418 48.6119 417.825 49.6827 417.505 50.6885C417.808 50.5932 418.115 50.5048 418.427 50.4287C420.299 41.6136 428.127 35 437.5 35C439.899 35 442.196 35.4343 444.318 36.2266C447.572 32.9961 452.053 31 457 31C465.246 31 472.197 36.5454 474.327 44.1104C476.077 43.3948 477.992 43 480 43C487.67 43 493.994 48.7565 494.891 56.1846C496.947 53.0622 500.482 51 504.5 51C506.539 51 508.452 51.5325 510.112 52.4629C510.856 47.3926 515.223 43.5 520.5 43.5C523.463 43.5 526.138 44.7297 528.047 46.7041C529.865 42.7479 533.861 40 538.5 40C538.71 40 538.919 40.0055 539.126 40.0166C539.043 39.3561 539 38.683 539 38C539 29.1634 546.163 22 555 22C559.438 22 563.453 23.8075 566.352 26.7256C567.315 23.6954 570.151 21.5 573.5 21.5C575.045 21.5 576.481 21.9677 577.674 22.7686C581.132 18.058 586.709 15 593 15C600.733 15 607.386 19.6206 610.352 26.251C611.54 25.4606 612.966 25 614.5 25C616.759 25 618.784 26.0005 620.159 27.5811C621.704 24.8467 624.636 23 628 23C630.147 23 632.117 23.7532 633.664 25.0078C635.056 21.4894 638.487 19 642.5 19C645.463 19 648.109 20.3571 649.852 22.4834C651.52 21.5404 653.447 21 655.5 21C661.851 21 667 26.1487 667 32.5C667 32.7418 666.989 32.9816 666.975 33.2197C670.995 34.12 674 37.708 674 42C674 42.6258 673.935 43.2364 673.813 43.8262C675.104 43.2945 676.518 43 678 43C681.821 43 685.187 44.9494 687.158 47.9072C688.976 46.7028 691.156 46 693.5 46C699.225 46 703.969 50.1832 704.851 55.6592C707.726 49.9311 713.654 46 720.5 46C724.823 46 728.779 47.5685 731.832 50.166C733.336 48.8192 735.322 48 737.5 48C740.997 48 744 50.1126 745.305 53.1309C746.887 52.4065 748.646 52 750.5 52C752.713 52 754.79 52.5773 756.593 53.5859C759.418 47.3432 765.702 43 773 43C776.675 43 780.092 44.1018 782.94 45.9922C784.415 43.0332 787.47 41 791 41C792.314 41 793.561 41.2839 794.687 41.79C796.979 33.2708 804.757 27 814 27C818.791 27 823.188 28.6858 826.632 31.4951C830.657 26.3254 836.94 23 844 23C852.552 23 859.964 27.8804 863.604 35.0078C865.95 33.7275 868.64 33 871.5 33C880.613 33 888 40.3873 888 49.5C888 51.1364 887.76 52.7166 887.316 54.209C888.023 54.073 888.753 54 889.5 54C890.646 54 891.753 54.1692 892.798 54.4814C894.376 50.6767 898.125 48 902.5 48C904.74 48 906.814 48.7035 908.519 49.8984C910.704 45.7942 915.026 43 920 43C926.087 43 931.196 47.1836 932.61 52.832C933.798 52.2984 935.114 52 936.5 52C938.899 52 941.09 52.8911 942.762 54.3584C943.683 53.3204 944.907 52.5575 946.296 52.21C946.103 51.3373 946 50.4307 946 49.5C946 42.5964 951.596 37 958.5 37C960.354 37 962.113 37.4065 963.695 38.1309C965 35.1126 968.003 33 971.5 33C973.678 33 975.664 33.8192 977.168 35.166C980.221 32.5685 984.177 31 988.5 31C992.046 31 995.346 32.0552 998.103 33.8682C1000.15 31.2073 1003.06 29.2505 1006.43 28.4287C1008.3 19.6136 1016.13 13 1025.5 13C1027.9 13 1030.2 13.4343 1032.32 14.2266C1035.57 10.9961 1040.05 9 1045 9C1053.25 9 1060.2 14.5454 1062.33 22.1104C1064.08 21.3948 1065.99 21 1068 21C1074.95 21 1080.79 25.7235 1082.5 32.1338C1084.97 30.1716 1088.1 29 1091.5 29C1093.15 29 1094.73 29.2745 1096.2 29.7793C1096.07 29.207 1096 28.6117 1096 28C1096 23.5817 1099.58 20 1104 20C1105.09 20 1106.13 20.2191 1107.08 20.6152C1109.45 14.4086 1115.46 10 1122.5 10C1125.59 10 1128.48 10.8491 1130.95 12.3262C1133.03 6.87314 1138.31 3 1144.5 3Z" fill="url(#paint0_linear_84_169)"/>
<path d="M1144.5 0C1152.64 0 1159.47 5.5497 1161.43 13.0703C1161.95 13.0255 1162.47 13 1163 13C1172.65 13 1180.53 20.6017 1180.98 30.1465C1181.64 30.0505 1182.31 30 1183 30C1188.67 30 1193.54 33.3668 1195.75 38.209C1197.33 37.4349 1199.12 37 1201 37C1203.19 37 1205.24 37.5907 1207.01 38.6143C1209.34 36.3782 1212.51 35 1216 35C1217.78 35 1219.48 35.3597 1221.02 36.0088C1225.06 31.1226 1231.16 28 1238 28C1248.43 28 1257.16 35.2608 1259.43 45.0059C1267.51 45.2323 1274 51.8588 1274 60C1274 60.8211 1273.93 61.6267 1273.8 62.4121C1276.22 63.0241 1278.38 64.2994 1280 66.084V74C1280 68.7533 1275.75 65 1270.5 65C1270.3 65 1270.1 65.008 1269.9 65.0205C1270.6 63.4926 1271 61.7932 1271 60C1271 53.3726 1265.63 48 1259 48C1258.29 48 1257.59 48.0618 1256.91 48.1807C1256 38.5408 1247.88 31 1238 31C1231.21 31 1225.25 34.5629 1221.89 39.9209C1220.24 38.7137 1218.2 38 1216 38C1212.4 38 1209.24 39.9034 1207.48 42.7588C1205.85 41.0587 1203.55 40 1201 40C1198.16 40 1195.63 41.3155 1193.98 43.3691C1193.65 37.5876 1188.86 33 1183 33C1181.04 33 1179.2 33.5144 1177.61 34.4121C1177.86 33.3159 1178 32.1738 1178 31C1178 22.7157 1171.28 16 1163 16C1161.6 16 1160.25 16.1916 1158.97 16.5488C1158.48 8.98412 1152.19 3 1144.5 3C1138.31 3 1133.03 6.87314 1130.95 12.3262C1128.48 10.8491 1125.59 10 1122.5 10C1115.46 10 1109.45 14.4086 1107.08 20.6152C1106.13 20.2191 1105.09 20 1104 20C1099.58 20 1096 23.5817 1096 28C1096 28.6117 1096.07 29.207 1096.2 29.7793C1094.73 29.2745 1093.15 29 1091.5 29C1088.1 29 1084.97 30.1716 1082.5 32.1338C1080.79 25.7235 1074.95 21 1068 21C1065.99 21 1064.08 21.3948 1062.33 22.1104C1060.2 14.5454 1053.25 9 1045 9C1040.05 9 1035.57 10.9961 1032.32 14.2266C1030.2 13.4343 1027.9 13 1025.5 13C1016.13 13 1008.3 19.6136 1006.43 28.4287C1003.06 29.2505 1000.15 31.2073 998.103 33.8682C995.346 32.0552 992.046 31 988.5 31C984.177 31 980.221 32.5685 977.168 35.166C975.664 33.8192 973.678 33 971.5 33C968.003 33 965 35.1126 963.695 38.1309C962.113 37.4065 960.354 37 958.5 37C951.596 37 946 42.5964 946 49.5C946 50.4307 946.103 51.3373 946.296 52.21C944.907 52.5575 943.683 53.3204 942.762 54.3584C941.09 52.8911 938.899 52 936.5 52C935.114 52 933.798 52.2984 932.61 52.832C931.196 47.1836 926.087 43 920 43C915.026 43 910.704 45.7942 908.519 49.8984C906.814 48.7035 904.74 48 902.5 48C898.125 48 894.376 50.6767 892.798 54.4814C891.753 54.1692 890.646 54 889.5 54C888.753 54 888.023 54.073 887.316 54.209C887.76 52.7166 888 51.1364 888 49.5C888 40.3873 880.613 33 871.5 33C868.64 33 865.95 33.7275 863.604 35.0078C859.964 27.8804 852.552 23 844 23C836.94 23 830.657 26.3254 826.632 31.4951C823.188 28.6858 818.791 27 814 27C804.757 27 796.979 33.2708 794.687 41.79C793.561 41.2839 792.314 41 791 41C787.47 41 784.415 43.0332 782.94 45.9922C780.092 44.1018 776.675 43 773 43C765.702 43 759.418 47.3432 756.593 53.5859C754.79 52.5773 752.713 52 750.5 52C748.646 52 746.887 52.4065 745.305 53.1309C744 50.1126 740.997 48 737.5 48C735.322 48 733.336 48.8192 731.832 50.166C728.779 47.5685 724.823 46 720.5 46C713.654 46 707.726 49.9311 704.851 55.6592C703.969 50.1832 699.225 46 693.5 46C691.156 46 688.976 46.7028 687.158 47.9072C685.187 44.9494 681.821 43 678 43C676.518 43 675.104 43.2945 673.813 43.8262C673.935 43.2364 674 42.6258 674 42C674 37.708 670.995 34.12 666.975 33.2197C666.989 32.9816 667 32.7418 667 32.5C667 26.1487 661.851 21 655.5 21C653.447 21 651.52 21.5404 649.852 22.4834C648.109 20.3571 645.463 19 642.5 19C638.487 19 635.056 21.4894 633.664 25.0078C632.117 23.7532 630.147 23 628 23C624.636 23 621.704 24.8467 620.159 27.5811C618.784 26.0005 616.759 25 614.5 25C612.966 25 611.54 25.4606 610.352 26.251C607.386 19.6206 600.733 15 593 15C586.709 15 581.132 18.058 577.674 22.7686C576.481 21.9677 575.045 21.5 573.5 21.5C570.151 21.5 567.315 23.6954 566.352 26.7256C563.453 23.8075 559.438 22 555 22C546.163 22 539 29.1634 539 38C539 38.683 539.043 39.3561 539.126 40.0166C538.919 40.0055 538.71 40 538.5 40C533.861 40 529.865 42.7479 528.047 46.7041C526.138 44.7297 523.463 43.5 520.5 43.5C515.223 43.5 510.856 47.3926 510.112 52.4629C508.452 51.5325 506.539 51 504.5 51C500.482 51 496.947 53.0622 494.891 56.1846C493.994 48.7565 487.67 43 480 43C477.992 43 476.077 43.3948 474.327 44.1104C472.197 36.5454 465.246 31 457 31C452.053 31 447.572 32.9961 444.318 36.2266C442.196 35.4343 439.899 35 437.5 35C428.127 35 420.299 41.6136 418.427 50.4287C418.115 50.5048 417.808 50.5932 417.505 50.6885C417.825 49.6827 418 48.6119 418 47.5C418 42.5613 414.59 38.4211 409.996 37.3008C409.998 37.2008 410 37.1005 410 37C410 29.8203 404.18 24 397 24C393.438 24 390.212 25.433 387.864 27.7529C386.131 24.3401 382.59 22 378.5 22C376.885 22 375.354 22.3649 373.987 23.0166C373.734 16.8896 368.689 12 362.5 12C361.942 12 361.394 12.0414 360.857 12.1182C359.059 8.49294 355.321 6 351 6C345.196 6 340.445 10.495 340.032 16.1934C339.207 16.0662 338.361 16 337.5 16C334.64 16 331.95 16.7275 329.604 18.0078C325.964 10.8804 318.552 6 310 6C302.94 6 296.657 9.3254 292.632 14.4951C289.188 11.6858 284.791 10 280 10C270.757 10 262.979 16.2708 260.687 24.79C259.561 24.2839 258.314 24 257 24C253.47 24 250.415 26.0332 248.94 28.9922C246.092 27.1018 242.675 26 239 26C229.059 26 221 34.0589 221 44C221 44.0277 221.001 44.0554 221.001 44.083C214.251 44.8288 209 50.5509 209 57.5C209 58.4895 209.107 59.4539 209.31 60.3828C208.415 60.135 207.473 60 206.5 60C205.99 60 205.489 60.0381 204.998 60.1084C204.998 60.0723 205 60.0362 205 60C205 53.3726 199.627 48 193 48C192.288 48 191.591 48.0618 190.913 48.1807C189.997 38.5408 181.88 31 172 31C165.209 31 159.251 34.5629 155.892 39.9209C154.239 38.7137 152.203 38 150 38C146.399 38 143.243 39.9034 141.482 42.7588C139.845 41.0587 137.547 40 135 40C132.161 40 129.63 41.3155 127.98 43.3691C127.654 37.5876 122.863 33 117 33C115.041 33 113.203 33.5144 111.609 34.4121C111.864 33.3159 112 32.1738 112 31C112 22.7157 105.284 16 97 16C95.603 16 94.2508 16.1916 92.9678 16.5488C92.4779 8.98412 86.1885 3 78.5 3C72.3147 3 67.0347 6.87314 64.9512 12.3262C62.4793 10.8491 59.5889 10 56.5 10C49.4605 10 43.4513 14.4086 41.0811 20.6152C40.1327 20.2191 39.092 20 38 20C33.5817 20 30 23.5817 30 28C30 28.6117 30.0702 29.207 30.2002 29.7793C28.7262 29.2745 27.1452 29 25.5 29C17.4919 29 11 35.4919 11 43.5C11 49.6918 14.8816 54.9757 20.3438 57.0547C18.9007 58.4216 18 60.3554 18 62.5C18 63.0376 18.0575 63.5618 18.165 64.0674C16.5818 63.3811 14.8355 63 13 63C6.1571 63 0.549185 68.287 0.0380859 74.999L0 75V66.6729C2.90364 62.6317 7.64355 60 13 60C13.7682 60 14.5242 60.0559 15.2646 60.1611C15.4237 59.4635 15.6513 58.7923 15.9414 58.1553C11.1635 55.0335 8 49.6405 8 43.5C8 33.835 15.835 26 25.5 26C26.0629 26 26.6199 26.0278 27.1699 26.0801C28.0784 20.9205 32.58 17 38 17C38.48 17 38.9531 17.0337 39.418 17.0938C42.7362 11.0799 49.1378 7 56.5 7C58.9994 7 61.3927 7.47152 63.5928 8.33105C66.6717 3.33504 72.1934 0 78.5 0C86.6351 0 93.4696 5.5497 95.4316 13.0703C95.9489 13.0255 96.4719 13 97 13C106.655 13 114.533 20.6017 114.979 30.1465C115.639 30.0505 116.314 30 117 30C122.667 30 127.544 33.3668 129.746 38.209C131.332 37.4349 133.115 37 135 37C137.189 37 139.24 37.5907 141.006 38.6143C143.339 36.3782 146.508 35 150 35C151.78 35 153.478 35.3597 155.024 36.0088C159.056 31.1226 165.162 28 172 28C182.433 28 191.165 35.2608 193.428 45.0059C199.184 45.167 204.128 48.5714 206.5 53.4561C207.95 47.6988 212.426 43.1462 218.139 41.584C219.337 31.124 228.219 23 239 23C242.228 23 245.29 23.7307 248.026 25.0352C250.222 22.5627 253.426 21 257 21C257.603 21 258.195 21.0454 258.774 21.1318C262.245 12.8337 270.438 7 280 7C284.466 7 288.638 8.27614 292.167 10.4805C296.7 5.86739 303.015 3 310 3C318.697 3 326.35 7.44392 330.826 14.1729C332.91 13.4138 335.159 13 337.5 13C337.528 13 337.555 13.0009 337.583 13.001C339.304 7.21735 344.656 3 351 3C355.761 3 359.958 5.3787 362.484 9C362.49 8.99999 362.495 9 362.5 9C369.002 9 374.499 13.2784 376.339 19.1729C377.043 19.0593 377.765 19 378.5 19C382.472 19 386.037 20.7175 388.504 23.4414C390.965 21.896 393.879 21 397 21C405.201 21 411.959 27.1706 412.889 35.1221C415.677 36.3371 417.973 38.4662 419.402 41.1309C423.5 35.5917 430.079 32 437.5 32C439.609 32 441.653 32.2919 443.593 32.8369C447.228 29.8186 451.904 28 457 28C465.541 28 472.883 33.0969 476.166 40.4102C477.403 40.1415 478.686 40 480 40C487.264 40 493.519 44.3025 496.363 50.498C498.682 48.9226 501.482 48 504.5 48C505.771 48 507.005 48.1649 508.182 48.4736C510.293 43.7732 515.012 40.5 520.5 40.5C522.97 40.5 525.285 41.1669 527.275 42.3252C529.435 39.6853 532.508 37.8197 536.017 37.2139C536.429 27.085 544.77 19 555 19C558.89 19 562.508 20.1728 565.52 22.1787C567.444 19.9285 570.303 18.5 573.5 18.5C574.673 18.5 575.803 18.6943 576.858 19.0508C580.873 14.7178 586.62 12 593 12C600.889 12 607.8 16.1542 611.682 22.3838C612.58 22.1339 613.525 22 614.5 22C616.381 22 618.144 22.499 619.669 23.3643C621.825 21.2836 624.761 20 628 20C629.619 20 631.165 20.3226 632.575 20.9053C634.857 17.9261 638.45 16 642.5 16C645.541 16 648.328 17.0884 650.493 18.8906C652.055 18.3152 653.742 18 655.5 18C663.023 18 669.207 23.7287 669.929 31.0615C673.528 32.685 676.182 36.0273 676.84 40.0479C677.223 40.0163 677.61 40 678 40C681.877 40 685.381 41.5791 687.913 44.1191C689.634 43.3995 691.522 43 693.5 43C698.536 43 702.965 45.5678 705.563 49.4629C709.301 45.4877 714.608 43 720.5 43C724.714 43 728.635 44.2761 731.893 46.458C733.552 45.53 735.466 45 737.5 45C741.217 45 744.516 46.7647 746.616 49.4941C747.858 49.1725 749.16 49 750.5 49C752.161 49 753.763 49.2642 755.265 49.75C758.988 43.8926 765.537 40 773 40C776.228 40 779.29 40.7307 782.026 42.0352C784.222 39.5627 787.426 38 791 38C791.603 38 792.195 38.0454 792.774 38.1318C796.245 29.8337 804.438 24 814 24C818.466 24 822.638 25.2761 826.167 27.4805C830.7 22.8674 837.015 20 844 20C852.697 20 860.35 24.4439 864.826 31.1729C866.91 30.4138 869.159 30 871.5 30C882.27 30 891 38.7304 891 49.5C891 50.0292 890.976 50.5534 890.935 51.0723C891.026 51.0813 891.117 51.0908 891.208 51.1016C893.618 47.4301 897.772 45 902.5 45C904.278 45 905.977 45.3462 907.533 45.9727C910.463 42.3343 914.957 40 920 40C926.394 40 931.903 43.7493 934.466 49.165C935.128 49.0561 935.808 49 936.5 49C938.713 49 940.791 49.5797 942.594 50.5889C942.734 50.4986 942.876 50.4115 943.021 50.3281C943.007 50.0539 943 49.7778 943 49.5C943 40.9396 949.94 34 958.5 34C959.84 34 961.141 34.1727 962.383 34.4941C964.483 31.7644 967.782 30 971.5 30C973.534 30 975.448 30.5302 977.106 31.458C980.364 29.2758 984.285 28 988.5 28C991.718 28 994.766 28.7467 997.479 30.0713C999.301 28.3059 1001.5 26.9206 1003.94 26.0469C1006.72 16.7662 1015.31 10 1025.5 10C1027.61 10 1029.65 10.2919 1031.59 10.8369C1035.23 7.81862 1039.9 6 1045 6C1053.54 6 1060.88 11.0969 1064.17 18.4102C1065.4 18.1415 1066.69 18 1068 18C1074.95 18 1080.97 21.9395 1083.97 27.7021C1086.25 26.613 1088.81 26 1091.5 26C1092.06 26 1092.62 26.0278 1093.17 26.0801C1094.08 20.9205 1098.58 17 1104 17C1104.48 17 1104.95 17.0337 1105.42 17.0938C1108.74 11.0799 1115.14 7 1122.5 7C1125 7 1127.39 7.47152 1129.59 8.33105C1132.67 3.33504 1138.19 0 1144.5 0Z" fill="#5C504F"/>
<path d="M90.5 113C90.5 107.791 93.9624 103.396 98.71 101.98C99.9089 94.8951 106.074 89.5 113.5 89.5C116.423 89.5 119.153 90.3368 121.461 91.7842C123.438 90.3495 125.87 89.5 128.5 89.5C133.354 89.5 137.527 92.383 139.417 96.5205C139.761 97.274 139.429 98.1636 138.676 98.5078C137.922 98.8519 137.033 98.5201 136.688 97.7666C135.268 94.6563 132.135 92.5 128.5 92.5C126.207 92.5 124.118 93.3562 122.527 94.7686L121.616 95.5781L120.638 94.8525C118.643 93.374 116.176 92.5 113.5 92.5C107.267 92.5 102.142 97.2535 101.556 103.332L101.448 104.445L100.352 104.66C96.4459 105.427 93.5 108.871 93.5 113C93.5 114.425 93.8514 115.764 94.4697 116.942C94.8547 117.676 94.5723 118.583 93.8389 118.968C93.1054 119.353 92.1985 119.07 91.8135 118.337C90.9761 116.741 90.5 114.925 90.5 113Z" fill="#5C504F"/>
<path d="M236.5 156C236.5 152.962 234.038 150.5 231 150.5C230.45 150.5 229.921 150.581 229.422 150.73L227.434 151.324L227.493 149.25C227.497 149.106 227.5 149.07 227.5 149C227.5 144.306 223.695 140.5 219 140.5C218.998 140.5 218.992 140.5 218.97 140.501C218.954 140.501 218.915 140.502 218.878 140.503L217.559 140.521L217.372 139.215C216.507 133.157 211.297 128.5 205 128.5C200.287 128.5 196.181 131.108 194.05 134.966L193.511 135.943L192.419 135.706C191.8 135.572 191.159 135.5 190.5 135.5C186.45 135.5 183.02 138.177 181.893 141.862C181.65 142.654 180.811 143.1 180.019 142.857C179.227 142.615 178.781 141.775 179.024 140.983C180.527 136.073 185.094 132.5 190.5 132.5C191 132.5 191.493 132.532 191.977 132.592C194.736 128.327 199.537 125.5 205 125.5C212.377 125.5 218.545 130.653 220.112 137.555C225.453 138.067 229.722 142.231 230.402 147.521C230.599 147.508 230.799 147.5 231 147.5C235.695 147.5 239.5 151.306 239.5 156C239.5 157.747 238.971 159.374 238.066 160.726C237.604 161.414 236.673 161.598 235.985 161.137C235.296 160.676 235.112 159.744 235.573 159.056C236.159 158.182 236.5 157.133 236.5 156Z" fill="#5C504F"/>
<path d="M340.5 113.5C340.5 107.977 336.023 103.5 330.5 103.5C328.339 103.5 326.342 104.186 324.706 105.352L323.475 106.229L322.608 104.99C320.706 102.273 317.56 100.5 314 100.5C309.73 100.5 306.054 103.051 304.413 106.719L303.955 107.742L302.845 107.593C302.398 107.533 301.95 107.5 301.5 107.5C296.851 107.5 292.94 110.674 291.821 114.976C291.613 115.777 290.794 116.259 289.992 116.051C289.191 115.842 288.709 115.023 288.917 114.222C290.37 108.63 295.451 104.5 301.5 104.5C301.722 104.5 301.942 104.507 302.16 104.519C304.452 100.339 308.891 97.5 314 97.5C318.066 97.5 321.707 99.3006 324.18 102.14C326.051 101.096 328.207 100.5 330.5 100.5C337.68 100.5 343.5 106.32 343.5 113.5C343.5 114.559 343.371 115.589 343.131 116.575C345.745 116.923 347.979 118.459 349.281 120.619C350.701 119.904 352.304 119.5 354 119.5C359.005 119.5 363.184 123 364.239 127.683C364.422 128.491 363.915 129.293 363.107 129.476C362.298 129.658 361.496 129.151 361.314 128.343C360.559 124.997 357.57 122.5 354 122.5C352.323 122.5 350.778 123.049 349.53 123.977L347.871 125.21L347.214 123.25C346.482 121.068 344.422 119.5 342 119.5C341.751 119.5 341.503 119.518 341.256 119.551L338.624 119.906L339.679 117.469C340.206 116.252 340.5 114.912 340.5 113.5Z" fill="#5C504F"/>
<path d="M468.5 113.5C468.5 108.529 472.53 104.5 477.5 104.5C479.572 104.5 481.481 105.203 483.001 106.379C483.656 106.886 483.777 107.828 483.27 108.483C482.763 109.139 481.821 109.259 481.165 108.752C480.15 107.967 478.882 107.5 477.5 107.5C474.187 107.5 471.5 110.186 471.5 113.5C471.5 114.545 471.767 115.524 472.234 116.377L473.66 118.981L470.717 118.584C470.314 118.53 469.908 118.5 469.5 118.5C466.28 118.5 463.454 120.192 461.862 122.742L460.972 124.167L459.657 123.123C458.376 122.107 456.761 121.5 455 121.5C451.232 121.5 448.111 124.281 447.58 127.902C447.46 128.722 446.699 129.29 445.879 129.17C445.06 129.05 444.492 128.288 444.612 127.469C445.354 122.395 449.721 118.5 455 118.5C456.901 118.5 458.684 119.009 460.222 119.894C462.268 117.4 465.302 115.742 468.73 115.524C468.58 114.873 468.5 114.195 468.5 113.5Z" fill="#5C504F"/>
<path d="M1217.4 114.5C1217.4 109.529 1221.43 105.5 1226.4 105.5C1228.48 105.5 1230.39 106.203 1231.91 107.379C1232.56 107.886 1232.68 108.828 1232.17 109.483C1231.67 110.139 1230.72 110.259 1230.07 109.752C1229.05 108.967 1227.79 108.5 1226.4 108.5C1223.09 108.5 1220.4 111.186 1220.4 114.5C1220.4 115.545 1220.67 116.524 1221.14 117.377L1222.56 119.981L1219.62 119.584C1219.22 119.53 1218.81 119.5 1218.4 119.5C1215.18 119.5 1212.36 121.192 1210.77 123.742L1209.88 125.167L1208.56 124.123C1207.28 123.107 1205.67 122.5 1203.9 122.5C1200.14 122.5 1197.01 125.281 1196.48 128.902C1196.36 129.722 1195.6 130.29 1194.78 130.17C1193.96 130.05 1193.4 129.288 1193.52 128.469C1194.26 123.395 1198.63 119.5 1203.9 119.5C1205.81 119.5 1207.59 120.009 1209.13 120.894C1211.17 118.4 1214.21 116.742 1217.63 116.524C1217.48 115.873 1217.4 115.195 1217.4 114.5Z" fill="#5C504F"/>
<path d="M649.5 110.5C649.5 107.321 647.027 104.72 643.9 104.515L642.497 104.422L642.499 103.016L642.5 102.96C642.478 96.0748 636.89 90.5 630 90.5C627.942 90.5 626.004 90.996 624.295 91.874L623.082 92.498L622.346 91.3486C620.477 88.43 617.214 86.5 613.5 86.5C608.972 86.5 605.108 89.3675 603.636 93.3906C603.351 94.1685 602.49 94.5679 601.712 94.2832C600.934 93.9984 600.535 93.1373 600.819 92.3594C602.711 87.1918 607.672 83.5 613.5 83.5C617.809 83.5 621.64 85.5217 624.109 88.6592C625.927 87.9119 627.917 87.5 630 87.5C638.127 87.5 644.793 93.7552 645.446 101.714C649.481 102.604 652.5 106.197 652.5 110.5C652.5 112.583 651.788 114.501 650.602 116.024C650.093 116.678 649.15 116.795 648.496 116.286C647.843 115.777 647.725 114.834 648.234 114.181C649.028 113.162 649.5 111.888 649.5 110.5ZM645.497 103.098C645.496 103.108 645.496 103.117 645.495 103.123C645.495 103.128 645.494 103.132 645.494 103.133C645.494 103.132 645.495 103.13 645.495 103.128C645.495 103.124 645.496 103.116 645.496 103.107C645.497 103.098 645.498 103.086 645.498 103.071L645.497 103.098ZM642.504 102.891C642.504 102.892 642.504 102.893 642.504 102.895C642.504 102.892 642.505 102.889 642.505 102.888C642.505 102.886 642.505 102.885 642.505 102.885C642.505 102.886 642.504 102.888 642.504 102.891Z" fill="#5C504F"/>
<path d="M840.5 121C840.5 117.962 838.038 115.5 835 115.5C834.268 115.5 833.573 115.643 832.937 115.901L831.506 116.48L830.968 115.034C829.763 111.8 826.648 109.5 823 109.5C819.794 109.5 817.001 111.275 815.552 113.903L815.018 114.873L813.933 114.647C813.47 114.551 812.991 114.5 812.5 114.5C808.634 114.5 805.5 117.634 805.5 121.5C805.5 122.066 805.569 122.617 805.697 123.148C805.891 123.954 805.396 124.764 804.591 124.958C803.786 125.152 802.976 124.657 802.781 123.852C802.6 123.099 802.5 122.312 802.5 121.5C802.5 115.977 806.977 111.5 812.5 111.5C812.831 111.5 813.158 111.517 813.48 111.549C815.547 108.505 819.038 106.5 823 106.5C827.439 106.5 831.284 109.015 833.201 112.693C833.782 112.568 834.383 112.5 835 112.5C839.694 112.5 843.5 116.306 843.5 121C843.5 122.068 843.301 123.093 842.94 124.036C842.644 124.81 841.777 125.197 841.003 124.901C840.229 124.605 839.842 123.738 840.138 122.964C840.371 122.354 840.5 121.693 840.5 121Z" fill="#5C504F"/>
<path d="M994.5 122.5C994.5 119.186 991.814 116.5 988.5 116.5C987.357 116.5 986.293 116.818 985.387 117.369L983.687 118.404L983.161 116.484C982.058 112.457 978.373 109.5 974 109.5C969.811 109.5 966.253 112.214 964.991 115.984L964.512 117.416L963.084 116.929C962.273 116.652 961.405 116.5 960.5 116.5C956.082 116.5 952.5 120.082 952.5 124.5C952.5 124.643 952.504 124.784 952.511 124.922L952.593 126.5H951C947.962 126.5 945.5 128.962 945.5 132C945.5 132.446 945.554 132.88 945.655 133.298C945.85 134.103 945.355 134.914 944.55 135.108C943.745 135.303 942.934 134.808 942.739 134.003C942.584 133.362 942.5 132.691 942.5 132C942.5 127.805 945.54 124.32 949.537 123.627C949.982 117.96 954.719 113.5 960.5 113.5C961.243 113.5 961.97 113.575 962.672 113.717C964.662 109.456 968.983 106.5 974 106.5C979.136 106.5 983.541 109.599 985.464 114.024C986.413 113.684 987.436 113.5 988.5 113.5C993.471 113.5 997.5 117.529 997.5 122.5C997.5 122.718 997.49 122.925 997.478 123.112C997.422 123.939 996.706 124.564 995.88 124.509C995.053 124.453 994.428 123.738 994.483 122.911C994.494 122.76 994.5 122.626 994.5 122.5Z" fill="#5C504F"/>
<path d="M1044.5 90.5C1044.5 86.0817 1048.08 82.5 1052.5 82.5C1054.17 82.5 1055.72 83.0142 1057 83.8877C1058.83 81.8121 1061.51 80.5 1064.5 80.5C1069.71 80.5 1073.98 84.4789 1074.45 89.5615C1074.8 89.5217 1075.15 89.5 1075.5 89.5C1080.47 89.5 1084.5 93.5294 1084.5 98.5C1084.5 101.13 1083.37 103.497 1081.57 105.141C1080.96 105.7 1080.01 105.658 1079.45 105.047C1078.89 104.436 1078.94 103.487 1079.55 102.928C1080.75 101.828 1081.5 100.253 1081.5 98.5C1081.5 95.1863 1078.81 92.5 1075.5 92.5C1074.78 92.5 1074.09 92.6262 1073.46 92.8564L1071.19 93.6777L1071.46 91.2812C1071.48 91.02 1071.5 90.7596 1071.5 90.5C1071.5 86.634 1068.37 83.5 1064.5 83.5C1061.97 83.5 1059.76 84.8365 1058.53 86.8477L1057.5 88.5264L1056.15 87.0879C1055.24 86.1088 1053.94 85.5 1052.5 85.5C1049.74 85.5 1047.5 87.7386 1047.5 90.5C1047.5 90.7611 1047.52 91.0189 1047.56 91.2715C1047.69 92.0901 1047.12 92.856 1046.31 92.9824C1045.49 93.1086 1044.72 92.5471 1044.59 91.7285C1044.53 91.3292 1044.5 90.9189 1044.5 90.5Z" fill="#5C504F"/>
<defs>
<linearGradient id="paint0_linear_84_169" x1="640" y1="3" x2="640" y2="179" gradientUnits="userSpaceOnUse">
<stop stop-color="#92BA8B"/>
<stop offset="1" stop-color="#88B480"/>
</linearGradient>
</defs>
</svg>
