<svg width="232" height="227" viewBox="0 0 232 227" fill="none" xmlns="http://www.w3.org/2000/svg">
<path d="M126.958 30.0919C132.157 25.3732 140.473 27.3462 142.998 33.8975L159.666 77.1439C160.492 79.2886 162.033 81.0827 164.028 82.224L204.258 105.238C210.352 108.724 211.045 117.243 205.595 121.668L172.057 152.508C170.273 153.957 169.043 155.976 168.574 158.227L156.677 201.975C155.245 208.849 147.357 212.141 141.463 208.325L102.559 183.135C100.63 181.885 98.329 181.34 96.0442 181.589L49.9705 186.617C42.9909 187.379 37.4228 180.894 39.2308 174.11L49.2589 131.844C49.8508 129.623 49.659 127.266 48.7158 125.17L31.603 80.3872C28.7218 73.9846 33.1681 66.6852 40.179 66.3083L86.4594 63.8202C88.7545 63.6968 90.937 62.786 92.6389 61.2412L126.958 30.0919Z" fill="#F4EC65"/>
<path d="M123.598 26.3892C131.398 19.3099 143.875 22.2701 147.663 32.0989L166.33 75.269C166.743 76.3406 167.513 77.2374 168.509 77.8076L206.741 100.897C215.826 106.095 216.909 118.745 208.9 125.42L175.329 156.292L175.21 156.39C174.318 157.113 173.703 158.122 173.469 159.246L173.438 159.394L161.603 205.195C159.343 215.37 147.531 218.209 138.746 212.521L99.8416 187.331C98.8778 186.707 97.7285 186.435 96.5872 186.559L48.5526 192.663C38.1263 193.801 31.7611 183.086 34.3662 172.956L44.4102 130.622L44.4279 130.556C44.7236 129.447 44.6273 128.269 44.1562 127.222L44.0972 127.089L44.0449 126.955L26.9618 82.2477C22.8113 72.6878 29.4611 61.877 39.9104 61.315L86.1909 58.8272C87.3376 58.7656 88.4285 58.3103 89.2788 57.5385L123.598 26.3892ZM39.2311 174.11C37.4514 180.788 42.8188 187.176 49.6445 186.648L49.971 186.617L96.0442 181.589C98.329 181.339 100.63 181.885 102.56 183.135L141.463 208.324C147.357 212.14 155.244 208.849 156.677 201.975L168.574 158.227C169.014 156.117 170.123 154.211 171.73 152.787L172.058 152.508L205.595 121.668C210.96 117.311 210.372 108.989 204.54 105.404L204.258 105.237L164.028 82.2238C162.158 81.154 160.687 79.5104 159.829 77.5422L159.666 77.1441L142.998 33.8977C140.473 27.3464 132.157 25.3733 126.958 30.092L91.7158 63.278L91.3909 63.5602C89.7405 64.9334 87.6881 65.741 85.5366 65.8567L40.1792 66.3078C33.1683 66.6847 28.7223 73.9845 31.6036 80.3871L48.7161 125.169C49.6592 127.265 49.8511 129.622 49.2594 131.843L39.2311 174.11Z" fill="#371F15"/>
<path d="M104.057 104.06C106.703 108.928 104.52 115.227 99.1799 118.13C93.8403 121.032 87.3666 119.439 84.7207 114.571C82.0747 109.703 84.2583 103.404 89.598 100.502C94.9376 97.5991 101.411 99.1924 104.057 104.06Z" fill="#371F15"/>
<path d="M99.3062 104.881C99.4145 106.406 97.6488 107.773 95.3624 107.936C93.0759 108.098 91.1346 106.994 91.0262 105.47C90.9179 103.946 92.6836 102.578 94.97 102.416C97.2565 102.253 99.1978 103.357 99.3062 104.881Z" fill="white"/>
<path d="M133.622 112.212C129.071 115.372 128.193 121.981 131.659 126.973C135.126 131.964 141.625 133.449 146.176 130.289C150.727 127.128 151.606 120.52 148.139 115.528C144.672 110.536 138.173 109.051 133.622 112.212Z" fill="#371F15"/>
<path d="M137.498 115.08C136.716 116.393 137.679 118.408 139.649 119.58C141.619 120.752 143.849 120.638 144.631 119.325C145.412 118.012 144.449 115.997 142.479 114.825C140.51 113.652 138.279 113.766 137.498 115.08Z" fill="white"/>
<path d="M104.972 140.415C105.561 139.785 106.55 139.752 107.179 140.341L107.814 140.935C109.483 142.497 111.68 143.372 113.965 143.386C114.827 143.391 115.523 144.095 115.517 144.957C115.512 145.819 114.808 146.514 113.946 146.509C110.875 146.489 107.923 145.314 105.681 143.216L105.046 142.622C104.416 142.033 104.383 141.045 104.972 140.415ZM126.059 130.24C126.69 129.653 127.678 129.688 128.266 130.319C128.853 130.95 128.818 131.938 128.187 132.525C125.655 134.884 124.789 138.534 125.992 141.778C126.291 142.587 125.879 143.485 125.071 143.785C124.262 144.085 123.364 143.672 123.064 142.864C122.435 141.167 122.222 139.388 122.391 137.659L116.234 136.484C111.299 135.543 106.485 134.05 101.883 132.035L100.512 131.433C99.9096 133.479 98.699 135.352 96.945 136.761C96.2728 137.301 95.2897 137.194 94.7496 136.522C94.2097 135.85 94.3169 134.867 94.9891 134.327C97.6973 132.151 98.5837 128.415 97.1416 125.254C96.7837 124.47 97.1295 123.543 97.9139 123.185C98.6983 122.827 99.6248 123.173 99.9829 123.958C100.609 125.329 100.923 126.778 100.948 128.215L103.136 129.174C107.524 131.096 112.114 132.519 116.82 133.417L123.109 134.617C123.733 132.985 124.727 131.481 126.059 130.24Z" fill="#371F15"/>
</svg>
