<svg width="250" height="216" viewBox="0 0 250 216" fill="none" xmlns="http://www.w3.org/2000/svg">
<path d="M134.183 59.6337C137.072 54.7669 146.008 47.6899 153.563 48.0963C159.943 48.4396 167.605 51.9877 172.948 58.7761C176.421 63.1885 177.341 66.4464 178.677 71.9499C180.009 77.4405 180.413 84.1238 179.301 92.9505C177.255 109.196 174.972 120.663 173.585 129.522C172.185 138.457 171.677 144.83 172.847 151.669C173.559 155.831 174.785 158.746 176.416 160.71C177.953 162.56 180.068 163.83 183.191 164.367C184.992 164.508 187.626 163.08 190.321 158.657C192.887 154.445 194.703 148.695 195.138 143.383C195.53 138.583 195.221 133.014 193.858 126.567C192.882 121.947 190.805 112.268 189.691 106.247C188.431 99.4346 187.956 84.6772 180.528 60.7374C178.618 54.5828 175.686 50.6372 170.927 47.2928C165.744 43.6512 158.8 43.2287 154.765 43.7593C148.943 44.5251 139.173 48.453 127.891 55.5158C100.713 72.5297 94.4272 87.6374 64.2787 115.301L54.4558 106.529C84.599 78.8705 105.088 61.7086 120.704 51.632C136.433 41.4829 147.59 38.2778 158.967 38.9939L159.055 38.9996L159.143 39.0089C164.68 39.6176 169.584 41.4871 173.763 44.7498C177.79 47.8943 181.174 51.6863 183.425 57.5113C187.971 69.2739 193.702 97.4417 194.939 104.13C195.994 109.835 198.041 116.444 199.872 123.606C201.628 130.473 203.171 137.826 202.664 144.023C202.142 150.412 199.997 157.305 196.776 162.59C193.726 167.596 188.788 172.542 182.335 171.855L182.229 171.844L182.123 171.826C177.337 171.041 173.467 168.946 170.61 165.507C167.826 162.156 166.243 157.816 165.403 152.912C164.022 144.838 164.69 137.485 166.124 128.331C167.57 119.099 169.778 108.111 171.809 91.9836C172.832 83.8564 173.143 67.6162 169.174 61.0678C165.204 54.5194 148.969 46.1194 139.282 60.1582C129.595 74.1971 127.127 100.073 127.127 100.073C127.127 100.073 125.107 125.868 127.527 148.781L112.138 147.76C112.47 130.321 114.194 117.778 118.023 99.4931C121.465 83.0596 125.116 74.9058 134.183 59.6337Z" fill="white"/>
<path d="M159.688 34.0387C166.046 34.7375 171.852 36.9138 176.84 40.8082C181.412 44.3784 185.443 48.8624 188.089 55.7086C192.834 67.9867 198.637 96.6366 199.854 103.22C200.871 108.716 202.789 114.83 204.716 122.367C206.466 129.212 208.229 137.305 207.647 144.429C207.084 151.312 204.848 158.712 201.385 164.623L201.046 165.191C197.798 170.52 191.357 177.839 181.812 176.826L181.706 176.816L181.559 176.801L181.414 176.777L181.312 176.759L181.312 176.76C175.479 175.803 170.476 173.171 166.763 168.702C163.218 164.434 161.398 159.152 160.474 153.755C158.953 144.862 159.727 136.858 161.184 127.557C162.669 118.075 164.826 107.407 166.848 91.3584C167.325 87.5696 167.645 81.7695 167.369 76.1797C167.232 73.3908 166.95 70.7518 166.5 68.4962C166.036 66.1737 165.456 64.58 164.898 63.6598C163.726 61.7267 159.955 58.7167 155.382 57.7938C153.233 57.3601 151.133 57.4396 149.207 58.1483C147.32 58.8429 145.29 60.2538 143.397 62.9975C139.125 69.1883 136.25 78.3769 134.452 86.4645C133.572 90.4272 132.981 93.9739 132.612 96.5265C132.427 97.8006 132.299 98.8221 132.217 99.5175C132.176 99.865 132.147 100.131 132.129 100.305C132.119 100.393 132.114 100.458 132.109 100.498C132.109 100.506 132.108 100.515 132.107 100.525C132.104 100.57 132.098 100.64 132.091 100.732C132.078 100.917 132.058 101.197 132.034 101.562C131.984 102.292 131.916 103.369 131.841 104.734C131.692 107.466 131.517 111.351 131.417 115.943C131.217 125.156 131.32 137.097 132.499 148.256L133.123 154.164L107.048 152.433L107.139 147.665C107.478 129.839 109.253 116.977 113.129 98.4682C116.312 83.2693 119.748 74.731 126.986 62.0495C115.942 69.4052 108.619 76.5057 100.854 84.8256C92.2487 94.0459 82.9217 104.98 67.6589 118.984L64.3237 122.045L47.0051 106.579L51.0751 102.845C81.2149 75.1895 101.982 57.7618 117.994 47.4303C134.268 36.9292 146.483 33.1977 159.28 34.003L159.292 34.0043L159.38 34.0103L159.481 34.0167L159.668 34.0359L159.679 34.0375L159.688 34.0387ZM173.762 44.7491C169.584 41.4865 164.68 39.6167 159.143 39.008L159.055 38.999L158.966 38.9931C147.59 38.2771 136.433 41.4824 120.704 51.6313L119.226 52.5977C103.798 62.7915 83.6565 79.7343 54.4556 106.528L64.2788 115.3C93.9559 88.0693 100.51 73.0043 126.631 56.3115L127.89 55.5157C139.173 48.453 148.942 44.5251 154.765 43.7593C158.799 43.2287 165.744 43.6512 170.927 47.2928C175.686 50.6372 178.618 54.5826 180.528 60.7371C187.956 84.6767 188.43 99.4344 189.69 106.247C190.804 112.268 192.881 121.947 193.858 126.567C195.22 133.014 195.53 138.582 195.138 143.382C194.704 148.695 192.886 154.445 190.32 158.657L190.068 159.062C187.462 163.167 184.936 164.503 183.191 164.366C180.264 163.863 178.222 162.716 176.711 161.05L176.415 160.71C174.886 158.869 173.714 156.192 172.986 152.434L172.847 151.669C171.75 145.258 172.128 139.255 173.333 131.168L173.584 129.521C174.885 121.216 176.972 110.618 178.914 95.9404L179.3 92.9501C180.412 84.1235 180.009 77.4404 178.676 71.9499C177.341 66.4463 176.421 63.1877 172.948 58.7753C167.605 51.987 159.942 48.439 153.562 48.0958C146.007 47.6896 137.073 54.7663 134.183 59.633C125.117 74.905 121.464 83.059 118.022 99.4924C114.313 117.206 112.579 129.531 112.173 146.139L112.137 147.76L127.527 148.782C125.108 125.879 127.125 100.098 127.127 100.073C127.127 100.073 129.594 74.1964 139.281 60.1575C148.968 46.1187 165.204 54.5189 169.174 61.0673C173.143 67.6159 172.832 83.8563 171.809 91.9833C169.778 108.11 167.57 119.099 166.124 128.33C164.69 137.485 164.022 144.838 165.403 152.911C166.242 157.815 167.825 162.155 170.609 165.507C173.466 168.945 177.337 171.041 182.122 171.826L182.228 171.843L182.335 171.854C188.586 172.52 193.415 167.9 196.484 163.059L196.776 162.59C199.896 157.469 202.007 150.84 202.61 144.623L202.664 144.023C203.139 138.213 201.812 131.387 200.197 124.899L199.871 123.606C198.04 116.444 195.993 109.834 194.938 104.129C193.701 97.4396 187.97 69.273 183.425 57.5107C181.173 51.6859 177.789 47.8937 173.762 44.7491ZM183.597 98.616C181.719 112.362 179.73 122.596 178.524 130.295C177.147 139.085 176.745 144.806 177.775 150.825C178.403 154.494 179.391 156.466 180.261 157.514C180.872 158.25 181.719 158.899 183.319 159.289C183.362 159.261 183.413 159.228 183.469 159.187C184.014 158.788 184.936 157.884 186.051 156.055C188.181 152.559 189.778 147.572 190.154 142.975C190.503 138.707 190.239 133.625 188.966 127.601C187.999 123.026 185.902 113.257 184.774 107.155C184.356 104.898 184.036 102.084 183.597 98.616Z" fill="#371F15"/>
<path d="M69.2035 84.918C72.988 86.2972 74.9208 89.0209 75.3424 91.7509C75.5894 93.3497 75.7096 97.3813 75.7096 97.3813C82.8574 98.6739 91.2553 101.236 98.2852 105.036C107.601 110.071 115.294 116.689 120.935 124.12C120.935 124.12 125.683 122.114 127.074 121.731C129.868 120.963 133.323 121.732 136.094 124.972C138.842 128.185 139.335 133.202 136.636 136.297C134.531 138.709 130.224 142.758 130.224 142.758C132.78 152.532 131.967 162.599 127.064 171.672C114.787 194.387 95.8459 201.474 57.3959 180.693C18.946 159.913 14.4969 140.185 26.7733 117.47C32.6079 106.674 42.794 99.9513 54.8504 97.4749C54.8504 97.4749 56.8246 91.3114 58.4079 88.3814C60.3603 84.7689 65.2315 83.4708 69.2035 84.918Z" fill="#FFC3CE"/>
<path d="M22.3751 115.092C28.5352 103.694 37.5701 96.8141 49.6542 93.6441C49.7573 93.3518 49.8652 93.0439 49.9801 92.7268C50.6704 90.823 51.6682 88.2336 52.6545 86.4084C56.0592 80.1088 65.197 78.137 70.9157 80.2207C76.3101 82.1865 79.568 86.3489 80.2845 90.9876C80.3829 91.6248 80.4554 92.4547 80.5126 93.2666C87.1057 94.7776 94.3437 97.2216 100.663 100.637C109.312 105.311 116.697 111.296 122.489 118.081C123.623 117.632 124.934 117.134 125.749 116.91C130.513 115.601 135.934 117.091 139.895 121.722C143.851 126.347 143.81 133.283 140.405 139.583C139.39 141.46 136.61 144.878 136.61 144.878C138.523 154.512 136.611 163.959 131.971 173.08L131.463 174.049C124.922 186.152 117.823 195.978 104.699 198.363C91.9366 200.684 74.981 197.017 55.4234 186.447C35.8659 175.877 23.509 163.702 18.4574 151.754C13.4256 139.852 15.6809 127.963 21.7736 116.228L22.3751 115.092ZM58.4084 88.3814C56.8251 91.3114 54.8513 97.4752 54.8513 97.4752C42.7949 99.9517 32.6084 106.674 26.7738 117.47C14.4974 140.185 18.9465 159.913 57.3964 180.693C95.8464 201.474 114.788 194.387 127.064 171.672C131.967 162.599 132.781 152.532 130.225 142.758C130.242 142.741 134.536 138.705 136.636 136.297C139.335 133.202 138.843 128.185 136.095 124.972C133.323 121.732 129.868 120.963 127.074 121.731C125.684 122.114 120.936 124.12 120.936 124.12L120.401 123.426C114.812 116.278 107.311 109.913 98.2857 105.036C91.2558 101.236 82.8578 98.674 75.71 97.3813C75.71 97.3813 75.6041 93.8372 75.3874 92.0774L75.3427 91.7513C74.921 89.0213 72.9885 86.2972 69.204 84.918C65.2321 83.4708 60.3608 84.7689 58.4084 88.3814Z" fill="#371F15"/>
<path d="M98.7239 156.805C93.4422 166.577 85.1953 169.573 68.3312 160.459C51.4672 151.345 49.4553 142.805 54.737 133.032C60.0187 123.259 73.7765 121.344 85.9232 127.909C98.0698 134.474 104.006 147.032 98.7239 156.805Z" fill="white"/>
<path d="M78.9138 124.052C78.1419 125.481 76.8979 126.108 75.2336 125.503C73.8262 124.992 72.7224 123.416 73.2908 121.898C73.9029 120.263 75.969 119.119 77.51 119.952C79.331 120.936 79.6858 122.624 78.9138 124.052Z" fill="#371F15"/>
<path d="M93.8697 132.135C93.0977 133.563 93.2545 134.948 94.6721 136.009C95.8709 136.906 97.7942 136.966 98.7528 135.659C99.7851 134.251 99.6101 131.896 98.0691 131.063C96.2481 130.079 94.6417 130.707 93.8697 132.135Z" fill="#371F15"/>
<path d="M80.0868 135.553C81.4064 136.267 82.2903 137.853 81.5375 139.179C81.0235 140.084 79.1872 140.438 79.1872 140.438C79.1872 140.438 79.077 141.061 79.0448 141.367C78.9801 141.984 78.941 142.836 79.0366 143.781C79.2313 145.707 79.5781 147.373 81.4534 148.799C82.8583 149.868 84.1741 150.186 85.8877 150.059C87.3454 149.951 88.6246 148.882 89.5134 148.608C90.4023 148.335 91.4395 148.908 91.7128 149.797C91.9713 150.638 91.4395 151.354 90.6839 151.825C89.5516 152.531 88.8707 153.03 87.576 153.245C85.1653 153.645 83.5131 153.704 80.3025 151.98C76.3377 149.852 75.7463 145.646 75.5523 143.836C75.5465 143.84 75.5407 143.844 75.5349 143.848C73.8659 144.863 69.6213 145.878 67.0007 144.524C64.38 143.169 62.2996 140.788 61.5547 138.996C61.1483 138.019 60.9098 137.12 60.7727 136.469C60.7038 136.142 60.6184 135.536 60.5905 135.341C60.5088 134.436 61.2248 133.714 62.1904 133.731C63.1556 133.747 64.0042 134.494 64.0869 135.4C64.1061 135.533 64.1623 135.909 64.2152 136.16C64.3219 136.667 64.4904 137.448 64.9436 138.124C66.161 139.937 67.2292 140.709 68.7134 141.354C70.0532 141.937 72.0906 141.557 73.4158 141.042C74.3056 140.696 74.8827 139.997 75.3526 139.555C75.5854 139.336 76.0447 138.842 76.0447 138.842C76.0447 138.842 75.106 137.408 75.8192 136.088C76.5324 134.769 78.3275 134.602 80.0868 135.553Z" fill="#371F15"/>
</svg>
