<svg width="1349" height="259" viewBox="0 0 1349 259" fill="none" xmlns="http://www.w3.org/2000/svg">
<path d="M532.489 2.5C559.604 2.5003 593.22 23.6562 593.22 23.6562L653.949 57.3125L742.166 106.201L742.869 105.812L803.6 72.1562C803.745 72.0651 837.273 51.0002 864.329 51C891.435 51.0003 925.036 72.1416 925.06 72.1562L985.79 105.812L1107.25 173.125L1262.2 259H47.0986L289.569 124.625L411.029 57.3125L471.759 23.6562C471.884 23.5777 505.425 2.5 532.489 2.5Z" fill="url(#paint0_linear_77_556)"/>
<path d="M864.989 48.5039C878.909 48.6709 894.182 54.0501 905.87 59.291C917.238 64.3882 925.502 69.4882 926.322 69.999L1263.41 256.813C1264.24 257.27 1264.7 258.122 1264.7 259H1257.04L923.845 74.3428L923.785 74.3096L923.726 74.2725C923.726 74.2725 915.44 69.0619 903.825 63.8535C892.482 58.7674 878.256 53.8191 865.551 53.5146L864.327 53.5C851.328 53.5001 836.56 58.5956 824.855 63.8418C813.264 69.0371 804.982 74.2385 804.928 74.2725L804.87 74.3096L804.809 74.3428L744.107 107.982L690.239 138.164C689.044 138.855 687.514 138.447 686.823 137.252C686.131 136.057 686.54 134.528 687.735 133.836L741.615 103.648L741.634 103.637L741.655 103.626L802.333 69.998C803.162 69.4816 811.435 64.3775 822.81 59.2793C834.68 53.9591 850.24 48.5001 864.327 48.5L864.989 48.5039Z" fill="#5C504F"/>
<path d="M532.326 0C546.428 0 562.007 5.47092 573.883 10.7969C579.858 13.4767 584.972 16.1549 588.594 18.1641C590.405 19.1691 591.846 20.0086 592.838 20.5986C593.333 20.8935 593.717 21.1268 593.979 21.2871C594.109 21.367 594.21 21.4291 594.278 21.4717C594.295 21.482 594.31 21.4919 594.323 21.5L725.986 94.5C727.194 95.1693 727.63 96.6908 726.961 97.8984C726.292 99.106 724.77 99.5423 723.562 98.873L591.845 25.8428L591.784 25.8096L591.725 25.7725L591.707 25.7607C591.693 25.7518 591.67 25.7373 591.64 25.7188C591.579 25.6813 591.488 25.6243 591.366 25.5498C591.122 25.4003 590.757 25.1787 590.281 24.8955C589.329 24.3286 587.931 23.5152 586.168 22.5371C582.639 20.5796 577.654 17.9685 571.837 15.3594C560.126 10.1073 545.339 5 532.326 5C519.313 5.0002 504.527 10.1073 492.816 15.3594C486.999 17.9685 482.014 20.5796 478.485 22.5371C476.722 23.5152 475.325 24.3286 474.372 24.8955C473.896 25.1787 473.531 25.4003 473.287 25.5498C473.165 25.6245 473.073 25.6814 473.013 25.7188C472.983 25.7373 472.96 25.7519 472.946 25.7607C472.94 25.765 472.935 25.7686 472.932 25.7705L472.928 25.7725L472.869 25.8096L472.809 25.8428L52.0947 259H44C44.0798 258.213 44.5301 257.476 45.2744 257.063L470.325 21.502C470.339 21.4933 470.356 21.4832 470.374 21.4717C470.443 21.4291 470.543 21.3671 470.674 21.2871C470.935 21.1268 471.32 20.8936 471.815 20.5986C472.807 20.0086 474.248 19.1691 476.06 18.1641C479.681 16.1549 484.795 13.4767 490.771 10.7969C502.646 5.471 518.225 0.000197318 532.326 0Z" fill="#5C504F"/>
<path d="M1296.5 209C1301.84 209 1304.48 219.309 1304.93 232.762C1305.9 230.407 1307.24 229 1309 229C1313.15 229 1315 236.835 1315 246.5C1315 246.667 1315 246.834 1315 247H1315V259H1272V240C1272 233.925 1273.23 229 1276 229C1277.81 229 1278.96 231.1 1279.54 234.249C1280.36 228.744 1282.13 225 1285 225C1286.38 225 1287.5 225.862 1288.38 227.363C1289.3 216.647 1291.9 209 1296.5 209Z" fill="#E0ECC9"/>
<path d="M1296.5 214C1301.84 214 1304.48 224.309 1304.93 237.762C1305.9 235.407 1307.24 234 1309 234C1313.15 234 1315 241.835 1315 251.5C1315 251.667 1315 251.834 1315 252H1315V259H1272V245C1272 238.925 1273.23 234 1276 234C1277.81 234 1278.96 236.1 1279.54 239.249C1280.36 233.744 1282.13 230 1285 230C1286.38 230 1287.5 230.862 1288.38 232.363C1289.3 221.647 1291.9 214 1296.5 214Z" fill="#ADC8AF"/>
<path d="M1296.5 209C1291.9 209 1289.3 216.647 1288.38 227.363C1287.5 225.862 1286.38 225 1285 225C1282.13 225 1280.36 228.744 1279.54 234.249C1278.96 231.1 1277.81 229 1276 229C1273.23 229 1272 233.925 1272 240V259H1269V240C1269 236.82 1269.32 233.709 1270.11 231.285C1270.51 230.079 1271.09 228.836 1271.98 227.849C1272.94 226.797 1274.3 226 1276 226C1276.99 226 1277.85 226.265 1278.58 226.682C1278.67 226.484 1278.77 226.29 1278.88 226.102C1280.04 224.023 1282.01 222 1285 222C1285.34 222 1285.67 222.027 1285.98 222.076C1286.5 218.62 1287.26 215.522 1288.29 213.02C1289.71 209.572 1292.23 206 1296.5 206L1296.95 206.014C1299.17 206.153 1300.96 207.322 1302.29 208.872C1303.65 210.47 1304.65 212.594 1305.4 214.908C1306.42 218.037 1307.11 221.898 1307.52 226.174C1307.98 226.062 1308.47 226 1309 226C1311.12 226 1312.79 227.043 1313.97 228.426C1315.1 229.745 1315.87 231.458 1316.42 233.238C1317.34 236.211 1317.82 239.968 1317.96 244H1318V259H1315V247H1315C1315 246.834 1315 246.667 1315 246.5C1315 236.835 1313.15 229 1309 229C1307.24 229 1305.9 230.407 1304.93 232.762C1304.48 219.309 1301.84 209 1296.5 209Z" fill="#5C504F"/>
<path d="M1331 225C1335.15 225 1337 233.73 1337 244.5C1337 245.88 1336.95 247.226 1336.87 248.524C1337.66 245.767 1339.01 244 1341 244C1344.46 244 1346 249.373 1346 256C1346 257.036 1345.95 258.041 1345.84 259H1318.65C1318.24 257.274 1318 255.214 1318 253C1318 246.925 1319.23 242 1322 242C1323.36 242 1324.35 243.192 1325 245.125C1325 244.917 1325 244.709 1325 244.5C1325 233.73 1326.85 225 1331 225Z" fill="#E0ECC9"/>
<path d="M1331 230C1335.15 230 1337 238.73 1337 249.5C1337 250.88 1336.95 252.226 1336.87 253.524C1337.66 250.767 1339.01 249 1341 249C1342.99 249 1345 250.125 1346 256C1346 257.036 1345.95 258.041 1345.84 259H1318.65C1318.24 257.274 1318 255.214 1318 253C1318.65 248.5 1320 247 1322 247C1323.36 247 1324.35 248.192 1325 250.125C1325 249.917 1325 249.709 1325 249.5C1325 238.73 1326.85 230 1331 230Z" fill="#ADC8AF"/>
<path d="M1331 225C1326.85 225 1325 233.73 1325 244.5C1325 244.709 1325 244.917 1325 245.125C1324.35 243.192 1323.36 242 1322 242C1319.23 242 1318 246.925 1318 253C1318 255.214 1318.24 257.274 1318.65 259H1315.58C1315.2 257.187 1315 255.142 1315 253C1315 249.82 1315.32 246.709 1316.11 244.285C1316.51 243.079 1317.09 241.836 1317.98 240.849C1318.94 239.797 1320.3 239 1322 239C1322.06 239 1322.11 239.002 1322.17 239.004C1322.39 235.601 1322.84 232.478 1323.55 229.908C1324.09 227.971 1324.84 226.127 1325.93 224.706C1327.06 223.234 1328.75 222 1331 222C1333.25 222 1334.94 223.234 1336.07 224.706C1337.16 226.127 1337.91 227.971 1338.45 229.908C1339.31 232.996 1339.78 236.881 1339.94 241.092C1340.28 241.032 1340.63 241 1341 241C1344.67 241 1346.65 243.931 1347.61 246.458C1348.6 249.111 1349 252.519 1349 256C1349 257.027 1348.95 258.031 1348.86 259H1345.84C1345.95 258.041 1346 257.036 1346 256C1346 249.373 1344.46 244 1341 244C1339.01 244 1337.66 245.767 1336.87 248.524C1336.95 247.226 1337 245.88 1337 244.5C1337 233.73 1335.15 225 1331 225Z" fill="#5C504F"/>
<path d="M28.5 216C32.9619 216 34.9644 226.124 34.998 238.678C35.7631 236.983 36.7564 236 38 236C41.4615 236 43 243.611 43 253C43 255.112 42.8858 257.134 42.6787 259H3.81543C4.89203 252.413 7.06346 248 10.5 248C12.3754 248 13.8735 249.315 15.0234 251.579C15.2048 246.175 16.4502 242 19 242C20.6133 242 21.7032 243.672 22.333 246.269C22.1181 243.984 22 241.54 22 239C22 226.297 24 216 28.5 216Z" fill="#E0ECC9"/>
<path d="M28.5 221C32.9619 221 34.9644 231.124 34.998 243.678C35.7631 241.983 36.7564 241 38 241C41.4615 241 43 248.611 43 258C43 258 43 258 43 259H3.81543C4.89203 252.413 7.06346 253 10.5 253C12.3754 253 13.8735 254.315 15.0234 256.579C15.2048 251.175 16.4502 247 19 247C20.6133 247 21.7032 248.672 22.333 251.269C22.1181 248.984 22 246.54 22 244C22 231.297 24 221 28.5 221Z" fill="#ADC8AF"/>
<path d="M28.5 216C24 216 22 226.297 22 239C22 241.54 22.1181 243.984 22.333 246.269C21.7032 243.672 20.6133 242 19 242C16.4502 242 15.2048 246.175 15.0234 251.579C13.8735 249.315 12.3754 248 10.5 248C7.06346 248 4.89203 252.413 3.81543 259H0.775391L0.854492 258.516C1.41717 255.073 2.30437 251.915 3.67188 249.535C5.04073 247.153 7.25361 245 10.5 245C11.3321 245 12.0943 245.142 12.792 245.391C12.9423 244.795 13.118 244.229 13.3193 243.698C14.0673 241.728 15.7263 239 19 239C19 232.542 19.5034 226.507 20.6553 221.994C21.2261 219.758 22.0108 217.672 23.1338 216.079C24.2787 214.455 26.0496 213 28.5 213C30.9285 213 32.692 214.43 33.8369 216.037C34.9583 217.611 35.7417 219.673 36.3135 221.879C37.1168 224.979 37.6088 228.808 37.8398 233.003C37.8928 233.001 37.9462 233 38 233C40.1367 233 41.6813 234.227 42.6602 235.562C43.6081 236.854 44.2453 238.508 44.6973 240.209C45.5538 243.433 45.9491 247.63 45.9951 252.103L46 253C46 255.095 45.8913 257.114 45.6943 259H42.6787C42.8858 257.134 43 255.112 43 253C43 243.611 41.4615 236 38 236C36.7564 236 35.7631 236.983 34.998 238.678C34.9644 226.124 32.9619 216 28.5 216Z" fill="#5C504F"/>
<path d="M66.4998 214C63.2967 214 61.6768 221.761 61.4003 231.893C60.351 227.921 58.8488 225.52 56.857 225.52C53.7469 225.52 51.8328 231.374 50.9702 239.923C50.3477 236.397 49.3243 234.16 47.857 234.16C45.2525 234.16 44.0447 241.208 44.0023 249.999L43.9998 250L44 259H80L79.9998 249.52C79.9998 237.856 78.3927 228.4 74.857 228.4C73.4924 228.4 72.4154 229.809 71.6069 232.209C71.3557 221.922 69.7362 214 66.4998 214Z" fill="#E0ECC9"/>
<path d="M66.5 219.76C63.2969 219.76 61.6769 227.521 61.4005 237.653C60.3511 233.681 58.849 231.28 56.8571 231.28C53.747 231.28 51.8329 237.134 50.9704 245.683C50.3479 242.157 49.3244 239.92 47.8571 239.92C45.2527 239.92 44.0448 246.968 44.0025 255.759L44 255.76V259H80L80 255.28C80 243.616 78.3929 234.16 74.8571 234.16C73.4926 234.16 72.4156 235.569 71.6071 237.969C71.3558 227.682 69.7363 219.76 66.5 219.76Z" fill="#ADC8AF"/>
<path d="M66.5 214C63.2969 214 61.6769 221.761 61.4004 231.894C60.3511 227.922 58.8491 225.52 56.8574 225.52C53.7473 225.52 51.8323 231.374 50.9697 239.923C50.3473 236.398 49.3245 234.161 47.8574 234.16C45.253 234.16 44.0443 241.208 44.002 249.999L44 250V259H41V247.919L41.0361 247.905C41.1339 244.211 41.4499 240.803 42.04 238.135C42.3841 236.58 42.8658 235.058 43.5908 233.853C44.2649 232.732 45.561 231.255 47.6523 231.164L47.8574 231.16C48.4041 231.16 48.8981 231.252 49.3428 231.409C49.6172 230.333 49.9252 229.337 50.2715 228.438C50.8278 226.993 51.5528 225.604 52.543 224.532C53.5739 223.416 55.025 222.52 56.8574 222.52C57.6783 222.52 58.4138 222.698 59.0693 222.991C59.301 221.306 59.5917 219.756 59.9502 218.387C60.4071 216.642 61.0259 214.974 61.915 213.676C62.8067 212.374 64.3068 211 66.5 211C68.7168 211 70.2235 212.402 71.1133 213.718C72.0032 215.034 72.6218 216.726 73.0781 218.499C73.589 220.484 73.9629 222.843 74.2168 225.441C74.315 225.429 74.4145 225.418 74.5156 225.411L74.8574 225.4C77.2863 225.401 78.8457 227.066 79.7178 228.505C80.6146 229.984 81.2335 231.901 81.6836 233.939C82.5949 238.068 83 243.594 83 249.52V259H80V249.52C80 237.856 78.3928 228.401 74.8574 228.4C73.4928 228.4 72.415 229.809 71.6064 232.209C71.3552 221.922 69.7362 214 66.5 214Z" fill="#5C504F"/>
<path d="M1152.5 185C1160.19 185 1166.48 190.984 1166.97 198.549C1168.25 198.192 1169.6 198 1171 198C1179.28 198 1186 204.716 1186 213C1186 214.174 1185.86 215.316 1185.61 216.412C1187.2 215.514 1189.04 215 1191 215C1196.86 215 1201.65 219.588 1201.98 225.369C1203.63 223.315 1206.16 222 1209 222C1211.55 222 1213.85 223.059 1215.48 224.759C1217.24 221.903 1220.4 220 1224 220C1226.2 220 1228.24 220.714 1229.89 221.921C1233.25 216.563 1239.21 213 1246 213C1255.88 213 1264 220.541 1264.91 230.181C1265.59 230.062 1266.29 230 1267 230C1273.63 230 1279 235.373 1279 242C1279 243.793 1278.6 245.493 1277.9 247.021C1278.1 247.008 1278.3 247 1278.5 247C1283.75 247 1288 251.253 1288 256.5C1288 257.365 1287.88 258.203 1287.67 259H1074.04C1074.01 258.67 1074 258.336 1074 258C1074 250.82 1079.82 245 1087 245C1088.84 245 1090.58 245.381 1092.17 246.067C1092.06 245.562 1092 245.038 1092 244.5C1092 242.355 1092.9 240.422 1094.34 239.055C1088.88 236.976 1085 231.692 1085 225.5C1085 217.492 1091.49 211 1099.5 211C1101.15 211 1102.73 211.274 1104.2 211.779C1104.07 211.207 1104 210.612 1104 210C1104 205.582 1107.58 202 1112 202C1113.09 202 1114.13 202.219 1115.08 202.615C1117.45 196.409 1123.46 192 1130.5 192C1133.59 192 1136.48 192.849 1138.95 194.326C1141.03 188.873 1146.31 185 1152.5 185Z" fill="#9BC792"/>
<path d="M1152.5 190C1148.46 190 1144.99 192.529 1143.62 196.11L1141.5 201.672L1136.39 198.618C1134.67 197.591 1132.66 197 1130.5 197C1125.6 197 1121.41 200.065 1119.75 204.399L1117.91 209.217L1113.15 207.229C1112.8 207.082 1112.42 207 1112 207C1110.34 207 1109 208.343 1109 210C1109 210.228 1109.03 210.452 1109.08 210.672L1111.06 219.414L1102.58 216.51C1101.62 216.181 1100.59 216 1099.5 216C1094.25 216 1090 220.253 1090 225.5C1090 229.548 1092.53 233.016 1096.12 234.382L1103.56 237.212L1097.78 242.685C1097.29 243.148 1097 243.786 1097 244.5C1097 244.68 1097.02 244.855 1097.06 245.027L1098.96 254H1099L1090.18 250.655C1089.21 250.235 1088.14 250 1087 250C1084.04 250 1081.46 251.61 1080.07 254L1078 259H1074.04C1074.01 258.67 1074 258.336 1074 258C1074 250.82 1079.82 245 1087 245C1088.84 245 1090.58 245.381 1092.17 246.067C1092.06 245.562 1092 245.038 1092 244.5C1092 242.355 1092.9 240.422 1094.34 239.055C1088.88 236.976 1085 231.692 1085 225.5C1085 217.492 1091.49 211 1099.5 211C1101.15 211 1102.73 211.274 1104.2 211.779C1104.07 211.207 1104 210.612 1104 210C1104 205.582 1107.58 202 1112 202C1113.09 202 1114.13 202.219 1115.08 202.615C1117.45 196.409 1123.46 192 1130.5 192C1133.59 192 1136.48 192.849 1138.95 194.326C1141.03 188.873 1146.31 185 1152.5 185C1160.19 185 1166.48 190.984 1166.97 198.549C1168.25 198.192 1169.6 198 1171 198C1179.28 198 1186 204.716 1186 213C1186 214.174 1185.86 215.316 1185.61 216.412C1187.2 215.514 1189.04 215 1191 215C1196.86 215 1201.65 219.588 1201.98 225.369C1203.63 223.315 1206.16 222 1209 222C1211.55 222 1213.85 223.059 1215.48 224.759C1217.24 221.903 1220.4 220 1224 220C1226.2 220 1228.24 220.714 1229.89 221.921C1233.25 216.563 1239.21 213 1246 213C1255.88 213 1264 220.541 1264.91 230.181C1265.59 230.062 1266.29 230 1267 230C1273.63 230 1279 235.373 1279 242C1279 243.793 1278.6 245.493 1277.9 247.021C1278.1 247.008 1278.3 247 1278.5 247C1283.75 247 1288 251.253 1288 256.5C1288 257.365 1287.88 258.203 1287.67 259H1282C1282 259 1283.05 255.206 1282.24 254C1281.43 252.794 1280.06 252 1278.5 252C1278.43 252 1278.34 252.003 1278.21 252.011L1269.85 252.534L1273.36 244.926C1273.77 244.033 1274 243.046 1274 242C1274 238.134 1270.87 235 1267 235C1266.58 235 1266.17 235.037 1265.78 235.105L1260.45 236.04L1259.94 230.653C1259.26 223.555 1253.28 218 1246 218C1241 218 1236.61 220.616 1234.13 224.577L1231.28 229.124L1226.94 225.958C1226.12 225.354 1225.11 225 1224 225C1222.21 225 1220.63 225.942 1219.74 227.383L1216.35 232.872L1211.88 228.228C1211.15 227.464 1210.13 227 1209 227C1207.74 227 1206.62 227.576 1205.88 228.5L1197.72 238.653L1196.99 225.651C1196.81 222.501 1194.2 220 1191 220C1189.93 220 1188.93 220.28 1188.06 220.769L1178.17 226.346L1180.74 215.279C1180.91 214.55 1181 213.787 1181 213C1181 207.477 1176.52 203 1171 203C1170.06 203 1169.16 203.128 1168.31 203.365L1162.38 205.018L1161.98 198.872C1161.66 193.92 1157.53 190 1152.5 190Z" fill="#C6E2BC"/>
<path d="M1152.5 185C1146.31 185 1141.03 188.873 1138.95 194.326C1136.48 192.849 1133.59 192 1130.5 192C1123.46 192 1117.45 196.409 1115.08 202.615C1114.13 202.219 1113.09 202 1112 202C1107.58 202 1104 205.582 1104 210C1104 210.612 1104.07 211.207 1104.2 211.779C1102.73 211.274 1101.15 211 1099.5 211C1091.49 211 1085 217.492 1085 225.5C1085 231.692 1088.88 236.976 1094.34 239.055C1092.9 240.422 1092 242.355 1092 244.5C1092 245.038 1092.06 245.562 1092.17 246.067C1090.58 245.381 1088.84 245 1087 245C1079.82 245 1074 250.82 1074 258C1074 258.336 1074.01 258.67 1074.04 259H1071.03C1071.01 258.67 1071 258.336 1071 258C1071 249.163 1078.16 242 1087 242C1087.77 242 1088.52 242.056 1089.26 242.161C1089.42 241.463 1089.65 240.792 1089.94 240.155C1085.16 237.033 1082 231.64 1082 225.5C1082 215.835 1089.84 208 1099.5 208C1100.06 208 1100.62 208.028 1101.17 208.08C1102.08 202.921 1106.58 199 1112 199C1112.48 199 1112.95 199.034 1113.42 199.094C1116.74 193.08 1123.14 189 1130.5 189C1133 189 1135.39 189.472 1137.59 190.331C1140.67 185.335 1146.19 182 1152.5 182C1160.64 182 1167.47 187.55 1169.43 195.07C1169.95 195.025 1170.47 195 1171 195C1180.65 195 1188.53 202.602 1188.98 212.146C1189.64 212.051 1190.31 212 1191 212C1196.67 212 1201.54 215.367 1203.75 220.209C1205.33 219.435 1207.12 219 1209 219C1211.19 219 1213.24 219.591 1215.01 220.614C1217.34 218.378 1220.51 217 1224 217C1225.78 217 1227.48 217.36 1229.02 218.009C1233.06 213.123 1239.16 210 1246 210C1256.43 210 1265.16 217.261 1267.43 227.006C1275.51 227.232 1282 233.859 1282 242C1282 242.831 1281.93 243.647 1281.8 244.441C1287.1 245.889 1291 250.739 1291 256.5C1291 257.357 1290.91 258.193 1290.75 259H1287.67C1287.88 258.203 1288 257.365 1288 256.5C1288 251.253 1283.75 247 1278.5 247C1278.3 247 1278.1 247.008 1277.9 247.021C1278.6 245.493 1279 243.793 1279 242C1279 235.373 1273.63 230 1267 230C1266.29 230 1265.59 230.062 1264.91 230.181C1264 220.541 1255.88 213 1246 213C1239.21 213 1233.25 216.563 1229.89 221.921C1228.24 220.714 1226.2 220 1224 220C1220.4 220 1217.24 221.903 1215.48 224.759C1213.85 223.059 1211.55 222 1209 222C1206.16 222 1203.63 223.315 1201.98 225.369C1201.65 219.588 1196.86 215 1191 215C1189.04 215 1187.2 215.514 1185.61 216.412C1185.86 215.316 1186 214.174 1186 213C1186 204.716 1179.28 198 1171 198C1169.6 198 1168.25 198.192 1166.97 198.549C1166.48 190.984 1160.19 185 1152.5 185Z" fill="#5C504F"/>
<path d="M1042.5 214C1039.3 214 1037.68 221.761 1037.4 231.893C1036.35 227.921 1034.85 225.52 1032.86 225.52C1029.75 225.52 1027.83 231.374 1026.97 239.923C1026.35 236.397 1025.32 234.16 1023.86 234.16C1021.25 234.16 1020.04 241.208 1020 249.999L1020 250L1020 259H1056L1056 249.52C1056 237.856 1054.39 228.4 1050.86 228.4C1049.49 228.4 1048.42 229.809 1047.61 232.209C1047.36 221.922 1045.74 214 1042.5 214Z" fill="#E0ECC9"/>
<path d="M1042.5 219.76C1039.3 219.76 1037.68 227.521 1037.4 237.653C1036.35 233.681 1034.85 231.28 1032.86 231.28C1029.75 231.28 1027.83 237.134 1026.97 245.683C1026.35 242.157 1025.32 239.92 1023.86 239.92C1021.25 239.92 1020.04 246.968 1020 255.759L1020 255.76V259H1056L1056 255.28C1056 243.616 1054.39 234.16 1050.86 234.16C1049.49 234.16 1048.42 235.569 1047.61 237.969C1047.36 227.682 1045.74 219.76 1042.5 219.76Z" fill="#ADC8AF"/>
<path d="M1042.5 214C1039.3 214 1037.68 221.761 1037.4 231.894C1036.35 227.922 1034.85 225.52 1032.86 225.52C1029.75 225.52 1027.83 231.374 1026.97 239.923C1026.35 236.398 1025.32 234.161 1023.86 234.16C1021.25 234.16 1020.04 241.208 1020 249.999L1020 250V259H1017V247.919L1017.04 247.905C1017.13 244.211 1017.45 240.803 1018.04 238.135C1018.38 236.58 1018.87 235.058 1019.59 233.853C1020.26 232.732 1021.56 231.255 1023.65 231.164L1023.86 231.16C1024.4 231.16 1024.9 231.252 1025.34 231.409C1025.62 230.333 1025.93 229.337 1026.27 228.438C1026.83 226.993 1027.55 225.604 1028.54 224.532C1029.57 223.416 1031.03 222.52 1032.86 222.52C1033.68 222.52 1034.41 222.698 1035.07 222.991C1035.3 221.306 1035.59 219.756 1035.95 218.387C1036.41 216.642 1037.03 214.974 1037.92 213.676C1038.81 212.374 1040.31 211 1042.5 211C1044.72 211 1046.22 212.402 1047.11 213.718C1048 215.034 1048.62 216.726 1049.08 218.499C1049.59 220.484 1049.96 222.843 1050.22 225.441C1050.31 225.429 1050.41 225.418 1050.52 225.411L1050.86 225.4C1053.29 225.401 1054.85 227.066 1055.72 228.505C1056.61 229.984 1057.23 231.901 1057.68 233.939C1058.59 238.068 1059 243.594 1059 249.52V259H1056V249.52C1056 237.856 1054.39 228.401 1050.86 228.4C1049.49 228.4 1048.41 229.809 1047.61 232.209C1047.36 221.922 1045.74 214 1042.5 214Z" fill="#5C504F"/>
<path d="M1151.65 229.025C1153.01 228.829 1154.28 229.778 1154.48 231.145L1152 231.5L1154.48 231.146L1154.48 231.148C1154.48 231.15 1154.48 231.154 1154.48 231.157C1154.48 231.164 1154.48 231.174 1154.48 231.186C1154.48 231.21 1154.49 231.245 1154.5 231.29C1154.51 231.38 1154.53 231.511 1154.55 231.678C1154.59 232.011 1154.65 232.491 1154.71 233.086C1154.84 234.275 1155 235.934 1155.1 237.814C1155.23 240.211 1155.29 243.081 1155.06 245.832C1155.79 245.109 1156.49 244.414 1157.13 243.774C1158.17 242.742 1159.08 241.851 1159.72 241.219C1160.05 240.903 1160.3 240.651 1160.48 240.478C1160.57 240.391 1160.64 240.324 1160.69 240.278C1160.71 240.256 1160.73 240.239 1160.74 240.228L1160.76 240.209C1161.75 239.246 1163.33 239.267 1164.29 240.256C1165.25 241.245 1165.23 242.828 1164.24 243.791L1164.23 243.808C1164.22 243.819 1164.2 243.835 1164.18 243.857C1164.13 243.902 1164.06 243.968 1163.98 244.054C1163.8 244.225 1163.55 244.474 1163.23 244.788C1162.58 245.416 1161.69 246.302 1160.65 247.327C1158.58 249.382 1155.97 251.991 1153.8 254.236C1153.21 254.85 1152.57 255.742 1151.9 256.849C1151.55 257.585 1151.19 258.306 1150.82 259H1140.47C1139.6 257.558 1138.65 256.217 1137.7 255.24C1136.23 253.717 1133.31 252.25 1130.42 251.116C1129.04 250.574 1127.76 250.145 1126.83 249.853C1126.36 249.707 1125.99 249.595 1125.73 249.522C1125.6 249.485 1125.51 249.457 1125.44 249.439C1125.41 249.431 1125.38 249.424 1125.37 249.42C1125.36 249.418 1125.36 249.416 1125.36 249.415H1125.35C1124.02 249.057 1123.23 247.687 1123.58 246.354C1123.94 245.02 1125.31 244.229 1126.65 244.585L1126.11 246.604C1126.63 244.63 1126.65 244.586 1126.65 244.585L1126.65 244.586H1126.65C1126.65 244.586 1126.66 244.588 1126.66 244.589C1126.67 244.591 1126.67 244.593 1126.69 244.596C1126.71 244.602 1126.74 244.61 1126.78 244.621C1126.86 244.643 1126.97 244.676 1127.12 244.718C1127.41 244.801 1127.82 244.924 1128.33 245.083C1129.34 245.4 1130.73 245.867 1132.25 246.462C1133.24 246.851 1134.34 247.316 1135.45 247.853C1134.98 246.229 1134.63 244.614 1134.36 243.191C1134.04 241.528 1133.83 240.042 1133.7 238.972C1133.63 238.436 1133.59 238.001 1133.56 237.697C1133.54 237.546 1133.53 237.427 1133.52 237.344C1133.52 237.303 1133.51 237.27 1133.51 237.247C1133.51 237.236 1133.51 237.226 1133.51 237.22C1133.51 237.217 1133.51 237.214 1133.51 237.212V237.208C1133.4 235.832 1134.42 234.623 1135.79 234.509C1137.17 234.395 1138.38 235.417 1138.49 236.792V236.795C1138.49 236.798 1138.49 236.804 1138.49 236.812C1138.5 236.827 1138.5 236.852 1138.5 236.886C1138.51 236.953 1138.52 237.058 1138.53 237.192C1138.56 237.463 1138.6 237.86 1138.66 238.356C1138.78 239.348 1138.98 240.726 1139.27 242.263C1139.87 245.419 1140.81 248.933 1142.16 251.236C1143.04 252.738 1144.68 254.465 1146.57 256.143C1146.59 256.115 1146.6 256.086 1146.62 256.058C1146.9 255.524 1147.19 254.993 1147.5 254.474C1148.4 252.557 1149.16 250.628 1149.57 248.924C1150.28 245.897 1150.31 241.701 1150.11 238.089C1150.01 236.318 1149.86 234.75 1149.74 233.627C1149.68 233.066 1149.63 232.617 1149.59 232.312C1149.57 232.159 1149.55 232.042 1149.54 231.965C1149.54 231.927 1149.53 231.897 1149.53 231.879C1149.53 231.87 1149.53 231.863 1149.53 231.859C1149.53 231.858 1149.53 231.856 1149.53 231.856C1149.33 230.489 1150.28 229.222 1151.65 229.025Z" fill="#5C504F"/>
<path d="M273.5 228C269.177 228 265.221 229.569 262.168 232.166C260.664 230.819 258.678 230 256.5 230C253.003 230 250 232.113 248.695 235.131C247.113 234.407 245.354 234 243.5 234C236.596 234 231 239.596 231 246.5C231 247.431 231.103 248.337 231.296 249.21C228.254 249.971 226 252.722 226 256C226 257.074 226.243 258.091 226.675 259H303C303 251.729 297.826 245.666 290.959 244.292C290.338 235.191 282.759 228 273.5 228Z" fill="#E6F58F"/>
<path d="M273.5 228C269.177 228 265.221 229.569 262.168 232.166C260.664 230.819 258.678 230 256.5 230C253.003 230 250 232.113 248.695 235.131C247.113 234.407 245.354 234 243.5 234C236.596 234 231 239.596 231 246.5C231 247.431 231.103 248.337 231.296 249.21C228.254 249.971 226 252.722 226 256C226 257.074 226.243 258.091 226.675 259H232.5C232.5 259 230.5 256.5 232 254C233.5 251.5 237.228 252.88 237.228 252.88L236.178 248.131C236.062 247.606 236 247.061 236 246.5C236 242.358 239.358 239 243.5 239C244.616 239 245.666 239.244 246.614 239.678L251.259 241.803L253.285 237.115C253.827 235.861 255.069 235 256.5 235C257.399 235 258.209 235.333 258.832 235.891L262.084 238.802L265.408 235.975C267.592 234.117 270.41 233 273.5 233C280.111 233 285.528 238.136 285.971 244.632L286.23 248.445L289.979 249.195C292.834 249.767 295.249 251.558 296.661 254C298.074 256.442 298 259 298 259H303C303 251.729 297.826 245.666 290.959 244.292C290.338 235.191 282.759 228 273.5 228Z" fill="#FAFFC2"/>
<path d="M273.5 228C282.759 228 290.338 235.191 290.959 244.292C297.826 245.666 303 251.729 303 259H306C306 251.044 300.841 244.299 293.688 241.918C291.992 232.303 283.6 225 273.5 225C269.286 225 265.365 226.276 262.107 228.458C260.448 227.53 258.534 227 256.5 227C252.783 227 249.484 228.765 247.384 231.494C246.142 231.173 244.84 231 243.5 231C234.94 231 228 237.94 228 246.5C228 246.778 228.008 247.055 228.022 247.329C225.023 249.054 223 252.287 223 256C223 257.043 223.161 258.052 223.459 259H226.675C226.243 258.091 226 257.074 226 256C226 252.722 228.254 249.971 231.296 249.21C231.103 248.337 231 247.431 231 246.5C231 239.596 236.596 234 243.5 234C245.354 234 247.113 234.407 248.695 235.131C250 232.113 253.003 230 256.5 230C258.678 230 260.664 230.819 262.168 232.166C265.221 229.569 269.177 228 273.5 228Z" fill="#5C504F"/>
<path d="M260.5 248C259.119 248 258 249.119 258 250.5V259H263V250.5C263 249.119 261.881 248 260.5 248Z" fill="#5C504F"/>
<path d="M477 184C481.983 184 484.503 192.084 484.933 202.639C486.565 198.501 488.902 196 492 196C496.838 196 499.815 202.097 501.157 211.003C502.125 207.331 503.718 205 506 205C510.051 205 511.93 212.342 511.996 221.499L512 221.5V259H456V221C456 208.85 458.5 199 464 199C466.123 199 467.798 200.467 469.056 202.968C469.446 192.252 471.966 184 477 184Z" fill="#E0ECC9"/>
<path d="M477 190C481.983 190 484.503 198.084 484.933 208.639C486.565 204.501 488.902 202 492 202C496.838 202 499.815 208.097 501.157 217.003C502.125 213.331 503.718 211 506 211C510.051 211 511.93 218.342 511.996 227.499L512 227.5V259H456V227C456 214.85 458.5 205 464 205C466.123 205 467.798 206.467 469.056 208.968C469.446 198.252 471.966 190 477 190Z" fill="#ADC8AF"/>
<path d="M477 184C471.966 184 469.446 192.252 469.056 202.968C467.798 200.467 466.123 199 464 199C458.5 199 456 208.85 456 221V259H453V221C453 214.778 453.633 208.917 455.088 204.504C455.814 202.303 456.81 200.258 458.206 198.716C459.659 197.111 461.609 196 464 196C464.939 196 465.798 196.166 466.58 196.459C466.981 193.442 467.603 190.689 468.486 188.39C469.89 184.738 472.491 181 477 181C481.462 181 484.058 184.666 485.468 188.269C486.183 190.097 486.727 192.217 487.127 194.531C488.495 193.577 490.108 193 492 193C495.925 193 498.696 195.546 500.49 198.666C501.246 199.98 501.886 201.486 502.429 203.135C503.418 202.445 504.609 202 506 202C508.041 202 509.682 202.965 510.868 204.285C511.999 205.544 512.781 207.179 513.341 208.875C514.278 211.712 514.777 215.295 514.938 219.142L515 219.157V259H512V221.5L511.996 221.499C511.93 212.342 510.051 205 506 205C503.718 205 502.125 207.331 501.157 211.003C499.815 202.097 496.838 196 492 196C488.902 196 486.565 198.501 484.933 202.639C484.503 192.084 481.983 184 477 184Z" fill="#5C504F"/>
<path d="M398.5 164C406.734 164 413.558 170.032 414.798 177.918C416.25 177.328 417.836 177 419.5 177C426.404 177 432 182.596 432 189.5C432 189.844 431.985 190.185 431.958 190.522C434.104 189.545 436.488 189 439 189C448.389 189 456 196.611 456 206C456 208.254 455.56 210.405 454.764 212.373C463.454 214.119 470 221.795 470 231C470 235.408 468.498 239.465 465.979 242.688C467.255 244.648 468 246.987 468 249.5C468 253.303 466.299 256.707 463.619 259H400.187H336.754C336.271 257.932 336 256.748 336 255.5C336 252.834 337.228 250.455 339.148 248.896C334.355 246.824 331 242.054 331 236.5C331 229.839 335.824 224.304 342.17 223.2C339.564 220.012 338 215.939 338 211.5C338 201.283 346.283 193 356.5 193C357.46 193 358.402 193.072 359.322 193.213C359.111 192.175 359 191.1 359 190C359 181.163 366.163 174 375 174C377.766 174 380.369 174.702 382.639 175.938C384.618 169.044 390.97 164 398.5 164Z" fill="#B6E2A3"/>
<path d="M374.706 239.861C375.887 239.147 377.425 239.526 378.139 240.707V240.709C378.14 240.71 378.141 240.711 378.141 240.712C378.142 240.714 378.145 240.718 378.147 240.722C378.152 240.73 378.16 240.743 378.169 240.758C378.188 240.79 378.216 240.837 378.252 240.898C378.325 241.019 378.431 241.197 378.566 241.425C378.836 241.882 379.224 242.544 379.696 243.365C380.639 245.007 381.924 247.294 383.288 249.875C384.761 252.665 386.364 255.868 387.729 259.001H382.247C381.184 256.706 380.009 254.374 378.867 252.211C377.538 249.696 376.283 247.461 375.361 245.857C374.9 245.055 374.523 244.41 374.262 243.969C374.132 243.749 374.03 243.578 373.961 243.464C373.928 243.407 373.901 243.363 373.884 243.335C373.876 243.322 373.87 243.31 373.866 243.304C373.864 243.301 373.862 243.297 373.861 243.296L373.86 243.295C373.146 242.114 373.524 240.576 374.706 239.861ZM401.635 203.679C403.001 203.478 404.271 204.423 404.473 205.788V205.791C404.473 205.793 404.474 205.797 404.475 205.801C404.476 205.809 404.478 205.822 404.48 205.838C404.485 205.87 404.491 205.918 404.5 205.981C404.519 206.105 404.546 206.29 404.58 206.526C404.648 207.001 404.746 207.691 404.865 208.549C405.103 210.265 405.427 212.66 405.768 215.377C406.448 220.793 407.208 227.554 407.496 232.765C407.783 237.972 407.782 244.606 407.711 249.899C407.703 250.523 407.689 251.13 407.679 251.714C410.544 248.034 414.513 244.005 417.915 240.754C420.026 238.738 421.969 236.975 423.384 235.717C424.092 235.087 424.67 234.582 425.071 234.233C425.271 234.06 425.427 233.925 425.535 233.833C425.588 233.787 425.629 233.751 425.658 233.727C425.672 233.715 425.683 233.706 425.691 233.699C425.694 233.696 425.698 233.694 425.7 233.692C425.701 233.692 425.702 233.691 425.703 233.691V233.689C426.754 232.794 428.333 232.922 429.227 233.974C430.121 235.026 429.994 236.604 428.942 237.498L428.941 237.499L428.907 237.528C428.882 237.55 428.843 237.583 428.792 237.626C428.691 237.713 428.541 237.842 428.347 238.01C427.96 238.346 427.398 238.838 426.707 239.452C425.325 240.682 423.426 242.404 421.369 244.369C417.199 248.352 412.565 253.159 410.11 256.882C409.66 257.565 409.22 258.275 408.792 259.001H402.503C402.504 258.972 402.506 258.934 402.507 258.887C402.511 258.769 402.517 258.593 402.524 258.366C402.538 257.912 402.558 257.25 402.58 256.424C402.61 255.262 402.642 253.774 402.672 252.079C402.358 248.054 401.748 243.014 400.583 238.646C399.434 234.337 396.56 228.309 393.867 223.211C392.538 220.696 391.283 218.461 390.361 216.857C389.9 216.055 389.523 215.41 389.262 214.969C389.132 214.749 389.03 214.578 388.961 214.464C388.928 214.407 388.901 214.363 388.884 214.335C388.876 214.322 388.87 214.31 388.866 214.304C388.864 214.301 388.862 214.297 388.861 214.296L388.86 214.295C388.146 213.114 388.524 211.576 389.706 210.861C390.887 210.147 392.425 210.526 393.139 211.707V211.709C393.14 211.71 393.141 211.711 393.141 211.712C393.142 211.714 393.145 211.718 393.147 211.722C393.152 211.73 393.16 211.743 393.169 211.758C393.188 211.79 393.216 211.837 393.252 211.898C393.325 212.019 393.431 212.197 393.566 212.425C393.836 212.882 394.224 213.544 394.696 214.365C395.639 216.007 396.924 218.294 398.288 220.875C399.574 223.31 400.958 226.06 402.197 228.803C401.84 224.625 401.307 219.982 400.807 216.001C400.469 213.31 400.149 210.936 399.913 209.236C399.795 208.387 399.698 207.705 399.63 207.237C399.597 207.004 399.571 206.822 399.553 206.7C399.544 206.64 399.537 206.593 399.533 206.563C399.53 206.548 399.529 206.536 399.528 206.528C399.527 206.525 399.527 206.521 399.527 206.52L399.526 206.518C399.325 205.152 400.27 203.88 401.635 203.679Z" fill="#5C504F"/>
<path d="M398.5 164C406.734 164 413.558 170.032 414.798 177.918C416.25 177.328 417.836 177 419.5 177C426.404 177 432 182.596 432 189.5C432 189.844 431.985 190.185 431.958 190.522C434.104 189.545 436.488 189 439 189C448.389 189 456 196.611 456 206C456 208.254 455.56 210.405 454.764 212.373C463.454 214.119 470 221.795 470 231C470 235.408 468.498 239.465 465.979 242.688C467.255 244.648 468 246.987 468 249.5C468 253.303 466.299 256.707 463.619 259H458.5C458.5 259 460.126 255.818 461.496 254C462.443 252.743 463 251.188 463 249.5C463 247.99 462.556 246.594 461.789 245.417L459.839 242.425L462.039 239.609C463.896 237.233 465 234.252 465 231C465 224.223 460.18 218.562 453.778 217.275L447.867 216.087L450.129 210.497C450.689 209.113 451 207.598 451 206C451 199.373 445.627 194 439 194C437.218 194 435.539 194.385 434.031 195.072L426.287 198.602L426.975 190.119C426.992 189.908 427 189.702 427 189.5C427 185.358 423.642 182 419.5 182C418.499 182 417.551 182.196 416.681 182.55L410.838 184.925L409.858 178.694C408.995 173.202 404.234 169 398.5 169C393.259 169 388.825 172.51 387.444 177.317L385.724 183.31L380.248 180.329C378.693 179.483 376.911 179 375 179C368.925 179 364 183.925 364 190C364 190.764 364.077 191.504 364.222 192.214L365.653 199.24L358.565 198.155C357.898 198.053 357.209 198 356.5 198C349.044 198 343 204.044 343 211.5C343 214.743 344.138 217.708 346.041 220.036L351.456 226.66L343.027 228.126C339.036 228.82 336 232.311 336 236.5C336 239.989 338.104 242.997 341.133 244.307L348.705 247.581L342.299 252.779C341.89 253.111 341.561 253.527 341.336 254C341.111 254.473 341 259 341 259H336.754C336.271 257.932 336 256.748 336 255.5C336 252.834 337.228 250.455 339.148 248.896C334.355 246.824 331 242.054 331 236.5C331 229.839 335.824 224.304 342.17 223.2C339.564 220.012 338 215.939 338 211.5C338 201.283 346.283 193 356.5 193C357.46 193 358.402 193.072 359.322 193.213C359.111 192.175 359 191.1 359 190C359 181.163 366.163 174 375 174C377.766 174 380.369 174.702 382.639 175.938C384.618 169.044 390.97 164 398.5 164Z" fill="#E0ECC9"/>
<path d="M334.5 255.5C334.5 253.153 335.31 250.995 336.662 249.29C332.368 246.653 329.5 241.913 329.5 236.5C329.5 229.907 333.754 224.312 339.666 222.3C337.664 219.185 336.5 215.477 336.5 211.5C336.5 200.454 345.454 191.5 356.5 191.5C356.858 191.5 357.214 191.512 357.567 191.53C357.524 191.026 357.5 190.515 357.5 190C357.5 180.335 365.335 172.5 375 172.5C377.398 172.5 379.685 172.984 381.769 173.858C384.412 167.206 390.903 162.5 398.5 162.5C406.875 162.5 413.91 168.219 415.921 175.965C417.064 175.662 418.263 175.5 419.5 175.5C426.844 175.5 432.866 181.155 433.452 188.348C435.205 187.797 437.069 187.5 439 187.5C449.217 187.5 457.5 195.783 457.5 206C457.5 207.845 457.228 209.627 456.724 211.311C465.26 213.788 471.5 221.664 471.5 231C471.5 235.382 470.121 239.445 467.777 242.777C468.873 244.773 469.5 247.064 469.5 249.5C469.5 253.761 467.998 256.435 465 259H462C464.362 256.98 466.5 252.846 466.5 249.5C466.5 247.287 465.845 245.232 464.722 243.507L464.137 242.609L464.797 241.765C467.117 238.795 468.5 235.061 468.5 231C468.5 222.524 462.472 215.452 454.468 213.844L452.694 213.487L453.373 211.811C454.099 210.017 454.5 208.057 454.5 206C454.5 197.44 447.56 190.5 439 190.5C436.707 190.5 434.534 190.997 432.58 191.888L430.257 192.946L430.463 190.401C430.487 190.102 430.5 189.802 430.5 189.5C430.5 183.425 425.575 178.5 419.5 178.5C418.035 178.5 416.64 178.788 415.362 179.308L413.609 180.02L413.316 178.15C412.19 170.983 405.984 165.5 398.5 165.5C391.657 165.5 385.88 170.084 384.08 176.352L383.564 178.149L381.922 177.255C379.867 176.136 377.51 175.5 375 175.5C366.992 175.5 360.5 181.992 360.5 190C360.5 191 360.601 191.974 360.792 192.913L361.222 195.021L359.096 194.695C358.251 194.566 357.384 194.5 356.5 194.5C347.111 194.5 339.5 202.111 339.5 211.5C339.5 215.58 340.936 219.321 343.331 222.251L344.956 224.238L342.427 224.678C336.788 225.659 332.5 230.58 332.5 236.5C332.5 241.435 335.479 245.676 339.743 247.52L342.016 248.502L340.094 250.062C338.509 251.348 337.5 253.305 337.5 255.5C337.5 256.529 337.602 258.121 338 259H335.5C335 258 334.5 256.967 334.5 255.5Z" fill="#5C504F"/>
<path d="M536.5 212C540.95 212 542.982 219.548 542.999 228.883C544.055 226.457 545.545 225 547.5 225C551.969 225 554 232.611 554 242V259H522V235C522 227.82 523.562 222 527 222C528.339 222 529.391 222.884 530.18 224.387C530.763 217.24 532.792 212 536.5 212Z" fill="#E0ECC9"/>
<path d="M536.5 216C540.95 216 542.982 223.548 542.999 232.883C544.055 230.457 545.545 229 547.5 229C551.969 229 554 236.611 554 246V259H522L522 239C522 231.82 523.562 226 527 226C528.339 226 529.391 226.884 530.18 228.387C530.763 221.24 532.792 216 536.5 216Z" fill="#ADC8AF"/>
<path d="M536.5 212C532.792 212 530.763 217.24 530.18 224.387C529.391 222.884 528.339 222 527 222C523.562 222 522 227.82 522 235V259H519V235C519 231.254 519.4 227.625 520.378 224.82C521.273 222.252 523.205 219 527 219C527.313 219 527.614 219.024 527.903 219.067C528.28 217.282 528.789 215.639 529.457 214.229C530.701 211.601 532.928 209 536.5 209C540.803 209 543.104 212.687 544.244 215.952C544.887 217.795 545.334 219.94 545.617 222.261C546.198 222.093 546.825 222 547.5 222C551.821 222 554.123 225.715 555.261 228.997C556.483 232.523 557 237.151 557 242V259H554V242C554 232.611 551.969 225 547.5 225C545.545 225 544.055 226.457 542.999 228.883C542.982 219.548 540.95 212 536.5 212Z" fill="#5C504F"/>
<path d="M849.073 201.66C854.788 201.66 857.398 210.868 857.419 222.257C858.775 219.297 860.688 217.52 863.2 217.52C868.938 217.52 871.547 226.806 871.547 238.26V259H830.452V229.72C830.452 220.961 832.459 213.86 836.873 213.86C838.593 213.86 839.944 214.939 840.957 216.772C841.706 208.052 844.312 201.66 849.073 201.66Z" fill="#E0ECC9"/>
<path d="M849.073 206.54C854.788 206.54 857.398 215.748 857.419 227.137C858.775 224.178 860.688 222.4 863.2 222.4C868.938 222.4 871.547 231.686 871.547 243.14V259H830.452L830.452 234.6C830.452 225.841 832.459 218.74 836.873 218.74C838.593 218.74 839.944 219.819 840.957 221.652C841.706 212.932 844.312 206.54 849.073 206.54Z" fill="#ADC8AF"/>
<path d="M849.073 201.66C844.312 201.66 841.707 208.052 840.957 216.771C839.944 214.939 838.592 213.86 836.873 213.86C832.459 213.861 830.452 220.961 830.452 229.72V259H826.6V229.72C826.6 225.15 827.114 220.722 828.369 217.301C829.519 214.168 831.999 210.2 836.873 210.2C837.275 210.2 837.662 210.229 838.033 210.282C838.517 208.105 839.171 206.1 840.029 204.379C841.627 201.174 844.486 198 849.073 198C854.599 198 857.554 202.497 859.019 206.481C859.845 208.729 860.419 211.346 860.782 214.178C861.528 213.973 862.333 213.86 863.2 213.86C868.749 213.861 871.705 218.393 873.166 222.396C874.736 226.698 875.399 232.344 875.399 238.26V259H871.547V238.26C871.547 226.806 868.939 217.52 863.2 217.52C860.689 217.52 858.776 219.297 857.42 222.257C857.398 210.868 854.788 201.66 849.073 201.66Z" fill="#5C504F"/>
<path d="M819.5 222C815.05 222 813.018 229.548 813.001 238.883C811.945 236.457 810.455 235 808.5 235C804.031 235 802 242.611 802 252V259H834V245C834 237.82 832.438 232 829 232C827.661 232 826.609 232.884 825.82 234.387C825.237 227.24 823.208 222 819.5 222Z" fill="#E0ECC9"/>
<path d="M819.5 226C815.05 226 813.018 233.548 813.001 242.883C811.945 240.457 810.455 239 808.5 239C804.031 239 802 246.611 802 256L802 259H834L834 249C834 241.82 832.437 236 829 236C827.661 236 826.608 236.884 825.82 238.387C825.236 231.24 823.207 226 819.5 226Z" fill="#ADC8AF"/>
<path d="M819.5 222C823.208 222 825.237 227.24 825.82 234.387C826.609 232.884 827.661 232 829 232C832.438 232 834 237.82 834 245V259H837V245C837 241.254 836.6 237.625 835.622 234.82C834.727 232.252 832.795 229 829 229C828.687 229 828.386 229.024 828.097 229.067C827.72 227.282 827.211 225.639 826.543 224.229C825.299 221.601 823.072 219 819.5 219C815.197 219 812.896 222.687 811.756 225.952C811.113 227.795 810.666 229.94 810.383 232.261C809.802 232.093 809.175 232 808.5 232C804.179 232 801.877 235.715 800.739 238.997C799.517 242.523 799 247.151 799 252V259H802V252C802 242.611 804.031 235 808.5 235C810.455 235 811.945 236.457 813.001 238.883C813.018 229.548 815.05 222 819.5 222Z" fill="#5C504F"/>
<path d="M501.5 228C505.823 228 509.779 229.569 512.832 232.166C514.336 230.819 516.322 230 518.5 230C521.997 230 525 232.113 526.305 235.131C527.887 234.407 529.646 234 531.5 234C538.404 234 544 239.596 544 246.5C544 247.431 543.897 248.337 543.704 249.21C546.746 249.971 549 252.722 549 256C549 257.074 548.757 258.091 548.325 259H472C472 251.729 477.174 245.666 484.041 244.292C484.662 235.191 492.241 228 501.5 228Z" fill="#B6E2A3"/>
<path d="M501.5 228C505.823 228 509.779 229.569 512.832 232.166C514.336 230.819 516.322 230 518.5 230C521.997 230 525 232.113 526.305 235.131C527.887 234.407 529.646 234 531.5 234C538.404 234 544 239.596 544 246.5C544 247.431 543.897 248.337 543.704 249.21C546.746 249.971 549 252.722 549 256C549 257.074 548.757 258.091 548.325 259H542.5C542.5 259 544.5 256.5 543 254C541.5 251.5 537.772 252.88 537.772 252.88L538.822 248.131C538.938 247.606 539 247.061 539 246.5C539 242.358 535.642 239 531.5 239C530.384 239 529.334 239.244 528.386 239.678L523.741 241.803L521.715 237.115C521.173 235.861 519.931 235 518.5 235C517.601 235 516.791 235.333 516.168 235.891L512.916 238.802L509.592 235.975C507.408 234.117 504.59 233 501.5 233C494.889 233 489.472 238.136 489.029 244.632L488.77 248.445L485.021 249.195C482.166 249.767 479.751 251.558 478.339 254C476.926 256.442 477 259 477 259H472C472 251.729 477.174 245.666 484.041 244.292C484.662 235.191 492.241 228 501.5 228Z" fill="#E0ECC9"/>
<path d="M501.5 228C492.241 228 484.662 235.191 484.041 244.292C477.174 245.666 472 251.729 472 259H469C469 251.044 474.159 244.299 481.312 241.918C483.008 232.303 491.4 225 501.5 225C505.714 225 509.635 226.276 512.893 228.458C514.552 227.53 516.466 227 518.5 227C522.217 227 525.516 228.765 527.616 231.494C528.858 231.173 530.16 231 531.5 231C540.06 231 547 237.94 547 246.5C547 246.778 546.992 247.055 546.978 247.329C549.977 249.054 552 252.287 552 256C552 257.043 551.839 258.052 551.541 259H548.325C548.757 258.091 549 257.074 549 256C549 252.722 546.746 249.971 543.704 249.21C543.897 248.337 544 247.431 544 246.5C544 239.596 538.404 234 531.5 234C529.646 234 527.887 234.407 526.305 235.131C525 232.113 521.997 230 518.5 230C516.322 230 514.336 230.819 512.832 232.166C509.779 229.569 505.823 228 501.5 228Z" fill="#5C504F"/>
<path d="M514.5 248C515.881 248 517 249.119 517 250.5V259H512V250.5C512 249.119 513.119 248 514.5 248Z" fill="#5C504F"/>
<path d="M766.5 228C762.177 228 758.221 229.569 755.168 232.166C753.664 230.819 751.678 230 749.5 230C746.003 230 743 232.113 741.695 235.131C740.113 234.407 738.354 234 736.5 234C729.596 234 724 239.596 724 246.5C724 247.431 724.103 248.337 724.296 249.21C721.254 249.971 719 252.722 719 256C719 257.074 719.243 258.091 719.675 259H796C796 251.729 790.826 245.666 783.959 244.292C783.338 235.191 775.759 228 766.5 228Z" fill="#E6F58F"/>
<path d="M766.5 228C762.177 228 758.221 229.569 755.168 232.166C753.664 230.819 751.678 230 749.5 230C746.003 230 743 232.113 741.695 235.131C740.113 234.407 738.354 234 736.5 234C729.596 234 724 239.596 724 246.5C724 247.431 724.103 248.337 724.296 249.21C721.254 249.971 719 252.722 719 256C719 257.074 719.243 258.091 719.675 259H725.5C725.5 259 723.5 256.5 725 254C726.5 251.5 730.228 252.88 730.228 252.88L729.178 248.131C729.062 247.606 729 247.061 729 246.5C729 242.358 732.358 239 736.5 239C737.616 239 738.666 239.244 739.614 239.678L744.259 241.803L746.285 237.115C746.827 235.861 748.069 235 749.5 235C750.399 235 751.209 235.333 751.832 235.891L755.084 238.802L758.408 235.975C760.592 234.117 763.41 233 766.5 233C773.111 233 778.528 238.136 778.971 244.632L779.23 248.445L782.979 249.195C785.834 249.767 788.249 251.558 789.661 254C791.074 256.442 791 259 791 259H796C796 251.729 790.826 245.666 783.959 244.292C783.338 235.191 775.759 228 766.5 228Z" fill="#FAFFC2"/>
<path d="M766.5 228C775.759 228 783.338 235.191 783.959 244.292C790.826 245.666 796 251.729 796 259H799C799 251.044 793.841 244.299 786.688 241.918C784.992 232.303 776.6 225 766.5 225C762.286 225 758.365 226.276 755.107 228.458C753.448 227.53 751.534 227 749.5 227C745.783 227 742.484 228.765 740.384 231.494C739.142 231.173 737.84 231 736.5 231C727.94 231 721 237.94 721 246.5C721 246.778 721.008 247.055 721.022 247.329C718.023 249.054 716 252.287 716 256C716 257.043 716.161 258.052 716.459 259H719.675C719.243 258.091 719 257.074 719 256C719 252.722 721.254 249.971 724.296 249.21C724.103 248.337 724 247.431 724 246.5C724 239.596 729.596 234 736.5 234C738.354 234 740.113 234.407 741.695 235.131C743 232.113 746.003 230 749.5 230C751.678 230 753.664 230.819 755.168 232.166C758.221 229.569 762.177 228 766.5 228Z" fill="#5C504F"/>
<path d="M753.5 248C752.119 248 751 249.119 751 250.5V259H756V250.5C756 249.119 754.881 248 753.5 248Z" fill="#5C504F"/>
<path d="M678 216C686.246 216 693.197 221.545 695.327 229.11C697.077 228.395 698.992 228 701 228C709.284 228 716 234.716 716 243C716 243.034 715.998 243.067 715.998 243.101C721.641 243.835 726 248.657 726 254.5C726 256.097 725.674 257.618 725.086 259H630.999C629.116 256.493 628 253.377 628 250C628 242.947 632.868 237.032 639.427 235.429C641.299 226.614 649.127 220 658.5 220C660.899 220 663.196 220.434 665.318 221.227C668.572 217.996 673.053 216 678 216Z" fill="#9BC792"/>
<path d="M678 216C673.053 216 668.572 217.996 665.318 221.227C663.196 220.434 660.899 220 658.5 220C649.127 220 641.299 226.614 639.427 235.429C632.868 237.032 628 242.947 628 250C628 253.377 629.116 256.493 630.999 259H627.41C625.878 256.351 625 253.276 625 250C625 242.182 629.982 235.534 636.941 233.047C639.716 223.766 648.314 217 658.5 217C660.609 217 662.653 217.292 664.593 217.837C668.228 214.819 672.904 213 678 213C686.541 213 693.883 218.097 697.166 225.41C698.403 225.141 699.686 225 701 225C710.152 225 717.707 231.83 718.85 240.671C724.732 242.519 729 248.006 729 254.5C729 256.067 728.749 257.581 728.286 259H725.086C725.674 257.618 726 256.097 726 254.5C726 248.657 721.641 243.835 715.998 243.101C715.998 243.067 716 243.034 716 243C716 234.716 709.284 228 701 228C698.992 228 697.077 228.395 695.327 229.11C693.197 221.545 686.246 216 678 216Z" fill="#5C504F"/>
<path d="M678 216C686.246 216 693.197 221.545 695.327 229.11C697.077 228.395 698.992 228 701 228C709.284 228 716 234.716 716 243C716 243.034 715.998 243.067 715.998 243.101C721.641 243.835 726 248.657 726 254.5C726 256.097 725.674 257.618 725.086 259H720.5L720.979 254C720.745 250.931 718.377 248.452 715.353 248.059L710.969 247.488L710.998 243.067C710.998 243.034 710.999 243.005 710.999 242.982C710.99 237.468 706.517 233 701 233C699.653 233 698.38 233.264 697.22 233.738L692.033 235.858L690.515 230.466C688.975 224.999 683.948 221 678 221C674.426 221 671.196 222.436 668.841 224.774L666.569 227.03L663.569 225.911C661.996 225.324 660.291 225 658.5 225C651.537 225 645.709 229.914 644.317 236.468L643.665 239.54L640.613 240.286C636.24 241.355 633 245.305 633 250C633 251.426 633.297 252.777 633.832 254L636 259H630.999C629.116 256.493 628 253.377 628 250C628 242.947 632.868 237.032 639.427 235.429C641.299 226.614 649.127 220 658.5 220C660.899 220 663.196 220.434 665.318 221.227C668.572 217.996 673.053 216 678 216Z" fill="#C6E2BC"/>
<path d="M667.589 238.534C668.951 238.307 670.239 239.227 670.466 240.589L673.466 258.589C673.489 258.727 673.497 258.864 673.497 259H668.466L665.534 241.411C665.308 240.049 666.228 238.761 667.589 238.534ZM680.633 242.837C681.474 241.89 682.914 241.716 683.963 242.473C685.013 243.23 685.3 244.651 684.666 245.748L684.528 245.963C684.527 245.963 684.526 245.965 684.525 245.967C684.522 245.97 684.518 245.976 684.512 245.984C684.5 246.001 684.481 246.029 684.455 246.064C684.405 246.136 684.33 246.243 684.236 246.38C684.047 246.654 683.784 247.042 683.49 247.498C682.891 248.431 682.218 249.561 681.777 250.534C681.651 250.812 681.47 251.437 681.285 252.41C681.111 253.327 680.964 254.381 680.845 255.395C680.726 256.405 680.639 257.351 680.58 258.045C680.551 258.391 680.53 258.673 680.516 258.867C680.512 258.917 680.509 258.962 680.506 259H675.503C675.503 258.947 675.502 258.893 675.505 258.839V258.837C675.505 258.836 675.506 258.833 675.506 258.831C675.506 258.827 675.507 258.821 675.507 258.813C675.508 258.798 675.51 258.775 675.512 258.747C675.516 258.69 675.521 258.608 675.529 258.503C675.544 258.293 675.567 257.993 675.598 257.627C675.659 256.896 675.752 255.892 675.879 254.812C676.005 253.736 676.169 252.557 676.373 251.479C676.567 250.459 676.833 249.327 677.224 248.466C677.816 247.162 678.644 245.792 679.285 244.794C679.613 244.285 679.906 243.851 680.118 243.543C680.225 243.389 680.311 243.265 680.372 243.179C680.403 243.136 680.427 243.102 680.444 243.078C680.452 243.066 680.459 243.057 680.464 243.05L680.472 243.038L680.473 243.037L680.633 242.837Z" fill="#5C504F"/>
<path d="M966.932 184C973.389 184 978.74 188.762 979.712 194.988C980.85 194.522 982.095 194.263 983.399 194.263C988.813 194.263 993.201 198.682 993.201 204.132C993.201 204.403 993.19 204.672 993.169 204.938C994.851 204.167 996.721 203.737 998.69 203.737C1006.05 203.737 1012.02 209.746 1012.02 217.158C1012.02 218.937 1011.68 220.636 1011.05 222.189C1017.87 223.568 1023 229.628 1023 236.895C1023 240.375 1021.82 243.577 1019.85 246.122C1020.85 247.669 1021.43 249.516 1021.43 251.5C1021.43 254.503 1020.1 257.19 1018 259H851.914C851.326 257.618 851 256.097 851 254.5C851 248.657 855.359 243.835 861.002 243.101C861.002 243.067 861 243.034 861 243C861 234.716 867.716 228 876 228C878.008 228 879.923 228.395 881.673 229.11C883.803 221.545 890.754 216 899 216C903.947 216 908.428 217.996 911.682 221.227C913.804 220.434 916.101 220 918.5 220C918.856 220 919.21 220.01 919.562 220.029C920.294 212.654 926.477 206.895 933.996 206.895C934.749 206.895 935.488 206.951 936.21 207.062C936.044 206.243 935.957 205.395 935.957 204.526C935.957 197.55 941.575 191.895 948.504 191.895C950.673 191.895 952.713 192.449 954.493 193.425C956.045 187.983 961.027 184 966.932 184Z" fill="#B6E2A3"/>
<path d="M966.932 184C961.027 184 956.045 187.983 954.493 193.425C952.713 192.449 950.673 191.895 948.504 191.895C941.575 191.895 935.957 197.55 935.957 204.526C935.957 205.395 936.044 206.243 936.21 207.062C935.488 206.951 934.749 206.895 933.996 206.895C926.477 206.895 920.294 212.654 919.562 220.029C919.21 220.01 918.856 220 918.5 220C916.101 220 913.804 220.434 911.682 221.227C908.428 217.996 903.947 216 899 216C890.754 216 883.803 221.545 881.673 229.11C879.923 228.395 878.008 228 876 228C867.716 228 861 234.716 861 243C861 243.034 861.002 243.067 861.002 243.101C855.359 243.835 851 248.657 851 254.5C851 256.097 851.326 257.618 851.914 259H848.714C848.251 257.581 848 256.067 848 254.5C848 248.006 852.268 242.519 858.149 240.671C859.292 231.83 866.848 225 876 225C877.314 225 878.596 225.142 879.833 225.41C883.115 218.097 890.459 213 899 213C904.096 213 908.771 214.819 912.406 217.837C913.9 217.417 915.456 217.148 917.056 217.046C918.933 209.809 925.275 204.372 932.969 203.925C933.283 195.588 940.1 188.895 948.504 188.895C950.011 188.895 951.47 189.111 952.851 189.515C955.525 184.457 960.818 181 966.932 181C973.762 181 979.567 185.313 981.842 191.357C982.352 191.295 982.872 191.263 983.399 191.263C989.406 191.263 994.424 195.413 995.816 200.992C996.751 200.825 997.711 200.737 998.69 200.737C1007.73 200.737 1015.02 208.108 1015.02 217.158L1015.02 217.564C1014.99 218.454 1014.9 219.326 1014.74 220.177C1021.23 222.785 1025.83 229.09 1026 236.487L1026 236.895C1026 240.348 1025.03 243.577 1023.35 246.32C1023.98 247.768 1024.36 249.353 1024.42 251.019L1024.43 251.5C1024.43 254.298 1023.54 256.889 1022.03 259H1018C1020.1 257.19 1021.43 254.503 1021.43 251.5C1021.43 249.516 1020.85 247.669 1019.85 246.122C1021.82 243.577 1023 240.375 1023 236.895C1023 229.628 1017.87 223.568 1011.05 222.189C1011.68 220.636 1012.02 218.937 1012.02 217.158C1012.02 209.746 1006.05 203.737 998.69 203.737C996.721 203.737 994.851 204.167 993.169 204.938C993.19 204.672 993.201 204.403 993.201 204.132C993.201 198.682 988.813 194.263 983.399 194.263C982.095 194.263 980.85 194.522 979.712 194.988C978.74 188.762 973.389 184 966.932 184Z" fill="#5C504F"/>
<path d="M966.932 184C973.389 184 978.74 188.762 979.712 194.988C980.85 194.522 982.095 194.263 983.399 194.263C988.813 194.263 993.201 198.682 993.201 204.132C993.201 204.403 993.19 204.672 993.169 204.938C994.851 204.167 996.721 203.737 998.69 203.737C1006.05 203.737 1012.02 209.746 1012.02 217.158C1012.02 218.937 1011.68 220.636 1011.05 222.189C1017.87 223.568 1023 229.628 1023 236.895C1023 240.375 1021.82 243.577 1019.85 246.122C1020.85 247.669 1021.43 249.516 1021.43 251.5C1021.43 254.503 1020.1 257.19 1018 259H1013L1015.75 254C1016.18 253.27 1016.43 252.416 1016.43 251.5C1016.43 250.511 1016.14 249.603 1015.65 248.838L1013.72 245.859L1015.9 243.057C1017.21 241.359 1018 239.227 1018 236.895C1018 232.031 1014.57 228.002 1010.06 227.09L1004.17 225.898L1006.41 220.324C1006.8 219.352 1007.02 218.286 1007.02 217.158C1007.02 212.476 1003.26 208.737 998.69 208.737C997.455 208.737 996.295 209.006 995.254 209.483L987.502 213.039L988.185 204.538C988.195 204.406 988.201 204.27 988.201 204.132C988.201 201.496 986.153 199.397 983.644 199.269L983.399 199.263C982.764 199.263 982.162 199.388 981.605 199.616L975.748 202.013L974.771 195.76C974.17 191.905 970.861 189 966.932 189C963.339 189 960.263 191.425 959.302 194.796L957.583 200.82L952.09 197.81C951.093 197.263 949.961 196.937 948.748 196.898L948.504 196.895C944.368 196.895 940.957 200.28 940.957 204.526L940.967 204.923C940.986 205.316 941.035 205.699 941.11 206.07L942.533 213.096L935.448 212.004C934.982 211.932 934.497 211.895 933.996 211.895C929.1 211.895 925.021 215.653 924.537 220.523L924.064 225.278L919.294 225.022C919.023 225.008 918.759 225 918.5 225C916.709 225 915.004 225.324 913.431 225.911L910.431 227.03L908.159 224.774C905.804 222.436 902.574 221 899 221C893.052 221 888.025 224.999 886.485 230.466L884.967 235.858L879.78 233.738C878.62 233.264 877.347 233 876 233C870.483 233 866.009 237.468 866 242.982C866 243.005 866.002 243.034 866.002 243.067L866.031 247.488L861.647 248.059C858.623 248.452 856.255 250.931 856.021 254L857 259H851.914C851.326 257.618 851 256.097 851 254.5C851 248.657 855.359 243.835 861.002 243.101C861.002 243.067 861 243.034 861 243C861 234.716 867.716 228 876 228C878.008 228 879.923 228.395 881.673 229.11C883.803 221.545 890.754 216 899 216C903.947 216 908.428 217.996 911.682 221.227C913.804 220.434 916.101 220 918.5 220C918.856 220 919.21 220.01 919.562 220.029C920.294 212.654 926.477 206.895 933.996 206.895C934.749 206.895 935.488 206.951 936.21 207.062C936.044 206.243 935.957 205.395 935.957 204.526C935.957 197.55 941.575 191.895 948.504 191.895C950.673 191.895 952.713 192.449 954.493 193.425C956.045 187.983 961.027 184 966.932 184Z" fill="#E0ECC9"/>
<path d="M968.089 235.534C969.451 235.307 970.739 236.227 970.966 237.589L971.966 258.589C971.989 258.727 971.997 258.864 971.997 259H966.966L966.034 238.411C965.808 237.049 966.728 235.761 968.089 235.534ZM979.133 242.837C979.974 241.89 981.414 241.716 982.463 242.473C983.513 243.23 983.8 244.651 983.166 245.748L983.028 245.963C983.028 245.963 983.026 245.965 983.025 245.967C983.022 245.97 983.018 245.976 983.012 245.984C983 246.001 982.981 246.029 982.955 246.064C982.905 246.136 982.83 246.243 982.736 246.38C982.547 246.654 982.284 247.042 981.99 247.498C981.391 248.431 980.718 249.561 980.277 250.534C980.151 250.812 979.97 251.437 979.785 252.41C979.611 253.327 979.464 254.381 979.345 255.395C979.226 256.405 979.139 257.351 979.08 258.045C979.051 258.391 979.03 258.673 979.016 258.867C979.012 258.917 979.009 258.962 979.006 259H974.003C974.003 258.947 974.002 258.893 974.005 258.839V258.837C974.005 258.837 974.006 258.833 974.006 258.831C974.006 258.827 974.007 258.821 974.007 258.813C974.008 258.798 974.01 258.775 974.012 258.747C974.016 258.69 974.021 258.608 974.029 258.503C974.044 258.293 974.067 257.993 974.098 257.627C974.159 256.896 974.252 255.892 974.379 254.812C974.505 253.736 974.669 252.557 974.873 251.479C975.067 250.459 975.333 249.327 975.724 248.466C976.316 247.162 977.144 245.792 977.785 244.794C978.113 244.285 978.406 243.851 978.618 243.543C978.725 243.389 978.811 243.265 978.872 243.179C978.903 243.136 978.927 243.102 978.944 243.078C978.952 243.066 978.959 243.057 978.964 243.05L978.972 243.038L978.973 243.037L979.133 242.837Z" fill="#5C504F"/>
<path d="M959.5 248C958.119 248 957 249.119 957 250.5V259H962V250.5C962 249.119 960.881 248 959.5 248Z" fill="#5C504F"/>
<path d="M887.882 249.764C889.116 249.147 890.619 249.647 891.236 250.882L895.236 258.882C895.255 258.921 895.271 258.961 895.288 259H889.705L886.763 253.118C886.146 251.883 886.647 250.381 887.882 249.764ZM897.185 241.137C898.49 240.687 899.913 241.381 900.363 242.686L900.364 242.688L900.365 242.69C900.366 242.693 900.367 242.698 900.369 242.703C900.372 242.713 900.378 242.728 900.384 242.747C900.397 242.785 900.416 242.84 900.439 242.909C900.486 243.049 900.553 243.25 900.634 243.499C900.796 243.997 901.016 244.691 901.25 245.478C901.704 247.01 902.253 249.041 902.476 250.658C902.703 252.299 902.694 254.483 902.645 256.136C902.62 256.987 902.582 257.746 902.55 258.292C902.535 258.565 902.521 258.786 902.51 258.941C902.509 258.962 902.508 258.981 902.507 259H897.502C897.502 258.938 897.502 258.875 897.507 258.812V258.811C897.507 258.809 897.507 258.806 897.508 258.802C897.508 258.794 897.509 258.78 897.51 258.763C897.513 258.728 897.516 258.673 897.521 258.604C897.531 258.464 897.544 258.259 897.558 258.004C897.588 257.492 897.624 256.781 897.647 255.987C897.696 254.349 897.687 252.532 897.523 251.342C897.356 250.128 896.904 248.409 896.457 246.899C896.239 246.165 896.032 245.514 895.881 245.048C895.805 244.816 895.742 244.629 895.7 244.503C895.679 244.44 895.662 244.391 895.651 244.359C895.646 244.344 895.642 244.332 895.639 244.324C895.638 244.321 895.637 244.318 895.636 244.316V244.314C895.187 243.009 895.88 241.587 897.185 241.137Z" fill="#5C504F"/>
<path d="M179 191C187.552 191 194.964 195.88 198.604 203.008C200.95 201.727 203.64 201 206.5 201C215.613 201 223 208.387 223 217.5C223 219.136 222.76 220.717 222.316 222.209C223.023 222.073 223.753 222 224.5 222C230.851 222 236 227.149 236 233.5C236 235.29 235.59 236.985 234.86 238.496C236.018 238.173 237.239 238 238.5 238C245.956 238 252 244.044 252 251.5C252 254.275 251.162 256.855 249.726 259H65.5996C65.2125 257.905 65 256.727 65 255.5C65 249.701 69.701 245 75.5 245C76.4734 245 77.4151 245.135 78.3096 245.383C78.1075 244.454 78 243.489 78 242.5C78 235.551 83.2506 229.829 90.001 229.083C90.0009 229.055 90 229.028 90 229C90 219.059 98.0589 211 108 211C111.675 211 115.092 212.102 117.94 213.992C119.415 211.033 122.47 209 126 209C127.314 209 128.561 209.284 129.687 209.79C131.979 201.271 139.757 195 149 195C153.791 195 158.188 196.686 161.632 199.495C165.657 194.325 171.94 191 179 191Z" fill="#9BC792"/>
<path d="M179 191C187.552 191 194.964 195.88 198.604 203.008C200.95 201.727 203.64 201 206.5 201C215.613 201 223 208.387 223 217.5C223 219.136 222.76 220.717 222.316 222.209C223.023 222.073 223.753 222 224.5 222C230.851 222 236 227.149 236 233.5C236 235.29 235.59 236.985 234.86 238.496C236.018 238.173 237.239 238 238.5 238C245.956 238 252 244.044 252 251.5C252 254.275 251.162 256.855 249.726 259H244.5L246.627 254C246.869 253.211 247 252.373 247 251.5C247 246.806 243.194 243 238.5 243C237.697 243 236.929 243.109 236.205 243.312L225.542 246.29L230.358 236.321C230.768 235.473 231 234.52 231 233.5C231 229.91 228.09 227 224.5 227C224.08 227 223.667 227.041 223.261 227.119L215.179 228.673L217.523 220.784C217.832 219.746 218 218.645 218 217.5C218 211.149 212.851 206 206.5 206C204.498 206 202.628 206.507 201 207.396L196.489 209.859L194.151 205.282C191.332 199.762 185.601 196 179 196C173.548 196 168.696 198.562 165.577 202.567L162.435 206.603L158.472 203.37C155.886 201.261 152.597 200 149 200C142.075 200 136.235 204.697 134.515 211.089L132.989 216.758L127.636 214.351C127.136 214.126 126.587 214 126 214C124.439 214 123.078 214.894 122.416 216.222L119.892 221.288L115.176 218.158C113.121 216.794 110.661 216 108 216C100.82 216 95 221.82 95 229C95.0002 229.016 95.0009 229.037 95.001 229.061L95.0215 233.559L90.5498 234.053C86.3046 234.522 83 238.128 83 242.5C83 243.126 83.0679 243.735 83.1953 244.32L84.9561 252.413L76.9746 250.201C76.5019 250.07 76.0088 250 75.5 250C72.9825 250 70.861 251.692 70.208 254V259H65.5996C65.2125 257.905 65 256.727 65 255.5C65 249.701 69.701 245 75.5 245C76.4734 245 77.4151 245.135 78.3096 245.383C78.1075 244.454 78 243.489 78 242.5C78 235.551 83.2506 229.829 90.001 229.083C90.0009 229.055 90 229.028 90 229C90 219.059 98.0589 211 108 211C111.675 211 115.092 212.102 117.94 213.992C119.415 211.033 122.47 209 126 209C127.314 209 128.561 209.284 129.687 209.79C131.979 201.271 139.757 195 149 195C153.791 195 158.188 196.686 161.632 199.495C165.657 194.325 171.94 191 179 191Z" fill="#C6E2BC"/>
<path d="M179 191C171.94 191 165.657 194.325 161.632 199.495C158.188 196.686 153.791 195 149 195C139.757 195 131.979 201.271 129.687 209.79C128.561 209.284 127.314 209 126 209C122.47 209 119.415 211.033 117.94 213.992C115.092 212.102 111.675 211 108 211C98.0589 211 90 219.059 90 229C90 229.028 90.0009 229.055 90.001 229.083C83.2506 229.829 78 235.551 78 242.5C78 243.489 78.1075 244.454 78.3096 245.383C77.4151 245.135 76.4734 245 75.5 245C69.701 245 65 249.701 65 255.5C65 256.727 65.2125 257.905 65.5996 259H62.4619C62.162 257.883 62 256.709 62 255.5C62 248.209 67.78 242.269 75.0078 242.01C75.2233 234.622 80.2925 228.456 87.1387 226.584C88.3369 216.124 97.2191 208 108 208C111.228 208 114.29 208.731 117.026 210.035C119.222 207.563 122.426 206 126 206C126.603 206 127.195 206.045 127.774 206.132C131.245 197.834 139.438 192 149 192C153.466 192 157.638 193.276 161.167 195.48C165.7 190.867 172.015 188 179 188C187.697 188 195.35 192.444 199.826 199.173C201.91 198.414 204.159 198 206.5 198C217.27 198 226 206.73 226 217.5C226 218.029 225.976 218.552 225.935 219.07C233.269 219.791 239 225.976 239 233.5C239 234.008 238.972 234.51 238.921 235.005C247.839 235.228 255 242.528 255 251.5C255 254.198 254.348 256.748 253.197 259H249.726C251.162 256.855 252 254.275 252 251.5C252 244.044 245.956 238 238.5 238C237.239 238 236.018 238.173 234.86 238.496C235.59 236.985 236 235.29 236 233.5C236 227.149 230.851 222 224.5 222C223.753 222 223.023 222.073 222.316 222.209C222.76 220.717 223 219.136 223 217.5C223 208.387 215.613 201 206.5 201C203.64 201 200.95 201.727 198.604 203.008C194.964 195.88 187.552 191 179 191Z" fill="#5C504F"/>
<path d="M143.815 243.299C145.031 242.645 146.547 243.099 147.202 244.314L147.203 244.316C147.204 244.318 147.206 244.322 147.208 244.326C147.213 244.336 147.222 244.351 147.232 244.37C147.254 244.41 147.288 244.471 147.331 244.55C147.419 244.708 147.548 244.941 147.713 245.231C148.043 245.811 148.512 246.616 149.065 247.515C150.196 249.35 151.598 251.436 152.853 252.821C154.086 254.181 156.277 255.926 158.295 257.408C159.136 258.026 159.917 258.574 160.533 259H152.189C151.059 258.066 149.976 257.092 149.148 256.179C147.567 254.434 145.968 252.02 144.809 250.138C144.217 249.178 143.718 248.321 143.366 247.702C143.19 247.393 143.051 247.142 142.954 246.967C142.906 246.88 142.868 246.811 142.842 246.764C142.829 246.74 142.82 246.721 142.812 246.708C142.809 246.702 142.806 246.696 142.804 246.692L142.801 246.687L142.8 246.686C142.145 245.47 142.6 243.954 143.815 243.299ZM157.087 231.939C158.225 231.158 159.781 231.448 160.562 232.586L160.563 232.587L160.564 232.589C160.566 232.591 160.567 232.593 160.569 232.596C160.573 232.602 160.579 232.611 160.587 232.622C160.602 232.644 160.624 232.676 160.651 232.717C160.707 232.799 160.788 232.919 160.89 233.071C161.094 233.377 161.385 233.818 161.738 234.365C162.443 235.459 163.4 236.984 164.401 238.707C166.249 241.886 168.426 246.034 169.307 249.413C169.45 249.054 169.602 248.711 169.76 248.392C170.959 245.966 173.017 243.389 174.654 241.516C175.493 240.556 176.264 239.735 176.824 239.153C177.104 238.863 177.334 238.63 177.495 238.469C177.575 238.388 177.639 238.325 177.683 238.281C177.705 238.26 177.723 238.242 177.735 238.23C177.741 238.224 177.746 238.219 177.75 238.216L177.757 238.209L177.949 238.04C178.942 237.253 180.389 237.329 181.292 238.256C182.195 239.183 182.232 240.633 181.419 241.604L181.245 241.791L181.196 241.84C181.16 241.875 181.105 241.929 181.034 242C180.891 242.143 180.682 242.356 180.424 242.624C179.905 243.162 179.192 243.922 178.419 244.807C176.83 246.624 175.138 248.797 174.242 250.608C173.38 252.352 172.674 255.505 172.182 258.494C172.154 258.665 172.129 258.833 172.102 259H165.08C165.158 256.232 165.063 253.287 164.561 251.045C163.974 248.416 162.039 244.594 160.078 241.22C159.125 239.58 158.212 238.123 157.536 237.075C157.199 236.553 156.923 236.133 156.731 235.847C156.636 235.704 156.561 235.594 156.512 235.521C156.487 235.484 156.468 235.456 156.456 235.439C156.45 235.43 156.445 235.423 156.442 235.419C156.441 235.417 156.44 235.416 156.439 235.415C155.658 234.277 155.948 232.72 157.087 231.939Z" fill="#5C504F"/>
<defs>
<linearGradient id="paint0_linear_77_556" x1="654.425" y1="2.5" x2="654.425" y2="259.25" gradientUnits="userSpaceOnUse">
<stop stop-color="#C2C5D4"/>
<stop offset="1" stop-color="#B2B9CB"/>
</linearGradient>
</defs>
</svg>
