<svg width="118" height="73" viewBox="0 0 118 73" fill="none" xmlns="http://www.w3.org/2000/svg">
<path d="M47 0C54.8184 0 61.6831 4.07919 65.585 10.2246C68.0661 8.8085 70.9387 8 74 8C82.8083 8 90.051 14.6991 90.9131 23.2803C91.9142 23.0966 92.9458 23 94 23C103.389 23 111 30.6112 111 40C111 41.4521 110.817 42.8615 110.475 44.207C114.983 46.9176 118 51.8562 118 57.5C118 66.0604 111.06 73 102.5 73H9C4.58172 73 1 69.4183 1 65C1 62.1461 2.4952 59.6426 4.74414 58.2266C1.82973 55.5743 0 51.751 0 47.5C0 39.4919 6.49187 33 14.5 33C14.6716 33 14.8425 33.0039 15.0127 33.0098C15.0046 32.8409 15 32.6709 15 32.5C15 26.8686 19.4332 22.2727 25 22.0117C25 22.0078 25 22.0039 25 22C25 9.84974 34.8497 0 47 0Z" fill="white"/>
</svg>
