<svg width="1280" height="480" viewBox="0 0 1280 480" fill="none" xmlns="http://www.w3.org/2000/svg">
<path d="M1141.42 170.021C1143.97 172.821 1145.06 174.532 1145.93 178.022" stroke="#5C504F" stroke-width="3" stroke-linecap="round"/>
<path d="M1159.43 164.021C1157.38 168.3 1156.74 171.313 1156.93 178.022" stroke="#5C504F" stroke-width="3" stroke-linecap="round"/>
<path d="M1172.44 166.021C1169.57 169.732 1168.37 172.032 1167.93 177.022" stroke="#5C504F" stroke-width="3" stroke-linecap="round"/>
<path d="M1182.44 170.521C1180.53 173.36 1179.67 174.988 1178.94 178.022" stroke="#5C504F" stroke-width="3" stroke-linecap="round"/>
<path d="M93.0137 270.034C95.5556 272.834 96.6475 274.545 97.5154 278.035" stroke="#5C504F" stroke-width="3" stroke-linecap="round"/>
<path d="M111.021 264.033C108.965 268.313 108.334 271.325 108.52 278.035" stroke="#5C504F" stroke-width="3" stroke-linecap="round"/>
<path d="M124.026 266.033C121.158 269.745 119.965 272.044 119.524 277.035" stroke="#5C504F" stroke-width="3" stroke-linecap="round"/>
<path d="M134.03 270.534C132.121 273.373 131.264 275.001 130.528 278.035" stroke="#5C504F" stroke-width="3" stroke-linecap="round"/>
<path d="M501.173 112.014C503.715 114.814 504.807 116.525 505.675 120.015" stroke="#5C504F" stroke-width="3" stroke-linecap="round"/>
<path d="M521.06 108.605C519.339 112.968 518.834 115.509 519.802 120.424" stroke="#5C504F" stroke-width="3" stroke-linecap="round"/>
<path d="M537.688 112.014C535.779 114.852 534.922 116.481 534.187 119.515" stroke="#5C504F" stroke-width="3" stroke-linecap="round"/>
<path d="M219.563 359.454C217.022 362.254 215.93 363.965 215.062 367.455" stroke="#5C504F" stroke-width="3" stroke-linecap="round"/>
<path d="M199.677 356.045C201.398 360.408 201.903 362.949 200.935 367.864" stroke="#5C504F" stroke-width="3" stroke-linecap="round"/>
<path d="M183.049 359.454C184.958 362.292 185.815 363.921 186.551 366.955" stroke="#5C504F" stroke-width="3" stroke-linecap="round"/>
<path d="M160.04 311.448C162.582 314.248 163.674 315.959 164.542 319.449" stroke="#5C504F" stroke-width="3" stroke-linecap="round"/>
<path d="M179.926 308.038C178.205 312.402 177.701 314.943 178.668 319.858" stroke="#5C504F" stroke-width="3" stroke-linecap="round"/>
<path d="M196.554 311.448C194.646 314.287 193.788 315.915 193.053 318.949" stroke="#5C504F" stroke-width="3" stroke-linecap="round"/>
<path d="M569.2 174.021C571.742 176.822 572.834 178.533 573.702 182.022" stroke="#5C504F" stroke-width="3" stroke-linecap="round"/>
<path d="M588.707 174.021C586.799 176.86 585.942 178.489 585.206 181.522" stroke="#5C504F" stroke-width="3" stroke-linecap="round"/>
<path d="M925.339 408.051C927.881 410.852 928.973 412.563 929.841 416.052" stroke="#5C504F" stroke-width="3" stroke-linecap="round"/>
<path d="M944.847 408.051C942.939 410.89 942.081 412.519 941.346 415.552" stroke="#5C504F" stroke-width="3" stroke-linecap="round"/>
<path d="M1040.38 440.055C1042.93 442.855 1044.02 444.566 1044.89 448.056" stroke="#5C504F" stroke-width="3" stroke-linecap="round"/>
<path d="M1059.89 440.055C1057.98 442.894 1057.13 444.523 1056.39 447.556" stroke="#5C504F" stroke-width="3" stroke-linecap="round"/>
<path d="M38 328C40.542 330.8 41.6338 332.511 42.5018 336.001" stroke="#5C504F" stroke-width="3" stroke-linecap="round"/>
<path d="M57.5077 328C55.5992 330.839 54.7421 332.467 54.0063 335.501" stroke="#5C504F" stroke-width="3" stroke-linecap="round"/>
<path d="M1250.47 368.046C1253.01 370.846 1254.1 372.557 1254.97 376.047" stroke="#5C504F" stroke-width="3" stroke-linecap="round"/>
<path d="M1269.98 368.046C1268.07 370.885 1267.21 372.513 1266.48 375.547" stroke="#5C504F" stroke-width="3" stroke-linecap="round"/>
<path d="M259.079 182.022C261.621 184.823 262.712 186.534 263.58 190.023" stroke="#5C504F" stroke-width="3" stroke-linecap="round"/>
<path d="M278.586 182.022C276.678 184.861 275.821 186.49 275.085 189.523" stroke="#5C504F" stroke-width="3" stroke-linecap="round"/>
<path d="M58.001 70.0083C60.5429 72.8085 61.6348 74.5196 62.5027 78.0093" stroke="#5C504F" stroke-width="3" stroke-linecap="round"/>
<path d="M77.5082 70.0083C75.5996 72.8471 74.7426 74.4757 74.0068 77.5092" stroke="#5C504F" stroke-width="3" stroke-linecap="round"/>
<path d="M1023.38 68.0083C1025.92 70.8085 1027.01 72.5196 1027.88 76.0093" stroke="#5C504F" stroke-width="3" stroke-linecap="round"/>
<path d="M1042.89 68.0083C1040.98 70.8471 1040.12 72.4757 1039.38 75.5092" stroke="#5C504F" stroke-width="3" stroke-linecap="round"/>
<path d="M682.245 320.04C684.787 322.84 685.878 324.551 686.746 328.041" stroke="#5C504F" stroke-width="3" stroke-linecap="round"/>
<path d="M701.752 320.04C699.844 322.879 698.987 324.507 698.251 327.541" stroke="#5C504F" stroke-width="3" stroke-linecap="round"/>
<path d="M430.146 464.058C432.688 466.858 433.78 468.569 434.648 472.059" stroke="#5C504F" stroke-width="3" stroke-linecap="round"/>
<path d="M449.654 464.058C447.745 466.897 446.888 468.525 446.152 471.559" stroke="#5C504F" stroke-width="3" stroke-linecap="round"/>
<rect y="479" width="1" height="1" fill="#BCDEA1"/>
<rect x="1279" width="1" height="1" fill="#CCE6B6"/>
</svg>
