<svg width="327" height="390" viewBox="0 0 327 390" fill="none" xmlns="http://www.w3.org/2000/svg">
<path d="M275.667 318.5C263.167 322 258.667 318.5 258.667 318.5L241.667 343C241.667 343 258.667 351.001 285.167 346.5C305.775 343 321.167 320.5 310.667 310.501C294.879 295.466 280.481 317.152 275.667 318.5Z" fill="#7CA5C2"/>
<path d="M7.15699 163.9C10.0147 92.7132 82.1419 42.8108 168.505 46.2774C254.867 49.7442 322.762 105.267 319.905 176.454C318.366 214.788 306.752 240.241 277.637 254.818C279.293 260.523 280.166 266.438 280.166 272.499C280.166 313.73 259.923 353.479 193.91 362.9C192.48 364.73 190.879 366.546 189.118 368.305C177.788 379.625 166.483 385.973 160.829 380.314C157.083 376.565 156.513 371.033 158.49 364.977C119.328 364.547 94.218 357.211 78.1931 345.468C78.0501 345.577 77.907 345.687 77.7625 345.795C64.9415 355.394 52.8501 360.074 48.0554 353.67C42.2208 345.876 47.847 333.646 59.9802 324.148C56.3088 316.958 54.0221 309.107 52.6326 300.838C46.2908 295.87 41.1658 287.475 41.1658 278C41.1658 266.031 46.1404 254.558 51.6238 250.034C17.108 233.515 5.46921 205.947 7.15699 163.9Z" fill="white"/>
<path d="M106.428 176.273C106.108 185.657 100.886 192.094 89.8413 193.218C80.5008 194.169 69.8722 188.821 68.7964 179.494C67.6378 169.448 76.0244 158.227 87.0184 158.602C100.011 159.045 106.748 166.89 106.428 176.273Z" fill="#371F15"/>
<path d="M97.5757 171.769C97.4516 175.412 92.0514 178.785 87.3057 178.624C82.5601 178.462 78.0065 176.364 76.7484 172.861C75.4386 169.214 81.3718 163.413 87.8165 163.632C94.2611 163.852 97.6999 168.126 97.5757 171.769Z" fill="white"/>
<path d="M85.6842 183.071C79.6877 182.867 76.2578 180.749 76.2578 180.749C76.7064 182.265 78.5521 186.83 85.548 187.069C91.0448 187.256 94.1622 183.86 95.7465 181.413C95.3467 181.399 91.6807 183.275 85.6842 183.071Z" fill="white"/>
<path d="M155.769 178.99C155.449 188.374 160.221 195.151 171.164 197.025C180.418 198.61 191.386 193.997 193.094 184.765C194.933 174.821 187.33 163.056 176.336 162.681C163.344 162.239 156.089 169.607 155.769 178.99Z" fill="#371F15"/>
<path d="M164.906 175.099C164.782 178.742 169.94 182.475 174.686 182.636C179.432 182.798 184.117 181.015 185.611 177.605C187.166 174.056 181.641 167.865 175.197 167.645C168.752 167.425 165.03 171.456 164.906 175.099Z" fill="white"/>
<path d="M176.002 187.184C181.998 187.388 185.564 185.509 185.564 185.509C185.014 186.991 182.862 191.42 175.866 191.182C170.369 190.995 167.49 187.394 166.076 184.845C166.476 184.858 170.005 186.98 176.002 187.184Z" fill="white"/>
<path d="M76.5747 202.254C76.18 212.751 66.8814 217.719 51.5747 217.246C38.0945 216.83 27.3894 210.568 27.7163 201.871C28.0433 193.175 39.2784 185.337 52.7586 185.754C66.2388 186.17 76.9016 193.557 76.5747 202.254Z" fill="#FFC3CE"/>
<path d="M65.1664 207C63.9111 207.337 63.2692 203.788 64.1665 200.5C65.0639 197.212 68.6631 195.745 69.1666 196.5C70.1666 198 68.6664 200 67.6665 202C66.3113 204.711 66.7541 206.574 65.1664 207Z" fill="#371F15"/>
<path d="M51.6663 208C50.413 208.442 49.4641 203.707 50.6665 199.5C51.6669 196 54.6105 192.52 57.1663 193.5C58.9318 194.177 56.1665 197.5 54.6105 201.406C53.1296 205.123 53.2516 207.441 51.6663 208Z" fill="#371F15"/>
<path d="M37.6664 208C36.3223 207.958 36.1263 201.607 37.6664 197.5C39.1663 193.5 43.1531 190.365 44.6664 191.5C46.6665 193 43.0805 196.464 41.6663 200C40.6665 202.5 39.7347 208.064 37.6664 208Z" fill="#371F15"/>
<path d="M190.841 204.215C190.391 217.692 200.542 224.791 217.992 225.398C233.359 225.932 246.071 218.759 246.443 207.594C246.816 196.43 234.709 185.502 219.341 184.968C203.974 184.433 191.214 193.051 190.841 204.215Z" fill="#FFC3CE"/>
<path d="M230.667 213.5C229.667 213.5 230.167 208 231.167 206C232.167 204 234.731 200.032 235.667 200.5C238.745 202.039 236.388 205.058 234.667 208.5C233.667 210.5 232.556 213.5 230.667 213.5Z" fill="#371F15"/>
<path d="M214.667 214C213.072 214 212.573 210 214.667 204.5C216.248 200.347 220.752 197.41 221.667 198C223.514 199.192 220.654 203.193 219.167 206C216.769 210.524 216.61 214 214.667 214Z" fill="#371F15"/>
<path d="M198.666 214C197.134 213.946 197.581 208.207 199.666 203C201.914 197.384 205.727 194.267 207.74 195.138C209.752 196.009 206.214 200.753 204.167 205.5C202.14 210.198 201.024 214.082 198.666 214Z" fill="#371F15"/>
<path d="M87.6665 8.50004C103.055 2.67754 132.547 34.4935 143.203 46.7989C151.46 46.1186 159.912 45.9334 168.505 46.2784C173.325 46.4718 178.087 46.8294 182.783 47.3409C194.052 34.3189 221.497 5.65039 240.167 11.5C257 16.7744 265.403 62.2725 267.872 78.3789C275.275 83.6408 282.04 89.4546 288.065 95.751C274.284 111.41 228.266 121.133 197.667 112.501C180.193 107.571 154.62 94.4408 142.321 80.4786C135.355 86.7434 126.565 92.7272 115.667 98.001C87.0308 111.857 51.5095 105.145 38.1548 92.9424C46.5176 84.2374 56.3362 76.5515 67.3198 70.0528C66.6833 55.5084 66.9601 16.3348 87.6665 8.50004Z" fill="#7CA5C2"/>
<path d="M144.947 78.165C150.725 84.7241 159.809 91.2682 169.759 96.8203C179.676 102.354 190.184 106.754 198.618 109.133C213.241 113.258 231.814 113.038 248.506 109.799C256.824 108.185 264.565 105.841 271.013 102.987C277.511 100.112 283.19 94.3824 286.167 91L291.667 97C288.167 102 279.476 109.136 272.513 112.218C265.501 115.321 257.241 117.805 248.506 119.5C231.095 122.879 212.693 120.376 196.717 115.869C187.676 113.319 176.661 108.688 166.348 102.934C157.25 97.8566 148.488 91.7868 142.072 85.3262C135.299 91.0012 127.066 96.373 117.191 101.151C102.181 108.414 85.4666 110.25 70.8179 108.725C56.2754 107.21 42.1006 102.293 34.6665 95.5L40.6665 88.5C46.5871 93.9099 57.8269 100.334 71.5425 101.763C85.152 103.18 100.516 101.444 114.142 94.8506C124.77 89.7078 133.279 83.9021 139.98 77.876L142.61 75.5117L144.947 78.165Z" fill="#371F15"/>
<path d="M97.094 129.503C98.0104 132.269 95.6507 134.122 93.4507 134.323C90.3114 134.61 87.6128 133.361 87.4369 131.436C87.2609 129.511 90.234 127.632 92.434 127.431C94.6339 127.23 96.486 127.668 97.094 129.503Z" fill="#371F15"/>
<path d="M164.667 129.638C163.167 132.137 165.064 134.461 167.167 135.138C170.167 136.106 173.073 135.478 173.666 133.638C174.259 131.799 171.77 129.315 169.667 128.637C167.565 127.959 165.661 127.981 164.667 129.638Z" fill="#371F15"/>
<path d="M131.373 252.829C130.837 253.81 133.227 256.898 138.724 257.095C144.221 257.293 148.173 254.481 147.862 253.421C147.417 251.904 143.801 252.775 139.386 252.616C134.97 252.458 131.901 251.859 131.373 252.829Z" fill="#371F15"/>
<path d="M127.666 203C130.166 202.501 132.253 203.926 132.667 205.997C133.167 208.498 135.167 213.497 139.667 213.996C143.166 214.384 145.167 213 147.667 210.496C148.456 209.707 150.168 209.387 151.166 210C152.673 210.925 152.166 213.004 150.666 214.5C150.371 214.794 150.067 215.077 149.76 215.354C151.221 228.292 152.341 245.989 137.668 245.506C124.719 245.08 120.986 226.695 120.25 219.42C116.743 219.014 114.008 217.339 112.166 215.496C110.623 213.952 109.667 210.995 111.167 209.996C112.667 208.997 114.909 209.948 116.667 211.496C117.919 212.599 120.354 214.459 122.667 213.996C127.656 212.998 125.676 206.524 125.667 206.496C125.667 206.496 125.166 203.5 127.666 203ZM140.166 224C135.667 224 137.166 227.998 135.667 227.999C134.167 227.999 134.666 224.5 131.666 224.5C131.186 224.5 127.495 224.96 127.189 230.28C130.468 239.543 135.667 240.19 138.668 240.002C144.675 239.625 146.452 233.89 145.271 226.188C143.596 224.948 142.417 224 140.166 224Z" fill="#371F15"/>
<path d="M140.167 224C142.417 224 143.597 224.948 145.271 226.188C146.452 233.89 144.675 239.625 138.668 240.002C135.668 240.19 130.468 239.543 127.189 230.28C127.495 224.96 131.187 224.5 131.667 224.5C134.666 224.5 134.168 227.999 135.667 227.999C137.166 227.998 135.668 224 140.167 224Z" fill="#FFC3CE"/>
<path d="M302.167 298.5C307.823 298.593 310.638 300.647 315.661 305.43C320.054 309.614 321.584 315.09 321.154 320.414C320.738 325.556 318.535 330.586 315.487 334.947C309.415 343.633 299.004 351.905 286.667 354C272.485 356.409 260.602 354.885 252.338 353.314C248.503 352.585 245.411 351.714 243.161 350.974C246.02 349.516 248.749 347.828 251.339 345.958C258.701 347.602 270.009 348.913 284.098 346.701L285.333 346.499C305.942 342.999 321.333 320.499 310.833 310.499C295.047 295.466 280.649 317.15 275.833 318.498C275.196 318.677 274.579 318.835 273.983 318.978C275.837 315.227 276.627 314.222 277.667 310.499C279.683 308.787 283.893 304.667 286.667 303C290.363 300.779 296.721 298.41 302.167 298.5Z" fill="#371F15"/>
<path d="M110.894 296.075C113.19 293.945 116.03 292.721 118.353 292.106C120.779 291.463 122.885 291.095 124.695 290.795C126.56 290.487 127.952 290.274 129.254 289.935C131.546 289.34 133.528 288.37 136.054 285.381C136.054 285.381 138.391 282.605 140.763 284.664C143.135 286.724 141.566 289.741 140.963 290.513C138.475 293.703 133.497 296.064 131.015 296.709C129.327 297.148 127.538 297.42 125.838 297.701C124.084 297.991 122.241 298.317 120.144 298.873C118.57 299.29 116.873 300.077 115.654 301.208C114.519 302.26 113.185 304.145 113.241 305.997C113.339 309.192 115.578 312.599 117.126 313.907C118.793 315.316 120.931 315.88 122.776 316.043C130.62 316.736 135.222 316.55 146.251 309.838C146.251 309.838 148.497 307.806 150.481 310.78C152.465 313.754 149.89 315.818 149.89 315.818C138.827 322.551 132.477 323.927 122.16 323.016C119.535 322.784 115.791 321.944 112.607 319.253C109.304 316.461 106.622 311.377 106.476 306.598C106.361 302.857 108.513 298.283 110.894 296.075Z" fill="#371F15"/>
<path d="M85.1895 1.95439C91.6949 -0.506961 98.6116 1.32573 104.275 3.94462C110.15 6.66094 116.142 10.8985 121.662 15.4505C131.319 23.413 140.41 33.0771 146.168 39.5638C146.583 39.5367 155.915 39.0013 162.167 39.0013C168.156 39.0013 179.858 40.0131 179.901 40.0169C185.829 33.3798 194.718 24.1818 204.464 16.7708C210.047 12.5257 216.172 8.6641 222.396 6.26884C228.587 3.88636 235.527 2.71204 242.26 4.82158C248.937 6.91384 253.761 12.5609 257.232 18.2767C260.83 24.2007 263.734 31.4675 266.069 38.7347C270.248 51.7392 272.914 65.7439 274.33 74.4183C307.744 99.1326 328.564 135.278 326.9 176.736C326.108 196.479 323.547 214.783 316.167 229.001C309.514 241.82 300.397 251.344 287.167 259.001V273.501C287.002 294.883 281.603 316.473 267.211 334.062C252.925 351.52 230.439 364.24 197.618 369.42C196.506 370.721 195.321 372.004 194.066 373.258C188.151 379.168 181.815 384.235 175.791 387.028C170.063 389.683 161.943 391.331 155.879 385.263L155.878 385.262C152.011 381.392 150.45 376.624 150.387 371.786C117.869 370.596 94.5418 365.352 78.1944 355C72.6443 358.809 67.5 362.5 62 363C55.81 363.563 47 363 42.6963 358.184L42.4532 357.866C37.5729 351.348 38.0238 343.509 40.8282 336.837C42.9928 331.688 45.463 326.43 50.167 322.001C48.3622 315.784 46.9604 309.319 45.9278 302.711C42.1187 297.583 39.7545 292.109 38.167 284.501C36.8151 278.022 37.9809 262.359 40.7784 253.764C25.7731 245.251 16.4416 233.623 9.54399 219.651C1.81244 203.988 -0.70503 185.273 0.164105 163.62C1.38909 133.109 14.5546 106.341 35.5801 85.5872C35.6177 85.5501 35.6528 85.5149 35.6778 85.4905C35.706 85.4629 35.7219 85.4471 35.7373 85.4319L36.5127 84.6761C43.5967 77.8182 51.5406 71.6348 60.1963 66.1976C60.0395 58.2954 60.3314 46.5897 62.6319 35.3558C65.2578 22.5329 71.1268 7.27561 85.1895 1.95439ZM137.167 42.5013C132.667 36.0008 103.055 2.67923 87.667 8.50127C66.9616 16.3358 66.6829 55.5062 67.3194 70.052C57.4081 75.9161 48.4468 82.7481 40.6465 90.4222C40.5968 90.471 40.5467 90.5197 40.4971 90.5686C20.6033 110.205 8.30483 135.34 7.15825 163.902C5.47054 205.947 17.1094 233.516 51.625 250.035C51.625 250.035 48.5 253.764 47.5 257C45.2945 264.137 43.8056 280.381 46.6631 288.001C51.1631 300.001 55.6654 304.73 63.1651 305.501C74.9294 306.711 79.0612 297.568 75.0235 290.501C73.6659 288.125 68.166 283.501 66.0235 280.001C66.0235 280.001 64.0235 276.748 66.0235 274.501C68.0235 272.254 70.5235 275.001 70.5235 275.001C75.0104 281.293 78.6659 282.501 81.9034 289.211C83.0083 291.502 84.7056 298.396 81.2813 303.735C77.5818 309.502 72.2395 312.501 66.0235 312.501C61.7509 312.501 58.0957 312.112 54.7852 310.615C56.0938 315.327 57.7895 319.856 59.9815 324.149C47.8484 333.648 42.2222 345.877 48.0567 353.671C52.8516 360.075 64.943 355.395 77.7637 345.796C77.9082 345.688 78.0514 345.578 78.1944 345.469C93.3394 356.567 116.6 363.729 152.167 364.845C154.167 361.001 158.099 355.314 160.83 356.501C163.562 357.689 158.667 361.001 157.381 371.001C157.285 374.635 158.376 377.858 160.83 380.315C166.485 385.973 177.789 379.626 189.119 368.306C190.88 366.547 192.482 364.731 193.911 362.901C259.924 353.48 280.167 313.731 280.167 272.5C280.167 266.439 279.294 260.524 277.639 254.82C303.167 237.501 318.367 214.789 319.906 176.455C321.498 136.808 295.531 93.5013 266.069 79.5013C263.601 63.3924 256.999 16.7758 240.167 11.5013C221.498 5.65215 196.937 34.9783 185.667 48.0013C185.631 47.9982 165.658 46.3328 155.667 46.8323C143.015 47.4649 133.658 51.003 131.167 51.5013C128.667 52.0012 127.648 52.4218 127.167 51.0013C126.581 49.2693 128.168 47.001 137.167 42.5013Z" fill="#371F15"/>
<path d="M127.756 215.823C127 217 125.493 218.359 124 218.5C124.686 220.444 126.049 221.006 126.734 220.942C127.729 220.847 128.06 219.812 127.756 215.823Z" fill="white"/>
<path d="M139.5 217C141.5 217.5 142.047 217.556 144 217C144 219 143.955 220.08 143.365 220.433C142.416 221 140.5 219 139.5 217Z" fill="white"/>
</svg>
