<svg width="121" height="121" viewBox="0 0 121 121" fill="none" xmlns="http://www.w3.org/2000/svg">
<path d="M42.5277 14.857C41.0088 11.188 37.0045 9.23515 33.1777 10.2806L15.8191 15.0148C12.3868 15.9616 10 19.0783 10 22.6289C10 71.4303 49.5697 111 98.3711 111C101.922 111 105.038 108.613 105.985 105.181L110.719 87.8223C111.765 83.9955 109.812 79.9912 106.143 78.4723L87.2064 70.5821C83.9911 69.2407 80.2629 70.1678 78.0734 72.8702L70.1042 82.595C56.2173 76.0264 44.9737 64.7827 38.405 50.8958L48.1298 42.9464C50.8322 40.7371 51.7593 37.0286 50.4179 33.8134L42.5277 14.8767V14.857Z" fill="#FF7B73"/>
<path d="M30.542 0.634849C39.2102 -1.73327 48.3146 2.69135 51.7676 11.0323L52.5273 12.8692V12.8741L59.6465 29.963C62.6438 37.1478 60.6461 45.4203 54.7432 50.4513L54.459 50.6886L51.2119 53.3429C55.4962 59.8985 61.1087 65.5098 67.665 69.7931L70.3389 66.5323C75.3507 60.3854 83.799 58.3249 91.0566 61.3526H91.0557L109.989 69.2413H109.988C118.316 72.7006 122.732 81.7969 120.366 90.4581L115.633 107.813L115.625 107.84C113.491 115.576 106.454 121 98.3711 121C44.0469 121 7.65309e-06 76.9532 0 22.629C0 14.5457 5.42406 7.50918 13.1602 5.37508L13.1875 5.36727L30.542 0.634849ZM10.0068 23.7706C10.6182 72.046 49.9508 111 98.3711 111C101.811 111 104.844 108.76 105.891 105.5L105.985 105.181L110.72 87.8223C111.732 84.1151 109.931 80.2414 106.481 78.6222L106.143 78.4727L87.2061 70.5821C83.9908 69.2409 80.2627 70.1679 78.0732 72.8702L70.1045 82.5948L69.4551 82.2833C55.8671 75.6739 44.8713 64.5654 38.4053 50.8956L48.1299 42.9464C50.7478 40.8061 51.6996 37.259 50.5371 34.1163L50.418 33.8136L42.5273 14.877V14.8575C41.0085 11.1886 37.0045 9.23497 33.1777 10.2804L15.8193 15.0147L15.5 15.1095C12.2397 16.1565 10 19.1894 10 22.629L10.0068 23.7706Z" fill="#5C504F"/>
</svg>
