<svg width="162" height="121" viewBox="0 0 162 121" fill="none" xmlns="http://www.w3.org/2000/svg">
<path d="M42.2108 58.9382V111H19.5541C14.2775 111 10 106.921 10 101.889V36.031L42.2108 58.9382Z" fill="#63D0E8"/>
<path d="M24.4676 10C27.6242 10 30.5514 10.9669 32.9297 12.6031C33.0875 12.7133 33.3218 12.884 33.4746 13.0002L42.2108 19.3711V58.9381L10 36.0309V23.2758L10.0112 23.2646C10.3042 15.8915 16.6641 10 24.4676 10Z" fill="#FF7B73"/>
<path d="M119.189 58.9382V111H141.846C147.122 111 151.4 106.921 151.4 101.889V36.031L119.189 58.9382Z" fill="#B2DB86"/>
<path d="M136.932 10C133.776 10 130.848 10.9669 128.47 12.6031C128.312 12.7133 128.078 12.884 127.925 13.0002L119.189 19.3711V58.9381L151.4 36.0309V23.2758L151.389 23.2646C151.096 15.8915 144.736 10 136.932 10Z" fill="#FFED7C"/>
<path d="M42.2109 19.3711L80.7001 46.9638L119.189 19.3711V58.938L80.7001 86.5308L42.2109 58.938V19.3711Z" fill="#FFBBC3"/>
<path d="M151.4 101.89V23.2764C151.112 16.0184 144.933 10.1843 137.297 10.0039L136.933 10C133.776 10 130.849 10.9666 128.471 12.6025L119.189 19.3711L80.7002 46.9639L42.2109 19.3711L32.9297 12.6025C30.7001 11.0687 27.9878 10.1239 25.0566 10.0117L24.4678 10C16.6644 10.0001 10.2931 15.9033 10 23.2764V101.89C10.0002 106.764 14.0145 110.744 19.0625 110.988L19.5537 111H42.2109V58.9385L80.7002 86.5303L119.189 58.9385V111H141.846L142.338 110.988C147.223 110.752 151.14 107.017 151.388 102.358L151.4 101.89ZM161.4 101.89C161.4 112.887 152.192 121 141.846 121H109.189V78.4111L80.7002 98.835L52.2109 78.4111V121H19.5537C9.2077 121 0.000202171 112.886 0 101.89V23.0771L0.0078125 22.8789C0.529742 9.74741 11.6997 8.72873e-05 24.4678 0L24.9551 0.00488281C29.8246 0.0981964 34.4009 1.58553 38.2188 4.1084L38.5977 4.36426L38.627 4.38477L38.6572 4.40527C38.9085 4.58089 46.6021 10.1924 48.0361 11.2441L80.6992 34.6592L113.362 11.2441C114.794 10.1941 122.495 4.57897 122.743 4.40527L122.772 4.38477L122.803 4.36426C126.82 1.60026 131.718 0 136.933 0L137.53 0.00683594C150.047 0.30541 160.879 9.95272 161.393 22.8789L161.4 23.0771V101.89Z" fill="#5C504F"/>
</svg>
