<svg width="139" height="122" viewBox="0 0 139 122" fill="none" xmlns="http://www.w3.org/2000/svg">
<path d="M13.0075 54.7584C11.225 55.5557 10.1295 56.4103 10.0075 58.7584C9.8778 61.2556 11.4405 62.4315 13.5075 63.2584C21.0073 66.2584 31.5073 68.7584 31.5073 68.7584C31.5073 68.7584 36.6605 70.1591 40.0073 69.7584C43.3542 69.3577 45.5336 68.6419 48.5075 66.7584C63.5073 57.2584 94.5073 35.7584 94.5073 35.7584C94.5073 35.7584 97.3485 34.02 98.5073 35.7584C99.6661 37.4968 97.5073 39.2584 97.5073 39.2584L65.0075 70.7584C65.0075 70.7584 61.5 73.2584 61.5 77.142V105.142C61.5 105.142 61 109.392 63.5 110.642C66.1874 111.986 69 109.642 69 109.642L82.2575 95.0084L99.5075 106.758C99.5075 106.758 105.007 109.745 109.5 108.142C113.993 106.54 115.007 101.758 115.007 101.758L128.507 18.2584C128.507 18.2584 129.507 14.5378 126.007 11.7584C122.507 8.97903 118.5 10.1852 117.007 10.7584C75.9349 26.5332 44.7395 40.5645 13.0075 54.7584Z" fill="white"/>
<path d="M51.5003 77.1416C51.5003 76.9513 51.5047 76.7628 51.511 76.5762C48.1599 78.3568 45.0466 79.2266 41.1966 79.6875C37.9867 80.0718 34.6484 79.588 32.7708 79.2579C31.695 79.0687 30.7601 78.8655 30.0901 78.709C29.7524 78.6301 29.4742 78.5608 29.2698 78.5088L29.0179 78.4444C28.9285 78.4227 28.8062 78.393 28.6536 78.3555C28.3259 78.2749 27.8574 78.1583 27.2757 78.0098C26.1142 77.7133 24.4893 77.2872 22.6175 76.7618C18.9438 75.7305 14.041 74.2418 9.79423 72.543C8.242 71.9221 5.63429 70.7164 3.47098 68.2911C0.97274 65.4901 -0.171747 61.9456 0.0207879 58.2393L0.0559441 57.7198C0.271696 55.1024 1.12091 52.2422 3.24149 49.7286C5.26311 47.3322 7.71391 46.1713 8.92411 45.6299C40.645 31.441 72.0671 17.3062 113.422 1.4229C115.435 0.649671 123.968 -2.32017 131.852 3.63677L132.227 3.92681L132.599 4.23149C136.382 7.39869 137.984 11.3303 138.464 14.5987C138.699 16.2009 138.663 17.5902 138.56 18.6241C138.508 19.1478 138.436 19.6022 138.366 19.9727C138.358 20.0101 138.349 20.0463 138.342 20.0821L124.84 103.596L124.789 103.835L115.008 101.759L128.508 18.2588C128.508 18.2588 129.508 14.5382 126.008 11.7588C122.508 8.97959 118.501 10.1856 117.008 10.7588L113.186 12.2325C73.985 27.4105 43.7485 41.0085 13.0081 54.7588L12.6819 54.9092C11.0924 55.6687 10.1225 56.5574 10.0081 58.7588C9.87854 61.2558 11.4411 62.432 13.5081 63.2588C21.0078 66.2588 31.5081 68.7588 31.5081 68.7588C31.5673 68.7749 36.3644 70.0714 39.6888 69.7911L40.0081 69.7588C43.1457 69.3832 45.2571 68.7299 47.9593 67.0977L48.5081 66.7588C63.508 57.2588 94.5081 35.7588 94.5081 35.7588C94.5342 35.7429 97.3547 34.0285 98.5081 35.7588C99.6616 37.4902 97.5251 39.2449 97.5081 39.2588L65.0081 70.7588C65.0081 70.7588 61.5005 73.2583 61.5003 77.1416V105.143C61.4943 105.194 61.0157 109.4 63.5003 110.643C66.1733 111.979 68.9705 109.667 69.0003 109.643C75.4017 117.325 75.3986 117.327 75.3958 117.329C75.3958 117.329 75.3927 117.333 75.3909 117.334C75.3871 117.337 75.3831 117.341 75.3792 117.344C75.3712 117.35 75.3622 117.357 75.3538 117.364C75.337 117.378 75.3197 117.393 75.3011 117.408C75.2636 117.439 75.2218 117.471 75.177 117.507C75.0877 117.578 74.9832 117.658 74.8645 117.747C74.6281 117.924 74.327 118.138 73.969 118.371C73.2736 118.823 72.2577 119.414 70.9895 119.924C68.6113 120.88 63.9752 122.059 59.0286 119.586C53.2386 116.691 51.9922 110.98 51.679 108.944C51.4739 107.611 51.4482 106.441 51.4632 105.639C51.4694 105.305 51.4844 105.009 51.5003 104.762V77.1416ZM115.008 101.759C124.698 103.816 124.788 103.839 124.788 103.843C124.788 103.843 124.787 103.848 124.786 103.851C124.785 103.856 124.784 103.863 124.783 103.868C124.78 103.879 124.777 103.891 124.775 103.902C124.769 103.926 124.764 103.952 124.758 103.979C124.746 104.032 124.732 104.091 124.717 104.154C124.686 104.282 124.649 104.432 124.603 104.6C124.511 104.934 124.386 105.351 124.219 105.829C123.89 106.771 123.371 108.028 122.574 109.394C120.993 112.099 118.004 115.726 112.86 117.561C107.724 119.392 102.803 118.437 100.105 117.676C98.604 117.253 97.3429 116.759 96.4475 116.369C95.9933 116.172 95.6152 115.993 95.3284 115.852C95.1846 115.781 95.0621 115.718 94.9632 115.667C94.9139 115.641 94.8701 115.619 94.8323 115.599C94.8134 115.589 94.7956 115.579 94.7796 115.57C94.7716 115.566 94.7643 115.562 94.7571 115.558C94.7535 115.556 94.7498 115.554 94.7464 115.552L94.7415 115.55C94.739 115.549 94.7367 115.547 99.5081 106.759C99.5619 106.788 104.693 109.554 109.076 108.279L109.5 108.143C113.973 106.547 114.999 101.8 115.008 101.759ZM99.5081 106.759L94.7366 115.547L94.2942 115.307L83.8225 108.174L75.9407 116.876L75.4016 117.324L69.0003 109.643L82.2581 95.0088L99.5081 106.759Z" fill="#5C504F"/>
</svg>
